<?xml version="1.0" encoding="UTF-8" standalone="no"?>
<!-- Created with Inkscape (http://www.inkscape.org/) -->

<svg
   xmlns:dc="http://purl.org/dc/elements/1.1/"
   xmlns:cc="http://creativecommons.org/ns#"
   xmlns:rdf="http://www.w3.org/1999/02/22-rdf-syntax-ns#"
   xmlns:svg="http://www.w3.org/2000/svg"
   xmlns="http://www.w3.org/2000/svg"
   xmlns:xlink="http://www.w3.org/1999/xlink"
   xmlns:sodipodi="http://sodipodi.sourceforge.net/DTD/sodipodi-0.dtd"
   xmlns:inkscape="http://www.inkscape.org/namespaces/inkscape"
   width="210mm"
   height="297mm"
   id="svg3881"
   version="1.1"
   inkscape:version="0.48.5 r10040"
   sodipodi:docname="Enonce.svg"
   inkscape:export-filename="/home/sverdan/Travail/01 Cours/09_fiche_MITIC/5e/images/generales/Enonce.png"
   inkscape:export-xdpi="150"
   inkscape:export-ydpi="150">
  <defs
     id="defs3883">
    <linearGradient
       inkscape:collect="always"
       id="linearGradient3823">
      <stop
         style="stop-color:#d40000;stop-opacity:1;"
         offset="0"
         id="stop3825" />
      <stop
         style="stop-color:#d40000;stop-opacity:0;"
         offset="1"
         id="stop3827" />
    </linearGradient>
    <linearGradient
       inkscape:collect="always"
       xlink:href="#linearGradient3818"
       id="linearGradient3826"
       gradientUnits="userSpaceOnUse"
       x1="45"
       y1="97.362183"
       x2="285"
       y2="182.36218"
       gradientTransform="matrix(0.98732628,-0.15870355,0.15870355,0.98732628,-18.027232,19.008471)" />
    <linearGradient
       inkscape:collect="always"
       id="linearGradient3818">
      <stop
         style="stop-color:#d40000;stop-opacity:1;"
         offset="0"
         id="stop3820" />
      <stop
         style="stop-color:#d40000;stop-opacity:0;"
         offset="1"
         id="stop3822" />
    </linearGradient>
    <linearGradient
       y2="182.36218"
       x2="285"
       y1="97.362183"
       x1="45"
       gradientTransform="matrix(0.98732628,-0.15870355,0.15870355,0.98732628,46.274321,154.70985)"
       gradientUnits="userSpaceOnUse"
       id="linearGradient3879"
       xlink:href="#linearGradient3818"
       inkscape:collect="always" />
    <linearGradient
       y2="182.36218"
       x2="285"
       y1="97.362183"
       x1="45"
       gradientTransform="matrix(0.98732628,-0.15870355,0.15870355,0.98732628,46.274321,154.70985)"
       gradientUnits="userSpaceOnUse"
       id="linearGradient3879-3"
       xlink:href="#linearGradient3818-6"
       inkscape:collect="always" />
    <linearGradient
       inkscape:collect="always"
       id="linearGradient3818-6">
      <stop
         style="stop-color:#d40000;stop-opacity:1;"
         offset="0"
         id="stop3820-7" />
      <stop
         style="stop-color:#d40000;stop-opacity:0;"
         offset="1"
         id="stop3822-5" />
    </linearGradient>
    <linearGradient
       y2="182.36218"
       x2="285"
       y1="97.362183"
       x1="45"
       gradientTransform="matrix(0.99999998,1.7899217e-4,-1.7899217e-4,0.99999998,172.67467,214.45973)"
       gradientUnits="userSpaceOnUse"
       id="linearGradient3005"
       xlink:href="#linearGradient3818-6"
       inkscape:collect="always" />
    <linearGradient
       inkscape:collect="always"
       xlink:href="#linearGradient3823"
       id="linearGradient3829"
       x1="195.46451"
       y1="380.61075"
       x2="344.9671"
       y2="438.94705"
       gradientUnits="userSpaceOnUse" />
  </defs>
  <sodipodi:namedview
     id="base"
     pagecolor="#ffffff"
     bordercolor="#666666"
     borderopacity="1.0"
     inkscape:pageopacity="0.0"
     inkscape:pageshadow="2"
     inkscape:zoom="2.8"
     inkscape:cx="264.2404"
     inkscape:cy="689.66722"
     inkscape:document-units="px"
     inkscape:current-layer="layer1"
     showgrid="true"
     inkscape:window-width="1280"
     inkscape:window-height="976"
     inkscape:window-x="0"
     inkscape:window-y="24"
     inkscape:window-maximized="1"
     inkscape:snap-grids="false"
     showguides="true"
     inkscape:guide-bbox="true">
    <inkscape:grid
       type="xygrid"
       id="grid2988"
       empspacing="5"
       visible="true"
       enabled="true"
       snapvisiblegridlinesonly="true" />
  </sodipodi:namedview>
  <metadata
     id="metadata3886">
    <rdf:RDF>
      <cc:Work
         rdf:about="">
        <dc:format>image/svg+xml</dc:format>
        <dc:type
           rdf:resource="http://purl.org/dc/dcmitype/StillImage" />
        <dc:title />
      </cc:Work>
    </rdf:RDF>
  </metadata>
  <g
     inkscape:label="Calque 1"
     inkscape:groupmode="layer"
     id="layer1">
    <g
       transform="matrix(0.9700064,-0.09781847,0.10291473,1.0205428,-118.07666,-62.208441)"
       style="font-size:19.36775398px;font-style:normal;font-variant:normal;font-weight:bold;font-stretch:normal;line-height:125%;letter-spacing:0px;word-spacing:0px;fill:#d40000;fill-opacity:1;stroke:none;font-family:Arial;-inkscape-font-specification:Arial Bold"
       id="text3024">
      <path
         d="m 284.125,381.8125 c -0.19981,0.0106 -0.39591,0.0329 -0.59375,0.0625 l -13.25,0 -22.53125,0 c 0.0644,0.17608 0.12383,0.35487 0.1875,0.53125 -0.21454,-0.17908 -0.43868,-0.35589 -0.65625,-0.53125 l -14.28125,0 c 0.0543,0.10445 0.10124,0.20842 0.15625,0.3125 0.10893,0.22613 0.20519,0.46053 0.3125,0.6875 14.05883,-0.004 28.12917,0.0149 42.1875,0.0313 -0.0965,-0.11312 -0.18417,-0.23116 -0.28125,-0.34375 -0.10991,-0.13847 -0.30615,-0.32422 -0.46875,-0.53125 0.0714,0.0262 0.14723,0.0366 0.21875,0.0625 0.65833,0.23813 1.31832,0.49167 1.96875,0.75 0.0226,0.0188 0.04,0.0436 0.0625,0.0625 2.76956,0.003 5.54299,-0.005 8.3125,0 2.952,0.19062 4.44553,3.27884 4.03125,5.9375 -0.0125,7.90647 -0.0127,15.81243 -0.0313,23.71875 0.15394,0.0583 0.31504,0.0973 0.46875,0.15625 0.18673,0.0716 0.37588,0.14683 0.5625,0.21875 -0.005,-8.70954 0.0281,-17.41684 -0.0313,-26.125 -0.22132,-3.20997 -3.34664,-5.15899 -6.34375,-5 z m -84.25,0.0625 c -0.99842,-0.009 -1.907,0.26055 -2.6875,0.75 -1.68702,1.05793 -2.7558,3.07693 -2.75,5.125 0.27522,0.35074 0.54056,0.70913 0.8125,1.0625 -0.25902,0.16977 -0.39946,0.27539 -0.59375,0.40625 -0.0419,0.0218 -0.11069,0.069 -0.15625,0.0937 0.002,1.28111 -3e-5,2.56259 0,3.84375 0.22106,0.22464 0.45809,0.43964 0.6875,0.65625 -0.22307,-0.18369 -0.46595,-0.34574 -0.6875,-0.53125 -2e-5,1.48948 0.001,2.97923 0,4.46875 -0.006,6.72887 -0.0143,13.45993 0.0313,20.1875 0.0798,1.15735 0.52733,2.14808 1.21875,2.9375 0.19146,0.13696 0.39688,0.27589 0.5,0.34375 0.76158,0.5012 1.55868,0.97274 2.34375,1.4375 0.92172,0.2775 1.91923,0.36158 2.875,0.21875 1.3652,-9.2e-4 2.72854,5.8e-4 4.09375,0 0.20819,-0.13348 0.41498,-0.27625 0.625,-0.40625 0.13804,0.13318 0.26775,0.27354 0.40625,0.40625 2.68873,-0.001 5.37375,0 8.0625,0 0.92752,0 1.85373,-9e-5 2.78125,0 0.32846,-0.14016 0.38613,-0.34332 0.28125,-0.8125 0.15226,0.23747 0.31634,0.48137 0.46875,0.71875 0.0157,0.0245 0.0178,0.065 0.0313,0.0937 5.80481,7e-4 11.60141,-0.002 17.40625,0 -0.089,-0.32934 -0.16599,-0.66944 -0.25,-1 -0.8021,6e-5 -1.60415,0 -2.40625,0 0.005,0.0222 0.0264,0.0403 0.0313,0.0625 -0.0211,-0.0205 -0.0411,-0.0416 -0.0625,-0.0625 -11.13568,6e-5 -22.27111,-0.01 -33.40625,-0.0313 -2.952,-0.19062 -4.44553,-3.27883 -4.03125,-5.9375 0.0153,-9.66693 -0.0225,-19.33402 0.0313,-29 0.17805,-2.24493 2.21782,-4.08219 4.46875,-4.03125 0.23965,1.3e-4 0.4791,-1.2e-4 0.71875,0 -0.31072,-0.36939 -0.61303,-0.7125 -0.84375,-1 z m 1.15625,0 c 0.16907,0.33622 0.35002,0.66985 0.53125,1 6.93952,0.003 13.87286,10e-4 20.8125,0 -0.24306,-0.32703 -0.47921,-0.67028 -0.71875,-1 l -20.625,0 z m 21.28125,0 c 0.37254,0.33942 0.7588,0.65381 1.125,1 3.1989,-7e-4 6.39484,9e-4 9.59375,0 -0.28676,-0.33636 -0.58587,-0.66563 -0.875,-1 l -3.25,0 c 0.10349,0.11449 0.20934,0.22896 0.3125,0.34375 -0.12564,-0.11306 -0.25042,-0.22916 -0.375,-0.34375 l -6.53125,0 z m 56.875,4.4375 c -0.2153,0.0102 -0.44264,0.0314 -0.65625,0.0625 l -21.3125,0 c 0.0301,0.0325 0.0639,0.0611 0.0937,0.0937 0.59016,0.64477 0.89611,1.04573 1.4375,1.71875 0.0501,0.0636 0.10633,0.12381 0.15625,0.1875 l 21.09375,0 c 3.45413,-0.0954 4.32286,3.53612 4,6.28125 -0.0299,3.60669 -0.002,7.23549 0,10.84375 0.0417,0.0308 0.0833,0.063 0.125,0.0937 -0.04,0.0219 -0.085,0.0405 -0.125,0.0625 2.1e-4,0.79255 0.005,1.58269 0,2.375 0.29478,0.17734 0.61675,0.31816 0.9375,0.5 0.35344,0.20038 0.70723,0.39663 1.0625,0.59375 -0.002,-2.02359 -0.003,-4.03877 0,-6.0625 -0.0522,-0.0125 -0.10388,-0.0195 -0.15625,-0.0313 -0.33205,-0.38693 -0.64438,-0.79403 -0.96875,-1.1875 0.18116,0.0888 0.35142,0.18978 0.53125,0.28125 0.0225,0.035 0.0392,0.0571 0.0625,0.0937 0.16686,0.22868 0.35576,0.43505 0.53125,0.65625 0.003,-1.91481 0.004,-3.83537 0,-5.75 -0.17493,-0.22893 -0.35772,-0.45751 -0.53125,-0.6875 0.18697,0.15693 0.36328,0.29701 0.53125,0.4375 -0.004,-1.68426 -0.0125,-3.37861 -0.0313,-5.0625 -0.16929,-0.2921 -0.35473,-0.6019 -0.53125,-0.90625 0.15447,0.11841 0.31459,0.22498 0.46875,0.34375 -0.49429,-2.98718 -3.35781,-4.89062 -6.28125,-4.9375 0.12626,0.18627 0.25022,0.37518 0.375,0.5625 -0.20856,-0.18752 -0.41721,-0.37413 -0.625,-0.5625 -0.0616,0.001 -0.12599,-0.003 -0.1875,0 z M 205,386.375 c -3.78581,-0.12138 -6.54386,3.66722 -6,7.25 0.006,1.99834 0.003,4.00143 0,6 0.67356,0.55516 1.32777,1.1305 2,1.6875 -0.0115,-3.2536 -0.003,-6.50174 0.0937,-9.75 0.33099,-1.82698 2.05313,-3.22854 3.90625,-3.1875 l 4.28125,0 c -0.0905,-0.17271 -0.15917,-0.29263 -0.21875,-0.40625 0.11169,0.13689 0.23148,0.26984 0.34375,0.40625 l 29.15625,0 c -0.0556,-0.0806 -0.12628,-0.17344 -0.15625,-0.25 -0.1123,-0.28702 -0.22963,-0.55745 -0.34375,-0.84375 -0.12318,-0.30363 -0.24828,-0.60408 -0.375,-0.90625 l -32.6875,0 z m 32.71875,0 c 0.74654,0.66134 1.48638,1.32331 2.21875,2 l 5.6875,0 c -0.34503,-0.5784 -0.68155,-1.15252 -1,-1.75 -0.0433,-0.0838 -0.0816,-0.16626 -0.125,-0.25 l -6.78125,0 z m 7,0 c 0.81868,0.66542 1.62967,1.32142 2.4375,2 l 6.03125,0 c -0.40159,-0.65056 -0.74034,-1.32458 -1.09375,-2 l -7.375,0 z m 7.875,0 c 0.43867,0.51786 0.87483,1.0438 1.3125,1.5625 0.12497,0.14827 0.25001,0.28924 0.375,0.4375 l 3.71875,0 c -0.0639,-0.10193 -0.20831,-0.21349 -0.28125,-0.3125 -0.46055,-0.62522 -0.71302,-0.89511 -1.21875,-1.53125 -0.0652,-0.082 -0.0705,-0.0875 -0.125,-0.15625 l -3.78125,0 z m -26.625,1.59375 c 0.039,0.0842 0.0877,0.16497 0.125,0.25 -0.0828,-0.062 -0.1677,-0.12485 -0.25,-0.1875 0.0408,-0.0213 0.0841,-0.0413 0.125,-0.0625 z M 216.125,391.25 c -0.73407,0.025 -1.72808,0.14258 -1.96875,0.0313 -0.0552,0.86242 -2.01935,2.96859 -0.65625,2.90625 1.53964,0.33492 2.08152,-1.55118 3.09375,-2.375 0.74515,-0.53356 0.26532,-0.58754 -0.46875,-0.5625 z m 56.78125,3.46875 c -0.73072,0.0237 -1.71814,0.14215 -1.96875,0.0313 -0.0552,0.86241 -2.01934,2.96858 -0.65625,2.90625 1.52123,0.31991 2.04934,-1.53837 3.0625,-2.34375 0.15673,-0.11184 0.25269,-0.20538 0.3125,-0.28125 -0.12674,-0.1004 -0.24716,-0.21399 -0.375,-0.3125 -0.11808,-0.007 -0.22886,-0.005 -0.375,0 z m -54.3125,0.15625 c -0.16934,0.008 -0.38847,0.0496 -0.625,0.125 l -8.5625,0 0,9.15625 c 0.14895,0.1838 0.28819,0.37854 0.4375,0.5625 -0.15317,-0.16153 -0.28763,-0.33533 -0.4375,-0.5 l 0,5 10.28125,0 c 9.7e-4,-1.29021 0.42347,-3.00924 -1.46875,-2.40625 l -6.09375,0 0,-3.875 0.59375,0 c -0.0423,-0.0725 -0.0824,-0.14647 -0.125,-0.21875 -0.35432,-0.65631 -0.74146,-1.30487 -1.09375,-1.96875 0.24609,0.28324 0.50828,0.55686 0.75,0.84375 0.16817,0.45509 0.37251,0.89764 0.5625,1.34375 l 3.5,0 c -0.18172,-0.22546 -0.34893,-0.46253 -0.53125,-0.6875 -0.0677,-0.17952 -0.14805,-0.353 -0.21875,-0.53125 -0.13581,-0.39036 -0.298,-0.76722 -0.4375,-1.15625 l -3,0 c 0.328,-0.93286 -0.71528,-3.23567 0.625,-3.15625 l 6.6875,0 c 8.5e-4,-1.12893 0.34161,-2.58853 -0.84375,-2.53125 z m 8.65625,3.8125 c -1.88186,0.13824 -3.02069,2.72473 -3.0625,0.21875 -1.45815,-0.16892 -2.72433,-0.16983 -2.1875,1.65625 l 0,8.65625 c 1.13319,-0.13854 3.16652,0.62572 2.5625,-1.25 0.22854,-2.25612 -0.65477,-4.96755 0.9375,-6.8125 3.29595,-1.66987 2.84394,2.84328 2.8125,4.90625 0.32709,0.93577 -0.71386,3.23226 0.625,3.15625 1.62784,0.3457 2.37529,-0.18632 1.96875,-1.875 -0.13914,-2.03437 0.23837,-4.20635 -0.21875,-6.1875 -0.29276,-0.60815 -0.58059,-1.2216 -0.90625,-1.8125 -0.0174,-0.0137 -0.0448,-0.018 -0.0625,-0.0313 -0.59262,-0.44368 -1.36167,-0.63581 -2.09375,-0.625 -0.13216,-0.0149 -0.24954,-0.009 -0.375,0 z m 10.75,0 c -1.2676,-0.0872 -2.34034,0.30174 -3.15625,1 0.0782,0.24329 0.166,0.47762 0.25,0.71875 -0.16472,-0.14751 -0.33561,-0.28962 -0.5,-0.4375 -2.31238,2.32401 -2.3498,7.13976 0.84375,8.84375 3.37216,2.04663 7.97293,-0.88365 7.625,-4.78125 0.0741,-1.64318 -0.68553,-3.23348 -1.90625,-4.25 -0.16682,0.10832 -0.42333,0.26435 -0.65625,0.40625 -0.59821,-0.47445 -1.18307,-0.95937 -1.75,-1.46875 -0.24601,-0.029 -0.49289,-0.0448 -0.75,-0.0313 z m 12.34375,0 c -1.88889,0.13082 -3.057,2.73059 -3.09375,0.21875 -1.45815,-0.16892 -2.72433,-0.16983 -2.1875,1.65625 l 0,2.8125 c 0.62607,0.39287 1.22682,0.81167 1.84375,1.21875 -0.23185,0.13674 -0.45627,0.26836 -0.6875,0.40625 -0.39888,-0.42254 -0.77772,-0.84052 -1.15625,-1.28125 l 0,3.6875 c 0.51762,0.52217 1.05061,1.03508 1.5625,1.5625 -0.32315,-0.0448 -0.64629,-0.0751 -0.96875,-0.125 -0.009,-0.0267 -0.0312,-0.0937 -0.0313,-0.0937 -0.14605,-0.39984 -0.34966,-0.76736 -0.5625,-1.125 l 0,1.59375 c 1.13971,-0.14244 3.19173,0.63011 2.59375,-1.25 0.14491,-2.11031 -0.39081,-4.39678 0.46875,-6.375 2.08574,-1.85647 3.01023,-0.29983 3.28125,1.59375 0.31779,0.24307 0.62831,0.49647 0.9375,0.75 0.7346,0.60238 1.10677,0.96692 1.625,1.46875 0.0598,-1.9092 0.19862,-3.83484 -0.625,-5.5625 -0.59105,-0.81856 -1.6489,-1.17066 -2.625,-1.15625 -0.13242,-0.0156 -0.24907,-0.009 -0.375,0 z m 9.78125,0 c -3.25612,0.25074 -4.75114,4.21312 -3.875,7.125 0.23968,1.9532 1.78554,3.14119 3.53125,3.5 0.10146,-0.17848 0.24756,-0.46033 0.375,-0.71875 0.25648,0.2907 0.54404,0.56391 0.8125,0.84375 1.78868,-0.0315 3.53033,-0.93468 4.09375,-2.84375 0.72976,-1.48476 -3.34553,-1.94704 -2.96875,0.1875 -3.7383,2.32135 -4.886,-5.80083 -1.25,-5.96875 1.6037,0.87374 2.1839,2.1124 4.3125,1.15625 -0.38896,-2.05746 -2.28066,-3.43178 -4.34375,-3.28125 -0.23237,-0.0176 -0.47043,-0.0167 -0.6875,0 z m 10.75,0 c -4.24547,-0.0515 -5.53476,5.50065 -3.75,8.625 0.43576,1.04982 1.34787,1.66701 2.40625,1.9375 -0.59051,-0.65991 -1.06022,-1.42585 -1.5625,-2.15625 0.77095,0.77745 1.56224,1.5458 2.34375,2.3125 2.38505,0.22464 5.07198,-1.0647 4.6875,-3.0625 -0.30809,-0.19805 -0.58276,-0.30769 -0.84375,-0.34375 0.0419,0.0832 0.0838,0.1664 0.125,0.25 -0.0603,-0.0843 -0.12754,-0.16549 -0.1875,-0.25 -1.70222,-0.16764 -2.55498,2.534 -4.4375,0.75 -1.93411,-2.3694 0.93681,-1.93025 2.5,-1.90625 0.2972,-0.0713 0.68714,-0.0633 1.09375,-0.0313 -0.22372,-0.32764 -0.43711,-0.66935 -0.65625,-1 0.0925,-0.0265 0.19886,-0.071 0.28125,-0.0937 0.23516,0.36659 0.44194,0.74558 0.65625,1.125 1.27609,0.11566 2.59587,0.2671 1.9375,-1.46875 -0.0754,-2.50034 -1.93004,-4.85829 -4.59375,-4.6875 z m -9.09375,0.4375 c 0.0476,0.0311 0.11102,0.064 0.15625,0.0937 0.92912,0.61204 1.75805,1.24721 2.59375,1.9375 -0.4117,0.20137 -0.80121,0.44149 -1.1875,0.6875 -0.29873,-0.48343 -0.61283,-0.95075 -0.90625,-1.4375 -0.0671,-0.12705 -0.15,-0.24795 -0.21875,-0.375 -0.0963,-0.18589 -0.19502,-0.37102 -0.28125,-0.5625 -0.0376,-0.0699 -0.0566,-0.14855 -0.0937,-0.21875 -0.0181,-0.0429 -0.0446,-0.0819 -0.0625,-0.125 z M 199,399.6875 c -0.007,4.43433 -0.0181,8.87958 0.0313,13.3125 0.25939,3.66046 4.01975,5.87316 7.4375,5.375 6.7106,-0.006 13.4142,-0.002 20.125,0 -0.34375,-0.55407 -0.66563,-1.11291 -1,-1.6875 -0.0613,-0.10274 -0.12913,-0.20828 -0.1875,-0.3125 l -3.40625,0 c 0.0638,0.155 0.12211,0.31436 0.1875,0.46875 -0.0908,0.0521 -0.19299,0.10106 -0.28125,0.15625 -0.25101,0.13684 -0.49208,0.26274 -0.75,0.375 0.0402,0.0656 0.0352,0.0807 0.0625,0.125 -0.0318,0.0296 -0.0631,0.0628 -0.0937,0.0937 -0.16249,0.16423 0.1277,0.4331 0.1875,0.65625 0.009,0.0319 0.0228,0.0619 0.0313,0.0937 -0.35739,-0.55369 -0.75227,-1.09223 -1.09375,-1.65625 -0.0483,-0.10573 -0.11022,-0.20587 -0.15625,-0.3125 l -2.9375,0 c -0.0209,0.011 -0.0415,0.0205 -0.0625,0.0313 -0.007,-0.0122 -0.0243,-0.0191 -0.0313,-0.0313 l -3.75,0 c 0.19101,0.59787 0.36658,1.21624 0.5625,1.8125 -0.27202,-0.34289 -0.54772,-0.68273 -0.8125,-1.03125 -0.0496,-0.26183 -0.10712,-0.51935 -0.15625,-0.78125 l -5.25,0 c 0.17645,0.22988 0.35295,0.45082 0.53125,0.6875 0.12557,0.40216 0.27351,0.76656 0.46875,1.28125 -0.66696,-0.64708 -1.31031,-1.31318 -1.96875,-1.96875 l -1.6875,0 c -3.45412,0.0954 -4.32286,-3.53612 -4,-6.28125 0.0147,-1.77649 0.006,-3.56622 0,-5.34375 -0.0956,-0.10716 -0.20867,-0.22747 -0.3125,-0.34375 0.0522,0.0308 0.10372,0.0635 0.15625,0.0937 0.0383,0.022 0.10832,0.067 0.15625,0.0937 -0.004,-1.02911 0.004,-2.06465 0,-3.09375 -0.30274,-0.23064 -0.6036,-0.45662 -0.90625,-0.6875 -0.0943,-0.0741 -0.115,-0.0983 -0.1875,-0.15625 -0.16386,-0.16729 -0.3761,-0.30649 -0.5,-0.46875 -0.0991,-0.12978 -0.27928,-0.34314 -0.40625,-0.5 z m 19.09375,0.75 c -0.1689,0.009 -0.3896,0.0494 -0.625,0.125 l -1.9375,0 c 0.49008,0.78459 0.9927,1.5817 1.46875,2.375 l 1.9375,0 c 0.007,-1.12595 0.33852,-2.56334 -0.84375,-2.5 z M 270.75,400.75 c 0.0899,-0.0101 0.1932,-0.0164 0.28125,0 3.07084,0.84381 1.80143,3.3025 -0.78125,2.4375 -2.27632,0.63045 -0.84924,-2.28542 0.5,-2.4375 z M 238,400.90625 c 4.05388,0.15547 2.53499,8.30246 -1.34375,5.84375 -0.76399,-0.64211 -1.14521,-1.80726 -1.09375,-2.9375 -0.005,-0.008 0.005,-0.0234 0,-0.0313 -0.0191,-0.0322 -0.0434,-0.0616 -0.0625,-0.0937 0.022,0.0197 0.0405,0.0428 0.0625,0.0625 0.0864,-1.45318 0.88117,-2.81161 2.4375,-2.84375 z m 13.40625,2.46875 c 0.1046,0.8677 0.0978,1.78187 0,2.46875 0.13222,0.48022 -0.008,1.20851 -0.0625,1.875 0.0538,0.0276 0.10262,0.0658 0.15625,0.0937 0.29122,0.21705 0.58116,0.4428 0.875,0.65625 0.44896,0.31369 0.87221,0.67039 1.25,0.46875 0.0532,0.0296 0.10304,0.0642 0.15625,0.0937 0.33089,-0.23991 0.4566,-0.66011 0.21875,-1.46875 -0.0281,-0.41087 -0.0349,-0.8315 -0.0313,-1.25 -0.23606,-0.10226 -0.50345,-0.19033 -0.6875,-0.3125 0.23223,-0.11463 0.47604,-0.22547 0.6875,-0.375 2.9e-4,-0.0103 -2.9e-4,-0.021 0,-0.0313 6e-4,-0.0208 -6.2e-4,-0.0417 0,-0.0625 -0.0517,-0.0356 -0.12212,-0.0893 -0.21875,-0.125 0.0111,-0.009 0.02,-0.0222 0.0313,-0.0313 -0.82706,-0.6258 -1.61363,-1.29748 -2.375,-2 z m 9.1875,4.9375 c 0.0408,-0.0243 -0.0344,0.0498 -0.21875,0.28125 -0.0301,-0.0223 -0.063,-0.041 -0.0937,-0.0625 0.13966,-0.102 0.28102,-0.19996 0.3125,-0.21875 z M 284,408.5625 c -0.0122,1.54277 -0.0477,3.08389 -0.0937,4.625 -0.3017,1.80231 -1.54264,2.64416 -3.03125,3 0.53343,0.33296 0.82501,0.54661 1.09375,0.71875 0.0944,0.0949 0.18649,0.18675 0.28125,0.28125 0.23565,0.21591 0.37322,0.32546 0.5625,0.5 2.30146,-1.26242 3.57496,-4.12299 3.1875,-6.78125 -0.002,-0.55281 6.7e-4,-1.10341 0,-1.65625 -0.66603,-0.23884 -1.32503,-0.47589 -2,-0.6875 z m 5.46875,4.40625 c -0.004,1.625 0.009,3.25012 0,4.875 -0.10358,1.6041 -1.06259,2.7652 -2.34375,3.4375 0.30257,0.22774 0.60718,0.45553 0.90625,0.6875 1.85318,-1.28446 2.81171,-3.76753 2.46875,-6.0625 -0.002,-0.80313 6.4e-4,-1.6031 0,-2.40625 -0.34838,-0.1731 -0.68379,-0.35622 -1.03125,-0.53125 z m -9.125,3.3125 c -0.9467,0.15329 -1.94341,0.15525 -2.84375,0.0937 l -4.0625,0 c -0.0741,0.0424 -0.14419,0.0835 -0.21875,0.125 0.0782,0.11606 0.13339,0.23327 0.21875,0.34375 -0.29013,-0.15622 -0.58528,-0.31173 -0.875,-0.46875 l -9.3125,0 c -0.0254,0.0321 -0.0362,0.0602 -0.0625,0.0937 -0.0335,-0.0281 -0.0926,-0.0663 -0.125,-0.0937 l -15.15625,0 c 0.0491,0.33294 0.13332,0.64987 0.1875,0.96875 0.0195,0.1148 0.0423,0.22908 0.0625,0.34375 -0.22849,-0.43725 -0.43711,-0.87121 -0.65625,-1.3125 l -4.9375,0 c -0.003,0.062 0.003,0.12543 0,0.1875 -0.0257,-0.0607 -0.037,-0.12676 -0.0625,-0.1875 l -6.625,0 c 0.008,0.0225 0.0273,0.0419 0.0313,0.0625 0.12411,0.64872 0.29824,1.30466 0.5,1.9375 14.73463,0.006 29.48538,0.012 44.21875,-0.0313 0.57706,-0.0409 1.09307,-0.17545 1.59375,-0.375 -0.63797,-0.54529 -1.26163,-1.11523 -1.875,-1.6875 z m -54.03125,0.0937 c 0.0485,0.24798 0.22069,0.5622 0.4375,1.0625 0.16192,0.31758 0.35394,0.62876 0.53125,0.9375 2.95942,10e-4 5.91557,-0.001 8.875,0 -0.43254,-0.65363 -0.84232,-1.31285 -1.21875,-2 l -8.625,0 z m 36.59375,0.21875 c 0.0209,1.7e-4 0.0642,0.0248 0.0937,0.0313 -0.0612,0.0334 -0.12525,0.0625 -0.1875,0.0937 -0.052,0.0261 0.0356,-0.12547 0.0937,-0.125 z m 23.625,4.96875 c -0.94251,0.35857 -2.003,0.46785 -3,0.3125 -1.56251,-8.6e-4 -3.12498,5e-4 -4.6875,0 0.55414,0.31969 1.10599,0.64247 1.65625,0.96875 1.07257,-0.002 2.14619,0.002 3.21875,0 0.61438,-0.001 1.22937,10e-4 1.84375,0 0.70994,-0.0489 1.36026,-0.26284 1.9375,-0.5625 -0.32033,-0.24386 -0.65692,-0.4638 -0.96875,-0.71875 z m -50.84375,0.3125 c 0.26374,0.33768 0.54387,0.66671 0.8125,1 1.46945,5.1e-4 2.9368,-4.4e-4 4.40625,0 -0.0609,-0.0534 -0.12654,-0.10304 -0.1875,-0.15625 -0.12135,-0.28226 -0.25245,-0.56178 -0.375,-0.84375 -1.55213,2.9e-4 -3.10413,-1.3e-4 -4.65625,0 z m 5.6875,0 c 0.16283,0.22719 0.31522,0.45322 0.46875,0.6875 0.0633,0.1068 0.12299,0.20639 0.1875,0.3125 10.54961,0.003 21.10706,-0.0179 31.65625,-0.0313 -0.28897,-0.34129 -0.59332,-0.65189 -0.90625,-0.96875 -4.72927,-3.9e-4 -9.4582,-0.001 -14.1875,0 -5.73975,10e-4 -11.47901,-0.001 -17.21875,0 z m 31.875,0 c 0.54135,0.31995 1.09124,0.63657 1.625,0.96875 1.43705,-0.002 2.87546,0.002 4.3125,0 -0.37222,-0.33372 -0.73966,-0.64973 -1.125,-0.96875 -1.60419,-4.6e-4 -3.2083,1.6e-4 -4.8125,0 z"
         transform="scale(1.0257188,0.97492607)"
         id="path3777"
         style="fill:url(#linearGradient3829);fill-opacity:1"
         inkscape:connector-curvature="0" />
    </g>
  </g>
</svg>
