<?xml version="1.0" encoding="UTF-8" standalone="no"?>
<!-- Created with Inkscape (http://www.inkscape.org/) -->

<svg
   xmlns:dc="http://purl.org/dc/elements/1.1/"
   xmlns:cc="http://creativecommons.org/ns#"
   xmlns:rdf="http://www.w3.org/1999/02/22-rdf-syntax-ns#"
   xmlns:svg="http://www.w3.org/2000/svg"
   xmlns="http://www.w3.org/2000/svg"
   xmlns:xlink="http://www.w3.org/1999/xlink"
   xmlns:sodipodi="http://sodipodi.sourceforge.net/DTD/sodipodi-0.dtd"
   xmlns:inkscape="http://www.inkscape.org/namespaces/inkscape"
   width="210mm"
   height="297mm"
   id="svg3881"
   version="1.1"
   inkscape:version="0.48.5 r10040"
   sodipodi:docname="NouvelOutil.svg"
   inkscape:export-filename="/home/sverdan/Travail/01 Cours/09_fiche_MITIC/5e/images/generales/NouvelOutil.png"
   inkscape:export-xdpi="150"
   inkscape:export-ydpi="150">
  <defs
     id="defs3883">
    <linearGradient
       inkscape:collect="always"
       xlink:href="#linearGradient3818"
       id="linearGradient3826"
       gradientUnits="userSpaceOnUse"
       x1="45"
       y1="97.362183"
       x2="285"
       y2="182.36218"
       gradientTransform="matrix(0.98732628,-0.15870355,0.15870355,0.98732628,-18.027232,19.008471)" />
    <linearGradient
       inkscape:collect="always"
       id="linearGradient3818">
      <stop
         style="stop-color:#d40000;stop-opacity:1;"
         offset="0"
         id="stop3820" />
      <stop
         style="stop-color:#d40000;stop-opacity:0;"
         offset="1"
         id="stop3822" />
    </linearGradient>
    <linearGradient
       y2="182.36218"
       x2="285"
       y1="97.362183"
       x1="45"
       gradientTransform="matrix(0.98732628,-0.15870355,0.15870355,0.98732628,46.274321,154.70985)"
       gradientUnits="userSpaceOnUse"
       id="linearGradient3879"
       xlink:href="#linearGradient3818"
       inkscape:collect="always" />
  </defs>
  <sodipodi:namedview
     id="base"
     pagecolor="#ffffff"
     bordercolor="#666666"
     borderopacity="1.0"
     inkscape:pageopacity="0.0"
     inkscape:pageshadow="2"
     inkscape:zoom="0.35"
     inkscape:cx="375"
     inkscape:cy="520"
     inkscape:document-units="px"
     inkscape:current-layer="layer1"
     showgrid="false"
     inkscape:window-width="558"
     inkscape:window-height="445"
     inkscape:window-x="720"
     inkscape:window-y="24"
     inkscape:window-maximized="0" />
  <metadata
     id="metadata3886">
    <rdf:RDF>
      <cc:Work
         rdf:about="">
        <dc:format>image/svg+xml</dc:format>
        <dc:type
           rdf:resource="http://purl.org/dc/dcmitype/StillImage" />
        <dc:title></dc:title>
      </cc:Work>
    </rdf:RDF>
  </metadata>
  <g
     inkscape:label="Calque 1"
     inkscape:groupmode="layer"
     id="layer1">
    <path
       style="font-size:20px;font-style:normal;font-variant:normal;font-weight:bold;font-stretch:normal;line-height:125%;letter-spacing:0px;word-spacing:0px;fill:url(#linearGradient3879);fill-opacity:1;stroke:none;font-family:Arial;-inkscape-font-specification:Arial Bold"
       d="m 101.9353,248.94557 c -0.65132,0.1047 -1.25187,0.33387 -1.79669,0.63697 -0.208819,0.23343 -0.414579,0.46016 -0.615409,0.70029 -0.47651,0.42064 -0.97609,0.83834 -1.44074,1.27607 -0.007,0.0126 -0.0185,0.0231 -0.0259,0.0359 -0.62369,1.06311 -0.88966,2.34158 -0.67869,3.65402 l 0.0347,0.21597 c 0.29903,-0.36228 0.60373,-0.72988 0.90024,-1.09424 -0.002,-2.1783 1.55568,-4.07984 3.781169,-4.43757 l 0.15427,-0.0248 c 0.14338,-0.15105 0.29103,-0.29831 0.43415,-0.4496 -0.11119,0.14597 -0.22914,0.28971 -0.34159,0.43472 l 2.00551,-0.32236 c 0.33456,-0.35122 0.66578,-0.69842 1.00273,-1.04741 -0.25763,0.34258 -0.52193,0.67543 -0.78676,1.01269 l 1.17245,-0.18846 c 0.31522,-0.388 0.64194,-0.77384 0.95204,-1.16587 l -2.19063,0.35213 c -0.13836,0.14474 -0.26527,0.29958 -0.40329,0.44464 0.11295,-0.14371 0.22941,-0.29042 0.34158,-0.43473 l -2.49917,0.40172 z m 3.79947,0.40211 6.04737,-0.97206 c 0.26861,-0.3549 0.64909,-0.81087 0.40549,-0.8248 0.0948,-0.10538 0.20519,-0.19581 0.29972,-0.30139 l -4.99834,0.80344 c -0.58822,0.43206 -1.16574,0.86308 -1.75424,1.29481 z m 6.96855,-2.13297 c -0.11791,0.35868 -0.24445,0.71411 -0.36581,1.07164 l 15.36526,-2.46982 c 0.002,-0.005 0.048,-0.19077 0.0578,-0.23086 0.072,-0.11184 0.12504,-0.23651 0.19724,-0.34822 -0.041,0.18673 -0.0884,0.37284 -0.13167,0.55924 l 23.20217,-3.72954 c 0.0467,-0.10311 0.0945,-0.20396 0.14049,-0.30744 -0.0127,0.099 -0.0347,0.19367 -0.0479,0.29257 l 16.35259,-2.62853 c 0.0202,-0.34051 0.0401,-0.6814 0.0573,-1.02204 l -21.47434,3.4518 c 0.0643,0.0721 0.13215,0.14543 0.19395,0.22203 -0.16822,0.23548 -0.3536,0.45133 -0.52285,0.68542 0.009,-0.29136 0.0571,-0.5775 0.0821,-0.86778 l -20.73386,3.33278 c -0.027,0.0977 -0.0518,0.1998 -0.0788,0.29752 -0.0481,0.0305 -0.0968,0.0551 -0.14435,0.0865 -0.045,-0.11481 -0.10571,-0.2237 -0.14711,-0.32452 -0.0784,0.0733 -0.13264,0.091 -0.17521,0.0915 0.002,-0.021 -0.0127,-0.0401 -0.01,-0.0617 l -7.52836,1.21011 c -0.30624,0.17646 -0.61942,0.3721 -0.92781,0.52896 -0.0575,0.032 -0.11773,0.0594 -0.17521,0.0915 0.0424,-0.15271 0.073,-0.30908 0.11569,-0.46171 l -3.30137,0.53066 z m 55.01259,-8.84276 c -0.0554,0.3495 -0.12107,0.69296 -0.18069,1.04188 l 11.44681,-1.83997 c 0.0475,-0.30742 0.12009,-0.70264 0.18069,-1.04188 l -5.95481,0.95718 c -0.0318,0.0183 -0.0591,0.0286 -0.0876,0.0458 3.9e-4,-0.0102 -0.005,-0.0209 -0.005,-0.0309 l -5.39944,0.86791 z m 11.53937,-1.85485 c -0.0504,0.2735 -0.10141,0.54335 -0.15369,0.81599 -0.0148,0.0773 -0.0429,0.1535 -0.0578,0.23084 l 2.28319,-0.367 c 0.0273,-0.33907 0.0261,-0.683 0.0573,-1.02204 l -2.12893,0.3422 z m 2.25234,-0.36204 c -0.0473,0.34154 -0.1017,0.69549 -0.14983,1.03692 l 29.49637,-4.74127 c 0.0279,-0.34419 0.0589,-0.68301 0.0881,-1.027 l -19.80824,3.18399 c -0.0139,0.0968 -0.0338,0.19577 -0.0479,0.29255 0.003,-0.0956 0.0143,-0.19201 0.0171,-0.2876 l -9.59558,1.5424 z m 30.02089,-4.82558 c -0.068,0.34982 -0.14105,0.69752 -0.21154,1.04684 l 6.6336,-1.06629 c 0.0114,-0.0751 0.0154,-0.15086 0.027,-0.2259 0.45119,-0.26265 0.92581,-0.50023 1.36086,-0.78847 0.061,-0.0404 0.0644,-0.13797 0.0937,-0.20496 0.006,-0.0129 0.0203,-0.0229 0.0259,-0.0359 l -7.92947,1.27459 z m 8.45398,-1.3589 c -0.14648,0.36475 -0.27892,0.71766 -0.42752,1.08155 l 3.27052,-0.5257 c 0.007,-0.005 0.0235,2.7e-4 0.0309,-0.005 l 10.73718,-1.7259 c 0.005,-0.0238 0.0115,-0.0757 0.016,-0.0975 0.0767,-0.31875 0.15061,-0.6353 0.22642,-0.95428 l -3.60991,0.58026 c -0.0576,0.16888 -0.1139,0.3339 -0.17244,0.50248 -0.071,-0.15113 -0.15425,-0.28875 -0.22866,-0.43801 l -3.1471,0.50587 c -0.0267,0.0265 -0.0561,0.0499 -0.0826,0.0766 0.005,-0.0226 0.0152,-0.0441 0.021,-0.0667 l -6.6336,1.06629 z m 14.68648,-2.36072 c -0.0583,0.1315 -0.1211,0.25996 -0.18732,0.40993 -0.10166,0.23026 -0.20092,0.45098 -0.30191,0.68155 l 6.13994,-0.98694 c 2.46994,-0.39702 4.76011,1.25886 5.15713,3.7288 l 0.9423,5.86225 c 0.2985,-0.0182 0.61001,-0.0491 0.90964,-0.0513 -0.28396,0.20609 -0.53664,0.4496 -0.81045,0.66834 l 0.59513,3.70248 c 0.0198,-0.0693 0.043,-0.15338 0.0578,-0.23085 0.22626,-0.16307 0.51024,-0.36284 0.81541,-0.63749 l -1.42331,-8.85504 c -0.0179,0.0144 -0.0388,0.0264 -0.0567,0.0408 -0.007,-0.0117 -0.0294,-0.0141 -0.0359,-0.0259 0.0297,-0.0242 0.0529,-0.0524 0.0826,-0.0766 l -0.0893,-0.55537 c -0.4822,-2.99985 -3.30332,-5.03963 -6.30317,-4.55743 l -0.49366,0.0793 c 0.0335,0.0188 0.0668,0.0244 0.10243,0.0468 0.0107,0.01 0.0248,0.0162 0.0359,0.0259 -0.37781,0.21728 -0.73373,0.47865 -1.08318,0.74383 0.19952,-0.29539 0.37422,-0.55484 0.13167,-0.55923 0.0263,-0.0438 0.0456,-0.0935 0.0727,-0.13829 l -0.30854,0.0496 c -0.046,0.0299 -0.0986,0.0564 -0.14435,0.0865 -0.0712,0.002 -0.15608,-6.3e-4 -0.22095,0.004 -0.0138,0.0113 -0.0167,-0.006 -0.0309,0.005 -0.0244,0.002 -0.0381,0.008 -0.0617,0.01 0.0116,-0.013 0.0144,-0.023 0.0259,-0.0359 l -3.51735,0.56539 z m -133.28518,21.64592 c -0.0375,0.0847 -0.0817,0.15734 -0.11956,0.24078 -0.25553,0.3237 -0.50535,0.65313 -0.76085,0.97688 -0.047,0.0167 -0.0975,0.0506 -0.14931,0.0557 0.34145,-0.4341 0.67486,-0.85055 1.02973,-1.27331 z m -1.1829,1.10802 c -0.0285,0.0444 -0.0435,0.0944 -0.0727,0.1383 -0.0289,-0.007 -0.0672,-0.006 -0.0975,-0.016 0.0508,-0.0464 0.11897,-0.0763 0.17026,-0.12227 z m 7.3852,2.23122 c -0.39762,0.0639 -0.78874,0.17632 -1.15261,0.31188 -0.005,0.006 -0.0255,-9.7e-4 -0.0308,0.005 -0.88622,1.00277 -1.79449,2.00311 -2.71949,2.96922 -0.0365,0.0372 -0.072,0.0753 -0.10854,0.11235 -0.24026,0.21559 -0.47906,0.4363 -0.71789,0.65347 -0.0986,0.29558 -0.18469,0.58127 -0.23635,0.89257 0.0188,-0.0149 0.0379,-0.0263 0.0567,-0.0408 0.006,-0.006 0.0249,10e-4 0.0309,-0.005 0.0782,-0.0587 0.14628,-0.11741 0.227,-0.1631 0.1684,-0.1169 0.35182,-0.21279 0.51569,-0.3361 0.13093,-0.0985 0.48412,-0.45855 0.87326,-0.86834 0.76177,-0.5814 1.52822,-1.16457 2.28095,-1.75929 0.14466,-0.11927 0.58731,-0.51151 0.91899,-0.78075 -0.24684,0.44909 -0.48638,0.90245 -0.73219,1.35209 0.34572,-0.16617 0.71052,-0.30412 1.11183,-0.36862 l 3.70248,-0.59514 c 0.0376,-0.0844 0.051,-0.10351 0.0937,-0.20496 0.0554,0.0262 0.11888,0.0383 0.15923,0.006 0.16943,-0.13547 0.33538,-0.28738 0.50082,-0.42866 -0.0353,0.17418 -0.0692,0.34949 -0.10577,0.52342 l 19.53055,-3.13936 c 0.22185,-0.42738 0.49053,-0.8702 0.74211,-1.29038 -0.0212,0.33816 -0.0352,0.68396 -0.0573,1.02205 0.0141,0.0541 -0.0124,0.10514 -0.006,0.15923 l 2.6843,-0.43148 c 0.0716,-0.31953 0.15608,-0.63445 0.22642,-0.95428 0.0844,-0.38394 0.17447,-0.76526 0.25837,-1.14932 l -14.80989,2.38056 c -0.005,0.20087 -0.0231,0.40526 -0.0292,0.60606 -0.0239,0.0495 -0.13565,0.29759 -0.14049,0.30744 l -0.30687,0.6507 c -0.0128,-0.31951 -0.0191,-0.59876 -0.0463,-0.87879 0.0278,-0.20516 0.0619,-0.41097 0.0909,-0.61598 l -4.90578,0.78856 c -0.0803,0.30693 -0.14546,0.61804 -0.23138,0.92342 0.0148,-0.12838 0.0202,-0.26226 0.0331,-0.38513 0.0207,-0.17276 0.0539,-0.34571 0.0749,-0.51846 l -4.3504,0.69929 c -0.002,0.005 -0.0289,-4.2e-4 -0.0308,0.005 l -3.39394,0.54554 z m 28.07709,-4.51313 c -0.0108,0.20361 -0.0175,0.40262 -0.0292,0.60606 -0.0104,0.0393 -0.0382,0.0541 -0.0209,0.0667 -0.0169,0.12271 -0.0643,0.32961 0.0138,0.28265 0.22725,-0.1365 0.43206,-0.30769 0.65509,-0.45346 0.10269,-0.0293 0.21446,-0.0546 0.30357,-0.0805 -0.1327,0.50955 -0.28711,1.01387 -0.41979,1.52343 l 5.12175,-0.82328 c 0.0216,-0.17778 0.0314,-0.26543 0.054,-0.45179 0.0688,-0.0487 0.12825,-0.10812 0.19614,-0.15813 -0.0559,0.20192 -0.13171,0.39832 -0.18841,0.6 l 1.66611,-0.26781 c 0.0947,-0.29605 0.16949,-0.60244 0.26719,-0.89753 0.0497,0.0775 0.11135,0.15008 0.1631,0.227 0.0366,0.0545 0.0637,0.13028 0.0964,0.20605 -0.16426,0.15812 -0.33228,0.30072 -0.49586,0.45952 l 3.8876,-0.62489 c 0.0234,-0.0438 0.053,-0.1014 0.0727,-0.1383 -0.0172,0.0449 -0.0243,0.0877 -0.0419,0.13334 l 1.48098,-0.23806 c 0.0206,-0.0564 0.0471,-0.11279 0.0678,-0.16915 0.0451,-0.12293 0.0854,-0.24625 0.13057,-0.36915 0.58977,-0.42587 1.19415,-0.86886 1.6727,-1.40831 0.0574,-0.0381 0.11152,-0.0884 0.17025,-0.12227 -0.0193,-0.0112 -0.0442,-0.0127 -0.0667,-0.021 0.0665,-0.081 0.15669,-0.13893 0.21708,-0.2248 -0.0639,0.53026 -0.13318,1.35385 -0.0936,1.97742 l 12.49585,-2.00859 c 0.0473,-0.17647 0.11974,-0.46914 0.16857,-0.72343 0.20292,0.0101 0.40316,0.0186 0.60606,0.0292 -0.0126,0.192 -0.0206,0.3833 -0.0341,0.57521 l 54.51893,-8.76341 c 0.12671,-0.25183 0.24527,-0.49648 0.43138,-0.86062 0.19184,-0.3802 0.36405,-0.776 0.54102,-1.16311 -0.14977,0.64066 -0.29958,1.29848 -0.44788,1.93941 l 1.57355,-0.25293 c 0.01,-0.0457 0.0319,-0.0877 0.0419,-0.13333 0.0482,-0.0148 0.10405,-0.0477 0.1493,-0.0557 -0.0238,0.0563 -0.0438,0.11291 -0.0677,0.16914 l 8.48483,-1.36387 c 0.16121,-0.40733 0.34456,-0.8104 0.50025,-1.21985 0.11268,-0.07 0.23461,-0.1406 0.34545,-0.21378 0.0105,0.002 0.0206,-0.007 0.0309,-0.005 0.36444,0.29698 0.64647,0.71397 0.88213,1.1559 l 2.59173,-0.41659 c -0.0386,-0.0627 -0.0785,-0.11293 -0.12227,-0.17026 -0.13132,-0.24858 -0.26809,-0.5263 -0.41159,-0.78842 0.50953,-0.38508 0.74093,-0.68688 0.98785,-1.13997 l -8.23801,1.32418 c -0.0164,0.0465 -0.0257,0.0874 -0.0419,0.13334 -0.0378,0.027 -0.0757,0.0545 -0.11349,0.0815 0.0148,-0.064 0.0171,-0.13115 0.0319,-0.19505 l -4.04187,0.6497 c -0.10584,0.26849 -0.20497,0.54229 -0.31293,0.80992 -0.15762,0.11346 -0.30362,0.24569 -0.44902,0.35704 0.0821,-0.36278 0.18184,-0.72592 0.26829,-1.08761 l -2.99283,0.48107 c -0.21257,0.46158 -0.4372,0.9189 -0.66554,1.37302 0.0296,-0.288 0.0988,-0.75933 0.17187,-1.29367 l -1.69696,0.27277 c -0.0595,0.33632 -0.12458,0.67494 -0.18565,1.01103 -0.20803,0.16501 -0.41058,0.33982 -0.61432,0.51021 0.009,-0.0414 0.007,-0.088 0.0111,-0.12838 0.026,-0.23077 -0.007,-0.46739 0.0143,-0.69863 0.0183,-0.19618 0.0706,-0.38971 0.0959,-0.58513 l -2.746,0.4414 c -0.0232,0.0506 -0.0456,0.0911 -0.0727,0.13828 -0.15137,0.26365 -0.2268,0.38881 -0.29585,0.52233 0.0438,-0.20583 0.0786,-0.41496 0.12174,-0.62094 l -41.12831,6.61099 c -0.0181,0.20466 -0.0166,0.34614 -0.0341,0.57521 -0.56721,0.44719 -0.90197,0.75689 -1.29749,1.37965 -0.16185,-0.01 -0.31484,-0.008 -0.47768,-0.0181 -0.15086,-0.065 -0.29633,-0.14457 -0.44574,-0.21321 0.15486,-0.13583 0.29568,-0.27227 0.43911,-0.41875 0.0592,-0.0384 0.11126,-0.0938 0.17026,-0.12227 -0.0139,-0.0137 -0.0187,-0.014 -0.0359,-0.0259 0.13671,-0.14776 0.27712,-0.31471 0.39833,-0.4755 0.009,-0.0125 0.0172,-0.023 0.0259,-0.0359 0.2307,-0.1893 0.46375,-0.37401 0.70191,-0.55594 l -34.71069,5.57942 z m 98.45495,-15.82572 c -0.0828,0.40566 -0.16084,0.80649 -0.24846,1.21103 -0.0513,0.23675 -0.13323,0.57682 -0.20549,0.88761 l 2.59174,-0.4166 c 1.13447,-0.18235 2.22674,0.10845 3.06283,0.74207 0.0366,-0.0291 0.0785,-0.0535 0.1135,-0.0815 -0.0178,0.052 -0.0203,0.11176 -0.0369,0.16419 0.10514,0.0845 0.20028,0.17378 0.29642,0.26887 0.16469,-0.0886 0.29828,-0.18639 0.43306,-0.25952 -0.11089,0.16444 -0.0505,0.0848 -0.27988,0.4248 0.49944,0.55419 0.86613,1.25334 0.99509,2.05564 l 0.0198,0.12341 c 0.028,-0.0338 0.0505,-0.0747 0.0776,-0.10738 0.0254,-0.0265 0.0573,-0.0499 0.0826,-0.0766 0.0444,0.0142 0.0932,0.0278 0.13333,0.0419 0.0439,0.0153 0.0889,0.0285 0.13334,0.0419 -0.0338,0.0181 -0.0952,0.0374 -0.11845,0.0507 -0.088,-0.0531 -0.20862,-0.0277 -0.30854,0.0496 l 0.2331,1.45013 c 0.16705,-0.20541 0.33163,-0.4158 0.50191,-0.61875 0.0422,-0.0503 0.11095,-0.14161 0.18622,-0.21984 0.12444,-0.0766 0.25207,-0.14139 0.3763,-0.21874 0.10632,-0.0662 0.24875,-0.11189 0.35041,-0.18293 0.0895,0.0277 0.17982,0.0471 0.26667,0.0837 0.0238,0.01 0.12176,0.0508 0.16914,0.0677 l -0.12894,-0.80221 c -0.52479,-3.26479 -3.61139,-5.49652 -6.87618,-4.97174 l -1.82039,0.29261 z m -6.09917,1.04369 c 0.13981,-0.0332 0.29242,-0.0251 0.43693,-0.0385 -0.24936,0.64842 -0.51937,1.25677 -0.77627,1.86559 0.0923,-0.60832 0.21395,-1.22363 0.33935,-1.82702 z m -119.95517,19.31338 c -0.14273,0.12281 -0.28513,0.24522 -0.41322,0.38293 -0.059,0.0635 0.0152,0.0274 0.11845,-0.0507 -0.40963,0.32679 -0.82582,0.63678 -1.23854,0.95872 0.37127,-0.3238 0.74145,-0.64247 1.11017,-0.96973 0.13878,-0.10972 0.28087,-0.21552 0.42313,-0.32123 z m 114.64225,-18.30107 c -0.0231,0.0806 -0.0655,0.15526 -0.0887,0.23581 -0.01,-0.002 -0.0206,0.007 -0.0309,0.005 0.0304,-0.078 0.0856,-0.15365 0.11956,-0.24077 z m -117.35959,19.11767 c -0.88909,0.55782 -1.58186,1.35139 -2.07323,2.26398 0.40945,-0.47649 0.81661,-0.95478 1.22586,-1.43145 0.28405,-0.27585 0.56443,-0.55555 0.84737,-0.83253 z m -6.975189,1.50101 c -0.0413,0.0521 -0.0931,0.0961 -0.13443,0.14822 l -0.78456,0.63253 0.22318,1.38842 c 0.27854,-0.35311 0.56526,-0.70011 0.8435,-1.05346 l -0.15374,-0.95648 c -0.009,-0.0538 0.0128,-0.10565 0.006,-0.15923 z m 33.052299,-4.86973 c 9.6e-4,0.10498 -0.005,0.24226 -0.0628,0.2 -0.0261,-0.0192 -0.0295,-0.0605 -0.0457,-0.0876 0.0335,-0.0383 0.0758,-0.0735 0.10855,-0.11235 z m 38.72667,-6.19325 c 0.003,-0.0237 0.0293,0.0357 0.0408,0.0567 0.022,0.0392 0.0332,0.077 0.0507,0.11845 -0.0298,0.0196 -0.0523,0.0577 -0.0826,0.0766 -0.07,0.0435 -0.0203,-0.17024 -0.009,-0.25179 z M 239.873,233.00874 c 0.0983,-0.01 0.19638,-0.0265 0.27768,-0.0446 -0.0406,0.0806 -0.0796,0.15988 -0.11955,0.24077 -0.11563,0.12737 -0.24504,0.24271 -0.29972,0.30139 0.0129,-0.15705 0.0897,-0.3144 0.14159,-0.49753 z m -0.06,0.61102 c -0.0196,0.0423 -0.0227,0.0907 -0.0419,0.13334 -0.006,-0.0139 -0.0336,-0.006 -0.0359,-0.0259 -8.9e-4,-0.008 -0.004,-0.0221 -0.005,-0.0309 0.0287,-0.0211 0.053,-0.0561 0.0826,-0.0766 z M 98.593331,256.50932 c -0.28432,0.31337 -0.57784,0.61774 -0.86333,0.93005 l 0.22813,1.41928 c 0.29584,-0.28538 0.58253,-0.57752 0.87326,-0.86834 l -0.23806,-1.48099 z m 6.343279,0.27807 c -0.40154,0.17093 -0.78253,0.35666 -1.1796,0.53777 -0.69021,0.31482 -0.88869,0.39664 -1.17961,0.53778 -0.0574,0.52232 -0.0504,1.06511 0.037,1.60826 l 0.10911,0.67879 c 0.66141,-0.67062 1.27311,-1.38065 1.87709,-2.10584 0.0505,-0.44038 0.15174,-0.86865 0.33605,-1.25676 z m -6.060579,1.4806 c -0.33691,0.32677 -0.5839,0.58798 -0.87326,0.86834 l 0.42155,2.62259 c 0.0907,-0.089 0.18309,-0.17664 0.27383,-0.26557 0.14332,0.0572 0.26654,0.14404 0.38898,0.25398 -0.19896,0.1729 -0.38795,0.33444 -0.58345,0.50525 l 0.0794,0.49367 c 0.24287,-0.20721 0.48151,-0.41359 0.72285,-0.62261 0.0442,0.19112 0.0349,0.38972 0.002,0.6011 -0.20883,0.19555 -0.42359,0.38419 -0.63525,0.57688 l 1.696139,10.55205 c 0.01,-0.0107 0.0163,-0.0249 0.0259,-0.0359 0.61489,-0.69926 0.55429,-0.65961 0.82753,-0.95594 l -0.87783,-5.46115 c -0.0675,0.10616 -0.13589,0.21041 -0.2022,0.31736 -0.0137,-0.0252 -0.0235,-0.0651 -0.0149,-0.0925 0.0191,-0.061 0.0694,-0.0892 0.10358,-0.14326 0.0371,-0.0586 0.0645,-0.11363 0.0986,-0.1741 l -1.453129,-9.04021 z m 4.823699,0.0792 c 0.0382,-0.0153 0.085,-0.006 0.12342,-0.0198 -0.44063,0.40874 -0.74785,0.6446 -1.0683,0.83639 0.31427,-0.26478 0.65997,-0.56362 0.7796,-0.66338 0.0586,-0.0488 0.0729,-0.0757 0.16528,-0.15317 z m 0.84684,0.14873 c -0.14457,0.16693 -0.30297,0.32967 -0.46004,0.48542 -0.0388,0.0154 -0.0851,0.0411 -0.11845,0.0507 -0.40643,0.38189 -0.82921,0.77128 -1.23965,1.14879 l 0.24302,1.51185 c 0.14033,-0.11564 0.27771,-0.23662 0.41817,-0.35208 0.90105,-0.73349 1.06642,-0.84011 1.37793,-1.07612 l -0.0744,-0.46281 c -0.23424,0.1934 -0.46156,0.39467 -0.69695,0.5868 0.003,-0.0247 0.0159,-0.043 0.0209,-0.0667 0.32352,-0.2502 0.55085,-0.41998 0.67602,-0.52013 l -0.10415,-0.64793 c -0.0357,-0.22211 -0.0425,-0.44093 -0.0424,-0.65786 z m 138.43674,-20.51159 c -0.30875,0.6417 -0.61308,1.28126 -0.92557,1.92124 -0.0941,0.0426 -0.20024,0.0776 -0.29862,0.11131 -0.13762,0.11266 -0.28237,0.212 -0.42314,0.32122 l 0.84808,5.27602 c 0.14826,-0.003 0.29358,-0.005 0.44187,-0.008 -0.12732,0.11719 -0.2576,0.23223 -0.38732,0.34712 l 0.53562,3.33222 c 0.0201,-0.0123 0.0369,-0.0263 0.0567,-0.0408 0.32099,-0.23337 0.61436,-0.50154 0.92395,-0.74989 0.0701,-0.003 0.15816,0.0161 0.85786,0.0204 0.0151,0.002 0.0443,-0.0112 0.0617,-0.01 l -1.69119,-10.5212 z m -138.13145,22.80473 c -0.61172,0.40526 -1.22328,0.80059 -1.83082,1.21217 l 0.17854,1.11074 c 0.47959,-0.37211 0.9561,-0.73084 1.23854,-0.95871 0.18243,-0.14718 0.37906,-0.29258 0.56253,-0.43859 l -0.0694,-0.43195 c -0.0597,0.0475 -0.10535,0.10596 -0.16529,0.15317 l 0.16033,-0.18403 -0.0744,-0.4628 z m 7.38845,-0.11149 0.58026,3.60991 c 0.10094,-0.21356 0.16944,-0.41839 0.25012,-0.60992 0.10556,-0.006 0.21573,0.0177 0.31846,0.0121 -0.0467,0.0812 -0.0731,0.12037 -0.12451,0.20992 -0.0666,0.11593 -0.25156,0.41013 -0.39944,0.66558 l 0.25294,1.57355 c 0.19246,-0.18943 0.38055,-0.37807 0.57354,-0.56696 0.33261,-0.22124 0.6175,-0.40701 0.4909,-0.49037 0.007,-0.006 0.0244,10e-4 0.0308,-0.005 0.0174,-0.0178 0.0581,-0.0523 0.0826,-0.0766 0.1009,-0.0932 0.20422,-0.17584 0.30467,-0.27053 -0.0681,0.24305 -0.13005,0.48572 -0.19943,0.72838 -0.0239,0.08 -0.0648,0.15577 -0.0887,0.23582 -0.37656,0.29799 -0.74335,0.61025 -1.12009,0.90802 l 0.10415,0.64793 c 0.24821,-0.22963 0.49638,-0.45879 0.74379,-0.68928 -0.036,0.12003 -0.0634,0.24426 -0.0997,0.36419 -0.16949,0.37377 -0.34326,0.75483 -0.51513,1.12729 l 0.90263,5.61542 c 0.0292,-0.11308 0.0729,-0.22076 0.10467,-0.33334 0.0858,-0.052 0.12631,-0.10619 0.14435,-0.0865 0.0271,0.0296 -0.006,0.0885 -0.011,0.12837 -0.074,0.63232 0.007,0.021 -0.10191,0.74436 -0.005,0.0509 -0.0173,0.1417 -0.027,0.2259 l 0.0744,0.46281 0.83306,-0.13391 c 0.7898,-0.6007 1.12694,-0.86857 1.43469,-1.11684 0.002,0.0115 0.005,0.0202 0.005,0.0309 -0.005,0.21989 0.0285,0.44352 0.0116,0.66281 -0.006,0.0787 -0.0254,0.12484 -0.0319,0.19504 l 0.4011,-0.0645 -0.34221,-2.12892 c -0.0643,0.0547 -0.1319,0.10334 -0.19614,0.15813 0.0317,-0.19206 0.0574,-0.38083 0.0341,-0.57521 0.0295,-0.0235 0.0531,-0.0532 0.0826,-0.0766 l -1.06133,-6.60275 6.83879,7.88965 c 0.0677,-0.0749 0.1539,-0.14603 0.21708,-0.2248 0.13333,-0.16624 0.30824,-0.42693 0.49199,-0.68045 -0.008,0.25331 -0.0205,0.53825 -0.0242,0.63691 -0.007,0.18098 -0.14339,0.51116 -0.11679,0.6518 l 1.41929,-0.22814 c 0.67961,-0.18611 0.74992,-0.37922 0.91512,-1.00168 0.0399,-0.15363 0.0754,-0.30816 0.11569,-0.46171 l -1.35394,-8.42313 c -0.14474,0.61433 -0.27423,1.24462 -0.46276,1.84685 -0.0266,0.0849 -0.0552,0.17968 -0.0837,0.26667 0.13209,-0.9431 0.30306,-1.88361 0.43244,-2.82316 l -0.6001,-3.73332 -0.67879,0.1091 c 0.0149,0.0594 0.0161,0.1035 0.0248,0.15427 -0.60701,0.44071 -1.21537,0.87926 -1.81099,1.33559 l 0.0793,0.49366 c 0.52994,-0.38537 1.06423,-0.77431 1.50631,-1.06505 0.11087,-0.0729 0.0874,-0.0342 0.17521,-0.0915 -0.0769,0.1235 -0.10218,0.25831 -0.12561,0.40001 -0.0357,0.0387 -0.073,0.0735 -0.10855,0.11235 -0.76338,0.83627 -1.01751,1.14812 -1.31346,1.47717 l 0.27277,1.69697 c 0.0293,-0.0237 0.0531,-0.0531 0.0826,-0.0766 0.19327,-0.25335 0.38953,-0.49766 0.57464,-0.75704 0.0225,-0.0316 0.005,-0.006 0.0259,-0.0359 0.0648,-0.0532 0.13129,-0.10497 0.19614,-0.15813 -0.0159,0.0962 -0.0322,0.19634 -0.0479,0.29256 -0.05,0.27358 -0.10372,0.54238 -0.1537,0.81598 -0.20076,0.16077 -0.39271,0.33376 -0.58346,0.50525 l 0.74888,4.65895 -0.97469,-1.14102 c -0.0835,0.57814 -0.18369,1.15 -0.29251,1.72453 -0.0575,0.2737 -0.12498,0.54766 -0.18456,0.82094 -0.024,-0.0464 -0.0341,-0.10204 -0.0556,-0.14931 -0.22011,-0.0466 -0.43769,-0.18164 -0.65675,-0.14764 0.35691,-0.80076 0.697,-1.60468 1.0363,-2.41381 l -0.89809,-1.05833 c -0.0419,0.0958 -0.10344,0.18092 -0.14545,0.27659 -0.26025,0.59273 -0.49584,1.20531 -0.75533,1.79892 0.10424,-0.78059 0.26944,-1.74026 0.43134,-2.63308 l -3.6183,-4.19771 c -0.0146,0.13081 -0.0482,0.2594 -0.0639,0.39008 -0.17176,-0.008 -0.34164,-0.0393 -0.5135,-0.0441 0.046,-0.0769 0.0736,-0.16388 0.11955,-0.24077 0.11016,-0.0784 0.23536,-0.13527 0.34545,-0.21379 l -1.05127,-1.22367 c -0.16041,0.15115 -0.31171,0.30689 -0.465,0.45456 0.005,-0.0233 0.0162,-0.0444 0.0209,-0.0667 0.0215,-0.10028 0.0569,-0.26459 0.0948,-0.39505 l -2.46832,0.39676 z m 8.5774,-1.37874 0.17854,1.11074 c 0.022,-0.10611 0.0209,-0.21733 0.043,-0.32341 0.0982,-0.23304 0.24469,-0.48395 0.35866,-0.72233 0.068,-0.0705 0.15417,-0.12333 0.22203,-0.19394 l -0.8022,0.12894 z m 51.80377,-8.32697 0.17854,1.11074 c 0.12557,-0.0685 0.24852,-0.15452 0.3763,-0.21875 0.14912,-0.0749 0.29967,-0.11228 0.44298,-0.1978 0.0647,-0.0387 0.0899,-0.15312 0.16528,-0.15318 0.0527,-3.7e-4 0.0382,0.10299 0.0248,0.15427 -0.0913,0.34927 -0.39399,0.88331 -0.54102,1.16311 -0.0205,0.0368 -0.15881,0.28719 -0.26996,0.48651 l 0.44139,2.746 c 0.1488,-0.14032 0.29219,-0.2764 0.43911,-0.41875 -0.0414,0.0944 -0.0449,0.55688 0.30635,0.33057 0.4466,-0.28776 0.81346,-0.56509 1.16086,-0.85127 0.0123,0.10813 0.003,0.21068 -0.0121,0.31846 -0.0328,0.23579 -0.0831,0.48677 -0.13772,0.71846 -0.0214,0.0906 -0.037,0.14781 -0.0578,0.23085 -0.24261,0.14428 -0.47634,0.29304 -0.72175,0.43253 -0.18075,0.10268 -0.48265,0.29265 -0.78347,0.44244 l 0.12399,0.77135 c 0.35655,-0.21159 0.71072,-0.43465 1.0672,-0.64631 -0.0719,0.14171 -0.12328,0.23682 -0.21817,0.41488 -0.0394,0.0718 -0.0854,0.13799 -0.12451,0.20992 -0.35036,0.17487 -0.54015,0.27972 -0.66501,0.39176 l 1.05638,6.57189 c 0.29053,-0.21722 0.51659,-0.39503 0.67106,-0.55098 0.0205,0.006 0.0411,-0.0127 0.0617,-0.01 -0.0261,0.19325 -0.0385,0.38698 -0.065,0.58017 l 2.06721,-0.33229 -0.69929,-4.35041 c -0.095,0.0553 -0.19617,0.11307 -0.2887,0.17301 0.0827,-0.11305 0.18078,-0.21447 0.26391,-0.32728 l -0.20334,-1.26501 c -0.21857,0.13939 -0.32943,0.31445 -0.52781,0.65456 -0.0369,0.0279 -0.0769,0.0532 -0.1135,0.0816 -0.13212,0.10236 -0.19894,0.27455 -0.27988,0.4248 -0.48774,0.22867 -0.8753,0.44898 -1.12395,0.68708 0.0223,-0.0754 0.0359,-0.15542 0.0578,-0.23084 0.0651,-0.22422 0.13858,-0.44419 0.20935,-0.66668 0.0193,-0.0102 0.012,-0.0466 0.021,-0.0667 0.034,-0.0765 0.0857,-0.1358 0.12451,-0.20993 0.0552,0.0625 0.16865,-0.0151 0.2518,-0.009 0.54448,-0.23977 0.26039,-0.0784 0.81928,-0.41655 0.13726,-0.083 0.26436,-0.17244 0.4022,-0.25456 0.0473,-0.0282 0.0982,-0.0555 0.14435,-0.0865 l -0.93239,-5.80054 c -0.19207,0.17111 -0.38541,0.34239 -0.58346,0.50525 -0.47353,0.47866 -0.94245,0.95161 -1.41594,1.43034 0.44976,-0.83153 0.96372,-1.63187 1.42143,-2.38076 0.13728,-0.21882 0.25956,-0.4484 0.39943,-0.66557 l -0.0744,-0.46281 c -0.039,0.0289 -0.0687,0.0477 -0.1135,0.0815 0.009,-0.0213 0.0748,-0.13129 0.0986,-0.17411 l -0.12895,-0.8022 -2.71514,0.43644 z m 41.71453,-6.70523 0.40172,2.49917 0.95648,-0.15374 c 0.0981,-0.0934 0.2115,-0.17111 0.30467,-0.27054 -0.0371,0.081 -0.0821,0.1599 -0.11955,0.24078 l 1.57355,-0.25294 -0.40172,-2.49916 -0.4011,0.0645 c 0.0168,0.0125 0.0325,0.0374 0.0408,0.0567 -0.0542,0.0188 -0.14363,0.037 -0.21101,0.0656 0.0115,-0.0363 0.0354,-0.0666 0.0468,-0.10243 l -2.19063,0.35212 z m 5.46115,-0.87783 0.86295,5.36859 c 0.1009,-0.10424 0.19813,-0.22205 0.29476,-0.33224 -0.0293,0.0999 -0.0454,0.19889 -0.0788,0.29752 -0.0481,0.14237 -0.10763,0.27077 -0.15646,0.40497 l 0.25789,1.6044 c 0.008,-0.005 0.0229,3.6e-4 0.0309,-0.005 -0.007,0.013 -0.019,0.0228 -0.0259,0.0359 l 0.15374,0.95648 c 0.18692,-0.1207 0.39437,-0.21952 0.57741,-0.34603 0.0456,-0.0154 0.0753,-0.0431 0.11844,-0.0507 0.17941,-0.0319 0.31751,-0.0234 0.41598,0.028 -0.19854,0.35534 -0.40361,0.71736 -0.61761,1.08046 -0.097,0.16461 -0.20279,0.32746 -0.30081,0.49147 l 0.35212,2.19063 c 0.39685,-0.33604 0.78339,-0.68401 1.16196,-1.04135 -0.047,0.094 -0.0971,0.18318 -0.14545,0.27658 -0.0668,0.12914 -0.50488,0.9084 -0.8826,1.59783 l 0.25293,1.57355 2.65344,-0.42652 c 0.0113,-0.0267 0.0339,-0.0726 0.0468,-0.10243 l -0.0149,-0.0925 c -0.13151,-0.0818 -0.25812,-0.14979 -0.38403,-0.22313 0.0931,-0.13358 0.19205,-0.26014 0.28484,-0.39395 l -0.27278,-1.69697 c -0.24805,0.14855 -0.50796,0.28294 -0.7526,0.43749 0.21221,-0.38747 0.42676,-0.75942 0.63854,-1.14713 l -1.55232,-9.65728 c -0.14673,0.54875 -0.28911,1.10154 -0.43082,1.6518 -0.008,0.033 -0.0325,0.097 -0.0419,0.13334 -0.19477,-0.032 -0.39052,-0.0628 -0.58512,-0.0958 0.27962,-0.58741 0.55232,-1.16866 0.79114,-1.77303 0.0175,-0.20096 0.24422,-0.6933 0.06,-0.61102 -0.84197,0.37586 -1.44247,0.84388 -1.96526,1.36038 0.18312,-0.37017 0.40609,-0.78995 0.55589,-1.07054 0.13199,-0.23885 0.26116,-0.45833 0.39448,-0.69643 l -1.69697,0.27277 z m 11.3234,-1.82013 0.53067,3.30137 0.40224,1.5179 c 0.0389,-0.0276 0.0749,-0.0535 0.1135,-0.0815 -0.003,0.13744 -0.0191,0.27871 -0.028,0.41597 l 1.37755,5.22257 0.92562,-0.14879 c -0.0468,-0.0751 -0.0914,-0.15767 -0.15814,-0.19614 0.0775,-0.0485 0.1484,-0.11622 0.227,-0.16309 0.0786,-0.0791 0.13091,-0.15403 0.21707,-0.2248 0.0122,-0.0101 0.0643,-0.0253 0.0617,-0.01 -0.0386,0.20031 -0.12939,0.3941 -0.22423,0.57411 l 0.46281,-0.0744 -0.26733,-4.41984 c -0.0511,0.0133 -0.0981,0.0424 -0.1493,0.0557 0.0503,-0.073 0.0691,-0.16792 0.11955,-0.24077 l -0.13505,-2.41543 c -0.13073,0.16275 -0.26001,0.31891 -0.39834,0.47549 0.0101,-0.0821 0.0153,-0.16833 0.022,-0.25675 0.12437,-0.0813 0.2438,-0.173 0.37134,-0.2496 l -0.009,-0.2518 -0.0645,-0.4011 c -0.10133,0.0739 -0.20116,0.16209 -0.30963,0.23968 -0.0251,-0.1184 -0.0872,-0.23307 -0.14707,-0.32452 0.12046,-0.18103 0.23342,-0.3816 0.3526,-0.5631 l -0.14382,-0.89476 c -0.21284,0.14922 -0.43332,0.29649 -0.62423,0.4485 0.19184,-0.26176 0.38213,-0.52307 0.56968,-0.7879 l -0.15375,-0.95647 c -0.21481,0.15963 -0.4435,0.31341 -0.65013,0.48432 0.0234,-0.15293 0.0323,-0.29872 0.054,-0.4518 l -2.3449,0.37693 z m -20.50409,3.5807 -2.46221,2.00999 0.32732,2.03636 -1.23416,0.19838 0.0893,0.55537 c 0.23912,-0.17743 0.47472,-0.36384 0.70192,-0.55594 -0.15788,0.41595 -0.30577,0.83005 -0.46443,1.24574 -0.0294,0.0699 -0.0602,0.16886 -0.0887,0.23582 l 0.10911,0.67879 1.23416,-0.19838 0.71912,4.47382 c 0.0355,0.22087 0.0553,0.36899 0.0893,0.55537 0.0141,-0.0261 0.0377,-0.0456 0.0518,-0.0716 0.26634,-0.49211 0.715,-1.30942 1.14761,-2.11518 -0.32002,0.98632 -0.67617,1.95547 -1.04952,2.92234 0.0573,0.25722 0.11369,0.47411 0.1609,0.60716 0.12278,0.37382 0.27594,0.65218 0.45732,0.87603 0.008,-0.004 0.0229,-6.4e-4 0.0309,-0.005 -0.003,0.01 0.007,0.0213 0.005,0.0309 0.0202,0.0239 0.0246,0.0653 0.0458,0.0876 0.18804,0.18755 0.45013,0.3397 0.76806,0.44626 0.25304,-0.20731 0.47163,-0.43708 0.71789,-0.65346 -0.0937,0.24317 -0.16558,0.49587 -0.26114,0.7383 0.34609,0.0433 0.71386,0.0435 1.10469,-0.0193 0.79704,-0.12812 1.47789,-0.37209 2.06444,-0.74331 l -0.55322,-2.06335 c -0.44778,0.25 -0.81542,0.41593 -1.06611,0.45622 -0.17998,0.0289 -0.3446,-0.0106 -0.4876,-0.0799 -0.1366,-0.0703 -0.21023,-0.1759 -0.27053,-0.30468 -0.0548,-0.13626 -0.16049,-0.60458 -0.29481,-1.44022 l -0.66457,-4.13443 1.85124,-0.29756 -0.26781,-1.66612 c -0.16432,0.12324 -0.40495,0.28974 -0.62424,0.4485 0.13075,-0.26549 0.27991,-0.52835 0.41045,-0.79395 0.0181,-0.0379 0.0457,-0.0966 0.0727,-0.13828 l -1.78953,0.28765 -0.22318,-1.38843 c -0.25792,0.16981 -0.52124,0.34999 -0.76858,0.53501 0.0333,-0.0924 0.0815,-0.17905 0.11459,-0.27163 0.0912,-0.21559 0.18604,-0.42968 0.27602,-0.64574 0.0452,-0.10866 0.1512,-0.27533 0.24902,-0.41984 l -0.1091,-0.67879 c -0.0561,0.0383 -0.1402,0.0849 -0.20111,0.12723 -0.1043,1.5e-4 -0.1966,-0.0196 -0.28761,-0.0171 0.12888,-0.20615 0.27709,-0.39968 0.40936,-0.60387 l -0.0397,-0.24683 z m -105.53151,17.08982 c -0.56694,0.35424 -1.14515,0.70993 -1.69144,1.09481 -0.039,0.0274 -0.085,0.10047 -0.13443,0.14822 l 0.86791,5.39944 c 0.35226,-0.1258 0.39942,-0.22841 0.23415,-0.51241 0.0959,-0.0758 0.18381,-0.1578 0.27878,-0.23472 0.15053,-0.12193 0.26423,-0.27655 0.37244,-0.43968 -0.0776,0.35285 -0.15009,0.70255 -0.2424,1.0518 -0.10006,0.37861 -0.27535,0.90301 -0.43467,1.43087 l 1.45313,9.04021 c 0.0535,0.33309 0.14692,0.66269 0.25126,0.97245 0.0781,-0.22174 0.1523,-0.45784 0.21431,-0.63582 0.0825,-0.22822 0.71925,-1.95355 0.7735,-2.27661 0.017,-0.10128 0.0373,-0.2738 0.0589,-0.42094 0.0309,0.16272 0.0732,0.32566 0.1361,0.45289 0.0702,0.14184 0.20053,0.2356 0.3372,0.32561 l -0.43643,-2.71515 c -0.0609,0.43976 -0.10281,1.03778 -0.0606,1.59229 -0.0181,-0.008 -0.0323,-0.002 -0.0617,0.01 -0.41612,0.1623 -0.76528,0.32976 -1.05619,0.51794 0.16483,-0.52294 0.72035,-2.26661 0.8374,-2.6667 0.0529,-0.18089 0.11056,-0.35264 0.16748,-0.53334 l -0.30253,-1.88209 c -0.11575,0.12117 -0.24078,0.25541 -0.35151,0.37302 0.0708,-0.2514 0.15649,-0.62649 0.25728,-0.95924 l -0.87287,-5.4303 c -0.23497,0.16714 -0.45395,0.34523 -0.67106,0.55099 0.18967,-0.43526 0.37227,-0.88161 0.54707,-1.32233 l -0.13886,-0.86392 c -0.19361,0.0742 -0.37777,0.13953 -0.56143,0.2485 0.17232,-0.18742 0.34107,-0.36877 0.51183,-0.55703 l -0.28269,-1.75868 z m 115.15689,-16.67464 c 0.0152,-0.0105 0.0464,6.5e-4 0.0617,-0.01 -0.0123,0.0357 -0.0341,0.0669 -0.0468,0.10244 -0.009,-0.002 -0.0213,0.006 -0.0309,0.005 0.008,-0.0315 0.007,-0.0665 0.016,-0.0975 z m 26.87655,-3.90869 1.20516,7.49751 c 0.0874,-0.0282 0.1894,-0.0464 0.27271,-0.0755 0.10769,0.0306 0.22141,0.0953 0.28155,0.1763 0.17623,0.23743 -0.0192,0.54978 -0.13276,0.74932 -0.0971,-0.0115 -0.19589,-0.0339 -0.29256,-0.0479 l 1.78542,11.10742 c 0.39702,2.46995 -1.25886,4.76012 -3.7288,5.15714 l -7.00385,1.1258 c 0.01,0.33918 0.0277,0.66792 0.0353,1.00716 l 2.56088,-0.41163 c 0.0108,-0.055 0.0262,-0.1091 0.0369,-0.16419 0.0765,-0.0526 0.15131,-0.109 0.22699,-0.16309 0.16759,0.0147 0.34122,0.0405 0.48265,0.049 0.0287,10e-4 0.0698,0.0145 0.0975,0.016 -0.003,0.0448 -0.008,0.0833 -0.0111,0.12839 l 3.73333,-0.6001 c 1.31243,-0.21096 2.44315,-0.86419 3.25726,-1.78962 -0.11763,-0.18803 -0.25656,-0.35216 -0.37191,-0.54159 0.3651,-0.15521 0.73311,-0.3234 1.092,-0.49204 0.20871,-0.38663 0.35765,-0.78429 0.46939,-1.21489 -0.22707,0.0992 -0.45474,0.17656 -0.68485,0.26833 0.0956,-0.11148 0.17738,-0.24276 0.0937,-0.20496 -0.057,0.0823 -0.0892,0.16638 -0.1504,0.24574 -0.0801,0.0317 -0.15654,0.0705 -0.23692,0.10138 -0.0308,-0.006 -0.0401,-0.0395 -0.0716,-0.0518 0.14738,-0.10907 0.2976,-0.22247 0.45894,-0.29533 0.0874,-0.12632 0.18387,-0.22352 0.25895,-0.35813 0.077,-0.13818 -0.24056,-1.0794 -0.41217,-1.57961 0.30019,-0.0543 0.59592,-0.10186 0.89477,-0.14382 -0.009,-0.0828 -0.0263,-0.16376 -0.0397,-0.24684 l -1.00677,-6.26335 -0.21822,-1.35757 c -0.0908,0.0207 -0.18694,0.024 -0.27769,0.0446 -0.11943,-0.12112 -0.26809,-0.19275 -0.45069,-0.24407 0.16013,-0.14604 0.2866,-0.36274 0.5796,-0.72619 l -0.0595,-0.37025 c -0.055,-0.0177 -0.12956,4.7e-4 -0.19009,-0.001 0.0311,-0.0361 0.0468,-0.0709 0.0776,-0.10739 0.0348,0.003 0.0576,-0.0173 0.0925,-0.0149 l -1.41842,-8.82422 c -0.13277,-0.0295 -0.27941,-0.0676 -0.39504,-0.0948 -0.13859,-0.0285 -0.2806,-0.042 -0.42094,-0.0589 0.1353,-0.12837 0.22794,-0.22315 0.38236,-0.37798 -0.0105,-0.11605 0.0432,-0.24893 -0.0236,-0.34436 -0.0139,-0.0199 -0.0677,-0.0312 -0.10243,-0.0468 0.11281,-0.0955 0.21597,-0.21326 0.33057,-0.30635 -0.10497,-0.0286 -0.19862,-0.0742 -0.30249,-0.10963 0.068,-0.0688 -0.0211,-0.0563 -0.12838,-0.0111 -0.0805,-0.0227 -0.14735,-0.0543 -0.23085,-0.0578 -0.11426,-0.005 -0.2312,0.006 -0.34436,0.0236 z m -4.3278,1.23372 c -0.19913,0.009 0.5206,-0.031 0.90963,-0.0513 0.009,0.0218 0.0343,0.0345 0.0408,0.0567 -0.41568,0.10206 -0.83445,0.19419 -1.25015,0.29585 0.0986,-0.0967 0.1969,-0.2006 0.29972,-0.30138 z m -128.13754,20.78683 c 0.0836,0.002 0.16818,-0.0102 0.2518,-0.009 -0.005,0.0137 -0.0214,0.022 -0.0259,0.0359 -0.0841,0.0758 -0.16421,0.15355 -0.24793,0.22976 -0.21116,0.20311 -0.0579,0.0373 -0.22203,0.19395 0.0788,-0.15689 0.15671,-0.29199 0.24407,-0.4507 z m 17.06004,-2.36243 c -1.00276,0.1612 -1.8968,0.51459 -2.64185,1.08933 -0.18466,0.14343 -0.36901,0.29835 -0.52671,0.46448 0.0486,0.43969 0.10705,0.86738 0.14659,1.30578 0.007,0.0815 0.0113,0.21735 0.0187,0.3135 -0.24048,1.43151 -0.50315,2.86398 -0.8313,4.27992 -0.005,-0.26252 -0.0253,-0.52381 -0.0314,-0.78622 -0.019,-0.80645 0.0265,-1.65168 -0.10915,-2.45125 -0.0457,-0.26974 -0.11934,-0.377 -0.19671,-0.63305 -0.0186,-0.0614 -0.0431,-0.11841 -0.0606,-0.18016 -0.28921,0.88961 -0.35152,1.75128 -0.2104,2.62921 0.18908,1.17631 0.55322,2.13721 1.129,2.88868 0.18073,0.23428 0.39195,0.43847 0.60773,0.63029 0.0107,-0.0647 0.0225,-0.12983 0.0319,-0.19504 -4.5e-4,0.0123 0.006,0.17495 0.004,0.22094 0.46315,0.4036 0.98912,0.72076 1.60278,0.91346 0.0318,0.01 0.0657,0.007 0.0975,0.016 0.0977,-0.0965 0.20702,-0.20084 0.29972,-0.30139 0.0329,0.0218 0.0741,-0.0445 0.19614,-0.15813 -0.039,0.0183 -0.0741,0.0581 -0.1135,0.0815 0.18209,-0.20371 0.34879,-0.4191 0.49696,-0.6496 0.1248,-0.19415 0.15668,-0.39836 0.18345,-0.63086 0.13808,-0.12447 0.27775,-0.25518 0.41322,-0.38294 -0.37915,-0.0716 -0.72956,-0.22505 -1.06062,-0.49418 -0.56889,-0.46245 -0.92332,-1.21522 -1.08657,-2.23084 -0.16325,-1.0156 -0.0626,-1.84152 0.33272,-2.45896 0.3953,-0.61743 0.95351,-0.97619 1.66059,-1.08986 0.70706,-0.11364 1.35601,0.0511 1.91847,0.51456 0.56888,0.46245 0.92041,1.19723 1.0816,2.19997 0.16531,1.02847 0.0675,1.8724 -0.32776,2.48983 -0.38888,0.6164 -0.95352,0.97619 -1.66058,1.08985 -0.146,0.0235 -0.30146,0.008 -0.44187,0.008 -0.0715,0.62354 -0.13302,1.24622 -0.20602,1.86888 -0.014,0.13022 -0.0483,0.26006 -0.0639,0.39009 0.34821,0.002 0.71198,-0.0195 1.06391,-0.0761 1.51698,-0.24384 2.71894,-0.9461 3.55202,-2.12186 0.83846,-1.18321 1.11005,-2.54566 0.86105,-4.0948 -0.24695,-1.53626 -0.93993,-2.71333 -2.091,-3.55698 -0.50984,-0.37616 -1.06505,-0.64998 -1.64961,-0.81098 -0.0113,0.0956 -0.006,0.19204 -0.0171,0.28761 -0.23051,0.34833 -0.60576,0.89496 -0.8446,1.24355 0.0612,-0.38987 0.17112,-1.23789 0.24073,-1.65291 -0.55348,-0.0763 -1.14785,-0.0687 -1.7675,0.0309 z m 34.433,-5.53478 c -0.78079,0.12551 -1.44907,0.38767 -2.02367,0.80005 -0.001,0.0104 0.006,0.0209 0.005,0.0309 -0.22487,0.19198 -0.44103,0.39011 -0.6661,0.58184 -0.15693,0.17281 -0.3147,0.34237 -0.45013,0.54712 -0.12373,0.18571 -0.22188,0.38641 -0.31679,0.58899 0.0751,-0.063 0.147,-0.13077 0.22204,-0.19394 -0.0138,-0.0446 0.0324,-0.21309 0.0678,-0.16915 0.022,0.0273 0.0378,0.1038 0.0557,0.14931 -0.0378,0.0199 -0.0803,0.0313 -0.11845,0.0507 -0.088,0.0915 -0.18446,0.17548 -0.27383,0.26557 -0.029,0.0658 -0.0677,0.13735 -0.0937,0.20496 -0.004,0.0227 -0.0173,0.044 -0.0209,0.0667 -0.0588,0.36616 -0.10633,0.73724 -0.17077,1.10359 -0.0284,0.0248 -0.0544,0.0516 -0.0826,0.0766 -0.0745,0.63175 -0.0756,1.3018 0.0447,2.05014 0.22834,1.42056 0.73292,2.56594 1.55767,3.3895 0.93643,0.92215 2.1914,1.28287 3.72841,1.1415 0.0162,-0.0161 0.0405,-0.0247 0.0567,-0.0408 -3.5e-4,0.004 0.005,0.0265 0.005,0.0309 0.15355,-0.0156 0.30866,-0.0179 0.46778,-0.0435 0.61812,-0.0994 1.15565,-0.27966 1.62643,-0.51465 0.008,-0.0555 0.0287,-0.10865 0.0369,-0.16419 0.1681,-0.085 0.50119,-0.4646 1.02863,-1.08322 0.21915,-0.0667 0.43789,-0.13136 0.57135,-0.18674 0.10076,-0.15256 0.18762,-0.31843 0.26996,-0.48651 -0.0349,-0.0332 -0.0952,-0.067 -0.14325,-0.10358 0.0886,-0.0963 0.11354,-0.15149 0.21212,-0.25566 0.18651,-0.19707 0.12704,-0.52605 0.18951,-0.79009 0.013,-0.0547 0.0239,-0.10954 0.0369,-0.16418 l -2.66117,-0.0154 c -0.0652,0.53799 -0.21238,0.96785 -0.46443,1.24574 -0.25207,0.27791 -0.6011,0.44479 -1.02533,0.51298 -0.62351,0.10022 -1.16271,-0.0545 -1.65181,-0.43081 -0.35394,-0.27643 -0.61596,-0.67567 -0.78956,-1.17079 -0.0191,0.0873 -0.0337,0.17439 -0.0528,0.26171 0.007,-0.12821 0.0258,-0.25693 0.033,-0.38512 -0.0494,-0.1577 -0.10807,-0.3056 -0.14106,-0.48375 l 0.18512,-0.0297 c 0.0116,-0.2012 0.0173,-0.40487 0.0292,-0.60607 0.0279,0.0421 0.0717,0.0909 0.11235,0.10855 0.0282,0.0122 0.0612,-0.02 0.0925,-0.0149 -0.035,0.16547 -0.0752,0.32721 -0.11073,0.49257 l 6.47933,-1.0415 c -0.0827,-0.58306 -0.20946,-1.10461 -0.35041,-1.58953 -0.24083,0.15116 -0.39899,0.30697 -0.52175,0.49533 -0.002,-0.0631 0.003,-0.12698 0.001,-0.19009 -0.004,-0.12109 0.0215,-0.31811 0.049,-0.48265 0.0306,0.002 0.0669,0.0213 0.0975,0.016 0.0795,-0.0138 0.19052,-0.0677 0.29862,-0.1113 -0.36226,-1.11051 -0.8835,-1.9575 -1.57803,-2.53164 -0.0593,-0.0493 -0.11824,-0.0838 -0.17907,-0.12948 -0.10519,0.0778 -0.20525,0.16087 -0.30963,0.23968 0.0436,-0.12578 0.0866,-0.24357 0.13057,-0.36915 -0.25729,-0.17354 -0.54589,-0.32402 -0.82977,-0.43634 -0.0126,-0.005 -0.0231,-0.0211 -0.0359,-0.0259 -0.78073,-0.30021 -1.65165,-0.36752 -2.62921,-0.2104 z m 22.67765,-3.64523 c -1.00275,0.1612 -1.86594,0.50964 -2.61099,1.08437 -0.4584,0.35607 -0.82984,0.79672 -1.12229,1.28819 0.0583,0.20007 0.12123,0.40256 0.1609,0.60716 0.0121,0.0626 0.0352,0.20641 0.0496,0.30854 -0.29233,0.2408 -0.58651,0.47972 -0.86225,0.73997 -0.002,0.0105 0.007,0.0205 0.005,0.0309 -0.14498,0.66651 -0.16959,1.30785 -0.0628,1.97246 0.18908,1.17631 0.58408,2.13225 1.15986,2.88372 0.57474,0.74505 1.32965,1.2818 2.24633,1.56965 0.13129,0.0408 0.26374,0.0634 0.39504,0.0947 0.53319,-0.45128 1.07244,-0.89073 1.58509,-1.36258 0.0169,-0.0108 0.0448,9e-4 0.0617,-0.01 -0.041,0.18847 -0.0901,0.37081 -0.13166,0.55924 0.52635,-1.26044 -0.34608,0.96951 -0.12285,0.81102 0.27536,-0.19551 0.55134,-0.3764 0.82533,-0.57578 -0.084,0.33235 -0.11775,0.52243 -0.16857,0.72342 0.11161,-0.0119 0.2274,-0.0366 0.33939,-0.0546 1.51699,-0.24384 2.68809,-0.94114 3.52117,-2.1169 0.0914,-0.12903 0.17532,-0.25558 0.25398,-0.38899 0.008,-0.0219 0.0133,-0.0448 0.021,-0.0667 0.22854,-0.65645 0.4469,-1.31357 0.66386,-1.97413 0.001,-0.0104 -0.006,-0.0209 -0.005,-0.0309 0.057,-0.52079 0.0497,-1.06899 -0.0419,-1.63913 -0.24694,-1.53625 -0.93993,-2.71332 -2.091,-3.55698 -1.15213,-0.85004 -2.51978,-1.14586 -4.06891,-0.89686 z m -49.70184,8.21067 1.04149,6.47933 c 0.15499,0.9642 0.36935,1.69067 0.70144,2.19779 0.33208,0.5071 0.81667,0.88815 1.4116,1.10244 0.43705,0.15742 0.90501,0.21181 1.39119,0.18785 0.005,-0.0326 0.008,-0.0667 0.016,-0.0975 0.13358,-0.50614 0.28177,-1.01848 0.4198,-1.52343 0.11372,-0.41604 0.11065,-0.36375 0.18346,-0.63086 -0.17192,-0.0276 -0.31992,-0.0745 -0.46668,-0.14654 -0.29454,-0.15047 -0.52485,-0.37722 -0.67935,-0.68208 -0.14912,-0.31232 -0.34439,-1.15793 -0.57583,-2.59779 l -0.7588,-4.72065 -2.68429,0.43147 z m 6.60275,-1.06133 0.69432,4.31956 c 0.23557,1.46557 0.3044,2.41063 0.23038,2.81157 -0.0751,0.39452 -0.26665,0.72864 -0.59171,1.04464 -0.3261,0.30959 -0.73774,0.53005 -1.20054,0.60444 -0.14593,0.0235 -0.28135,0.0117 -0.41102,0.003 -0.14111,0.41812 -0.61879,1.0821 -0.23744,1.08265 -0.0758,0.17044 -0.12378,0.3159 -0.022,0.25675 0.0885,-0.0515 0.16967,-0.11478 0.25785,-0.16805 -0.0293,0.50716 0.28444,0.32739 0.82809,-0.16481 0.3508,-0.0689 0.59441,-0.16107 0.74159,-0.30911 -0.081,0.31086 -0.17891,0.61813 -0.26223,0.92839 0.0967,-0.0604 0.19029,-0.13431 0.28374,-0.20387 0.56001,-0.41312 0.98769,-0.92761 1.27269,-1.53392 l 0.24797,1.5427 2.49917,-0.40172 -0.58026,-3.60991 c -0.12935,0.55856 -0.25736,1.12109 -0.395,1.6777 0.0704,-0.51656 0.12652,-1.03351 0.1939,-1.55042 0.0409,-0.40301 0.0773,-0.68862 0.0821,-0.86778 0.002,-0.0896 -0.007,-0.15065 -0.0298,-0.18512 -0.0739,-0.11157 -0.35118,0.0762 -0.92781,0.52895 0.0313,-0.13161 0.0635,-0.26341 0.0948,-0.39504 0.0676,-0.28502 0.15012,-0.7158 0.23744,-1.08266 0.12801,-0.0942 0.27123,-0.16368 0.4022,-0.25455 l -0.62986,-3.91846 c -0.17877,0.0888 -0.3474,0.20752 -0.52065,0.30525 0.0489,-0.28282 0.10209,-0.56366 0.14874,-0.84684 l -2.40661,0.38684 z m 4.19613,-0.67449 5.60301,9.25939 c 0.48299,-0.51394 1.01121,-1.02266 1.45782,-1.56368 0.003,0.0931 0.009,0.18973 0.0138,0.28264 0.006,0.10771 0.0104,-0.21062 0.0121,-0.31845 0.17121,-0.20968 0.32193,-0.41482 0.4661,-0.64465 0.30722,-0.48977 0.28448,-1.12205 0.42585,-1.68266 0.11935,-0.47325 0.21927,-0.94361 0.34211,-1.41599 -0.19131,1.53204 -0.40009,3.06677 -0.62247,4.59452 -0.0374,0.25693 -0.10075,0.52198 -0.1278,0.78017 l 0.30854,-0.0496 c 0.14043,-0.12553 0.2758,-0.25403 0.41321,-0.38293 l 2.35235,-10.56979 -2.40661,0.38684 c -0.16085,0.61541 -0.32971,1.23707 -0.49362,1.85181 0.0601,-0.57262 0.14363,-1.13665 0.19996,-1.70965 0.003,-0.0269 0.01,-0.0675 0.016,-0.0975 l -0.0926,0.0149 -1.1365,5.53173 c -0.0564,0.3058 -0.0904,0.63569 -0.13386,0.9394 -0.0158,0.14761 -0.0623,0.44126 -0.13882,0.90854 l -0.83806,-1.6694 -2.78195,-4.90187 -0.0308,0.005 c -0.0393,0.17405 -0.0676,0.34911 -0.10577,0.52342 -0.004,-0.17908 -0.0124,-0.35138 -0.0176,-0.50358 l -2.6843,0.43147 z m 46.31177,-7.44418 0.0843,0.52451 c 0.26766,-0.22084 0.50305,-0.45085 0.74874,-0.65842 l -0.83306,0.13391 z m 0.0843,0.52451 0.30252,1.88209 0.52075,3.23967 c 0.0263,-0.0155 0.0637,-0.0307 0.0875,-0.0458 -0.019,0.0664 -0.0434,0.13371 -0.0628,0.2 l 0.10911,0.67878 c 0.15498,0.9642 0.40021,1.68571 0.73229,2.19283 0.33209,0.5071 0.78581,0.89312 1.38075,1.1074 0.2342,0.0844 0.47547,0.13855 0.72342,0.16858 0.0196,-0.0219 0.0325,-0.0495 0.0518,-0.0716 0.30214,-0.22937 0.59891,-0.45593 0.90301,-0.68322 0.0381,-0.0273 0.0757,-0.053 0.1135,-0.0815 -0.0451,0.22883 -0.0634,0.40015 0.0237,0.34436 0.35172,-0.2252 0.7185,-0.46129 1.05729,-0.70802 -0.0155,0.0585 -0.13328,0.51755 -0.25232,0.99009 0.40381,-0.13631 0.78368,-0.33016 1.13883,-0.59452 0.56001,-0.41312 0.98768,-0.92761 1.27269,-1.53392 l 0.24797,1.5427 2.53003,-0.40668 -0.73897,-4.59724 c -0.0565,0.14882 -0.12588,0.29194 -0.18235,0.44078 -0.25622,0.18708 -0.4859,0.38588 -0.72781,0.59175 0.0157,-0.0445 0.025,-0.0893 0.0419,-0.13333 0.054,-0.14119 0.0968,-0.2949 0.1515,-0.43582 0.30586,-0.24259 0.48815,-0.36668 0.70688,-0.52509 l -0.89767,-5.58456 -2.71515,0.43643 0.33229,2.06722 c 0.0761,-0.0428 0.1842,-0.108 0.23196,-0.13219 0.0746,0.1088 0.081,0.23765 0.0904,0.36528 -0.0656,0.033 -0.14962,0.0901 -0.25785,0.16805 l 0.17854,1.11074 c 0.0249,-0.0901 0.059,-0.17657 0.0837,-0.26667 0.009,-0.0421 0.007,-0.0579 0.016,-0.0975 0.0126,0.15421 0.0465,0.30176 0.10034,0.42699 -0.004,0.008 0.009,0.0227 0.005,0.0309 -0.0591,0.009 -0.13309,0.0194 -0.18513,0.0298 l 0.0992,0.61708 c 0.23558,1.46557 0.30444,2.41063 0.23038,2.81157 -0.0751,0.39453 -0.26666,0.72865 -0.59171,1.04465 -0.3261,0.30959 -0.70689,0.52509 -1.16969,0.59948 -0.40496,0.0651 -0.77427,-8.3e-4 -1.06777,-0.14488 -0.29456,-0.15047 -0.52486,-0.37721 -0.67936,-0.68208 -0.14916,-0.31231 -0.31353,-1.16289 -0.54497,-2.60274 l -0.7588,-4.72066 -1.78953,0.28765 c -0.27191,0.2281 -0.56395,0.45225 -0.84131,0.67331 z m 18.86001,-3.56964 c -0.0165,0.0335 -0.0303,0.069 -0.0468,0.10243 -0.0399,0.0811 -0.079,0.16007 -0.11955,0.24078 l 0.21325,1.32672 c 0.12318,-0.0943 0.2414,-0.21353 0.36143,-0.31131 0.0245,0.0126 0.0466,0.0384 0.0716,0.0518 -0.023,0.0662 -0.0394,0.13401 -0.0628,0.2 0.0703,-0.0424 0.1302,-0.0885 0.20111,-0.12723 0.13704,0.0768 0.27116,0.13154 0.41488,0.21817 -0.091,0.0866 -0.1832,0.1787 -0.27382,0.26557 -0.14516,0.13916 -0.21998,0.3292 -0.33167,0.49643 -0.12694,0.19006 -0.15773,0.21396 -0.20716,0.28651 l 0.0347,0.21597 c 0.27343,-0.18123 0.56398,-0.33009 0.83525,-0.51407 -0.014,0.0341 -0.0327,0.0683 -0.0468,0.10243 -0.092,0.10535 -0.17097,0.22273 -0.2639,0.32728 0.0402,-0.0135 0.11242,-0.0436 0.1493,-0.0557 -0.0618,0.14434 -0.12193,0.29377 -0.18236,0.44078 -0.0375,0.0915 -0.0727,0.18083 -0.11459,0.27163 -0.0672,0.0792 -0.14777,0.14358 -0.21707,0.2248 -0.0161,-0.0311 -0.0301,-0.0572 -0.0458,-0.0876 l 0.10911,0.67879 c 0.0267,-0.0194 0.061,-0.0262 0.0875,-0.0458 0.0182,0.0308 0.0279,0.0405 0.0667,0.021 0.1805,-0.091 0.3551,-0.19041 0.52065,-0.30525 -0.14106,0.51337 -0.30797,1.02979 -0.4815,1.53335 l 0.7588,4.72066 1.63526,-0.26286 c -0.0167,-0.18872 -0.005,-0.36877 -0.0176,-0.50358 0.0658,-0.68926 0.0516,-0.95819 0.0892,-1.21708 0.10614,-0.16872 0.22648,-0.32719 0.33167,-0.49643 0.11351,-0.1092 0.19244,-0.23874 0.2898,-0.3631 l -1.14564,-7.12726 c -0.0479,0.0387 -0.092,0.0781 -0.1394,0.11731 0.0347,-0.10118 0.0752,-0.2012 0.10963,-0.30248 l -0.0843,-0.52452 -2.49917,0.40172 z m 0.77969,2.88153 c -0.13639,0.0444 -0.32942,0.11747 -0.50965,0.17682 l 0.0546,0.3394 c 0.0366,-0.0461 0.10483,-0.11226 0.13443,-0.14822 0.10324,-0.12536 0.21274,-0.24664 0.32065,-0.36805 z M 114.3192,264.55301 c 0.11195,-0.0251 0.0354,0.10929 -0.0529,0.26171 -0.0491,0.0281 -0.0954,0.0582 -0.14435,0.0865 0.007,-0.0469 0.001,-0.10075 0.011,-0.12837 0.0177,-0.0494 0.0461,-0.11618 0.0678,-0.16915 0.0384,-0.0166 0.0869,-0.0436 0.11845,-0.0507 z m 72.9536,-11.63171 c -0.0297,0.0882 -0.0541,0.17843 -0.0837,0.26666 -0.0112,-0.0569 -0.042,-0.0962 -0.0557,-0.1493 0.0511,-0.0425 0.0909,-0.0748 0.1394,-0.11731 z m 33.62365,-5.05653 c 0.12872,-0.0653 -0.10307,0.27088 -0.15647,0.40496 -0.15426,-0.0392 -0.11373,-0.085 -0.0137,-0.28265 0.057,-0.0381 0.10906,-0.0914 0.17025,-0.12227 z m -5.3333,1.87011 c -0.10234,0.0622 -0.21724,0.11565 -0.31956,0.17797 l 0.0843,0.52452 c 0.0863,-0.23271 0.15249,-0.46922 0.23525,-0.70249 z m -26.41208,4.43541 c -0.0427,0.0693 -0.0811,0.14111 -0.12451,0.20992 0.0536,-0.0117 0.0936,-0.0467 0.1493,-0.0557 0.3176,-0.0511 0.628,-0.0526 0.91956,0.0104 0.11734,-0.10708 0.24105,-0.20913 0.36143,-0.3113 -0.0456,0.12106 -0.0841,0.2484 -0.13057,0.36915 0.27382,0.0903 0.52439,0.24547 0.76806,0.44626 0.0853,0.0693 0.15412,0.16632 0.22976,0.24793 0.15513,-0.0793 0.31532,-0.15126 0.46886,-0.23362 0.0191,-0.0102 -0.0167,-0.0409 -0.01,-0.0617 0.0305,-0.0943 0.0792,-0.17898 0.1146,-0.27163 -0.0525,0.26125 -0.0692,0.52024 -0.12781,0.78017 -0.0144,0.0637 -0.0811,0.15943 -0.11955,0.24077 0.2419,0.40903 0.42837,0.89286 0.52566,1.49807 0.16531,1.02847 0.0675,1.87239 -0.32776,2.48982 -0.38887,0.61641 -0.95352,0.9762 -1.66058,1.08985 -0.70708,0.11366 -1.31875,-0.0571 -1.88762,-0.51951 -0.5689,-0.46245 -0.95418,-1.21026 -1.11742,-2.22587 -0.16326,-1.0156 -0.0317,-1.84649 0.36357,-2.46393 0.29032,-0.45346 0.66347,-0.7605 1.11513,-0.93887 0.0104,-0.0373 0.0309,-0.094 0.0419,-0.13334 0.14335,-0.052 0.28612,-0.11507 0.44794,-0.1669 z m -22.51841,3.65132 c 0.5528,-0.0888 1.06667,0.0396 1.51847,0.38895 0.45076,0.34297 0.72857,0.9142 0.87388,1.6953 l -4.04187,0.64969 c -0.12573,-0.73809 -0.0129,-1.36024 0.30353,-1.85291 0.31645,-0.49265 0.75462,-0.78596 1.34599,-0.88103 z m 31.90298,-5.1281 c 0.008,0.0163 0.001,0.0465 0.01,0.0617 -0.007,0.005 -0.0232,-3.1e-4 -0.0309,0.005 0.007,-0.0221 0.0138,-0.0446 0.021,-0.0667 z m -80.27314,13.15637 c -0.0106,0.0561 -0.0263,0.10782 -0.0369,0.16419 -0.0144,0.0972 -0.032,0.19551 -0.0479,0.29256 -0.1028,0.4206 -0.21933,0.8393 -0.33606,1.25676 0.0211,-0.48417 0.0536,-0.95436 0.0854,-1.43802 0.11265,-0.0915 0.223,-0.18384 0.33553,-0.27549 z m 52.52886,-7.5573 c -0.0522,0.1679 -0.11524,0.30813 -0.12065,0.43086 -0.005,0.10545 0.0399,0.20379 0.0805,0.30357 -0.0473,0.0374 -0.0915,0.0806 -0.1394,0.11731 -0.15156,0.0678 -0.28992,0.16947 -0.43305,0.25952 0.0316,-0.30865 0.0466,-0.62033 0.0721,-0.92948 0.0612,0.007 0.14211,0.0172 0.22094,-0.004 0.12337,-0.0329 0.2134,-0.10357 0.31956,-0.17797 z m 63.69909,-9.54271 c 0.0268,-0.003 0.041,0.0128 0.0667,0.021 -0.0267,0.0452 -0.0807,0.0692 -0.10855,0.11235 -0.21926,0.0725 -0.4481,0.10302 -0.66887,0.17082 -0.029,0.009 -0.064,0.005 -0.0925,0.0149 0.004,-0.058 0.006,-0.0707 0.0111,-0.12838 0.12454,-0.0281 0.23989,-0.0642 0.36528,-0.0904 0.13544,-0.0279 0.28975,-0.0832 0.42699,-0.10034 z m -16.25507,2.6445 c -0.0273,0.18665 -0.0814,0.37941 -0.1267,0.59009 -0.0266,0.0189 -0.061,0.0269 -0.0875,0.0458 0.0728,-0.2114 0.14375,-0.4237 0.21431,-0.63582 z m -24.94597,4.10474 c -0.0262,0.10549 -0.0459,0.17323 -0.0788,0.29752 -0.0659,0.24905 -0.45194,0.77951 -0.19943,0.72838 -0.17725,0.11671 -0.3432,0.22378 -0.5157,0.33611 0.0406,-0.21167 0.0931,-0.49114 0.10082,-0.55428 0.0132,-0.1082 0.063,-0.27989 0.0898,-0.4259 0.20911,-0.11453 0.403,-0.25387 0.6033,-0.38183 z m 0.84851,0.74984 c -0.15498,0.54916 -0.27501,1.04918 -0.4198,1.52343 -0.0931,0.0597 -0.28625,0.17798 -0.4022,0.25456 0.0325,-0.12519 0.0238,-0.23941 -0.10634,-0.26777 -0.0586,-0.0128 -0.10407,0.004 -0.15924,-0.006 l 0.13553,-0.3383 c -0.11897,0.0971 -0.24355,0.18739 -0.36638,0.28045 -0.19181,-0.0248 -0.35956,-0.0213 -0.50854,-0.0132 0.0385,-0.18978 0.0741,-0.25228 0.11569,-0.46171 0.44848,-0.28729 0.89612,-0.5852 1.34599,-0.88103 0.11094,-0.0289 0.27482,-0.0617 0.36528,-0.0904 z m -0.95204,1.16587 c 0.0721,-0.0588 0.15723,-0.10195 0.22699,-0.16309 0.0476,-0.0418 -0.1209,0.0383 -0.18015,0.0607 l -0.0468,0.10243 z m -77.22027,12.06433 c -0.003,0.053 -0.003,0.1062 -0.006,0.15923 -0.0317,0.49466 -0.0883,1.00933 -0.10629,1.50469 -0.005,0.15044 -0.0163,0.2957 -0.0231,0.44683 -0.10216,0.0864 -0.21408,0.20197 -0.27879,0.23472 -0.12069,0.0913 -0.25206,0.18125 -0.36638,0.28045 -0.0775,0.0673 -0.13647,0.1613 -0.21708,0.2248 -0.0223,0.0173 -0.058,0.038 -0.0617,0.01 -0.0186,-0.14086 -2.5e-4,-0.3067 0.0231,-0.44683 0.0906,-0.54274 0.35215,-1.5056 0.47378,-1.97523 0.0184,-0.0675 0.0786,-0.23796 0.10468,-0.33333 0.15422,-0.0364 0.33824,-0.0731 0.45784,-0.1053 z m 128.75848,-20.66508 c -0.52566,0.13007 -1.05962,0.25175 -1.58457,0.38131 -0.12546,0.0329 -0.23898,0.0877 -0.36033,0.12122 l 0.22318,1.38843 c 0.35666,-0.0933 0.70459,-0.19986 1.06005,-0.297 -0.33848,0.18336 -0.68779,0.37438 -1.01541,0.57468 l 0.48603,3.02369 c 0.008,-0.004 0.022,-5e-4 0.0309,-0.005 0.0806,-0.004 0.21696,0.0187 0.16419,0.0369 -0.0419,0.0148 -0.11191,0.0422 -0.18016,0.0607 l 0.0446,0.27769 c 0.45482,-0.34858 0.91167,-0.70068 1.34708,-1.07111 0.0688,-0.0338 0.13694,-0.0633 0.20606,-0.0964 0.0925,-0.006 0.18642,-0.0123 0.28265,-0.0137 l -0.70425,-4.38126 z m -120.44718,19.99379 c -0.12049,0.11437 -0.0983,0.3077 -0.14654,0.46667 -0.0501,0.16498 -0.15042,0.50916 -0.2413,0.86172 -0.25372,0.23453 -0.49471,0.47533 -0.73883,0.72013 0.0237,0.0932 0.0578,0.17851 0.0755,0.27272 -0.0395,0.0235 -0.0721,0.062 -0.1135,0.0815 -0.0992,0.0468 -0.0157,-0.22792 0.007,-0.34931 0.26954,-0.49936 0.59697,-1.05293 0.26443,-1.30855 0.29392,-0.25648 0.59066,-0.50074 0.8931,-0.74493 z m 98.31116,-14.94803 c 0.12271,-0.0585 -0.0578,0.26427 -0.0948,0.39505 -0.007,-0.045 -0.036,-0.11003 -0.0248,-0.15427 0.016,-0.0625 0.0697,-0.13498 0.0937,-0.20497 0.0125,-0.007 0.0131,-0.0296 0.0259,-0.0359 z m -121.2323,19.83513 c -0.0788,0.0357 -0.0689,0.0444 -0.17521,0.0915 -0.23277,0.10315 -0.46963,0.22235 -0.71073,0.30415 -0.0361,0.0119 -0.031,-0.001 -0.0617,0.01 l 0.36204,2.25234 c 0.12465,-0.0507 0.25264,-0.10331 0.38623,-0.15699 -0.11567,0.12712 -0.23169,0.24977 -0.35151,0.37301 l 0.29757,1.85124 c 0.25714,-0.24106 0.5193,-0.47694 0.76968,-0.72509 0.012,-0.0121 0.0609,-0.07 0.10855,-0.11235 l -0.0843,-0.52452 c -0.0324,-0.0144 -0.0727,-0.0293 -0.10248,-0.0468 -1.13022,0.0988 0.37613,-0.0278 -0.61708,0.0992 0.0955,-0.0583 0.16924,-0.15016 0.24793,-0.22976 0.13235,-0.13387 0.24713,-0.27291 0.3774,-0.40882 l -0.24798,-1.5427 c 0.004,-0.005 -0.009,-0.0264 -0.005,-0.0309 l -0.19342,-1.20331 z m 70.64838,-11.00791 c 0.0138,0.0547 0.0421,0.0933 0.0557,0.14931 0.0115,-0.0549 0.0268,-0.10808 0.0369,-0.16419 l -0.0925,0.0149 z m 61.07483,-9.72231 0.43643,2.71515 0.3394,-0.0546 c 0.26982,-0.11458 0.53669,-0.26427 0.73663,-0.33997 0.0699,-0.0399 -0.10586,0.0405 -0.14435,0.0865 -0.0411,0.0491 -0.0696,0.11659 -0.0986,0.1741 l 1.85124,-0.29757 -0.26782,-1.66611 c -0.31401,0.17773 -0.92392,0.57838 -1.11183,0.36863 -0.0641,-0.0715 -0.0699,-0.17893 -0.10635,-0.26777 -0.005,-0.0675 -0.0166,-0.21905 -0.0187,-0.31351 0.36786,-0.20626 0.73804,-0.43021 1.09806,-0.65127 l -0.0298,-0.18512 -2.68429,0.43147 z m -13.98452,3.57723 c -0.0918,0.144 -0.1906,0.27925 -0.27988,0.4248 -0.0823,0.13416 -0.22105,0.26498 -0.24902,0.41985 -0.0183,0.10088 0.0639,0.17083 0.10634,0.26776 0.014,-0.002 0.0257,-0.0182 0.0309,-0.005 0.0281,0.0737 0.051,0.13355 0.0656,0.21102 -0.003,0.0658 -0.0274,0.13047 -0.0319,0.19504 l 0.58623,-0.0942 -0.22814,-1.41928 z m -102.36347,16.51728 c -0.0411,0.0386 -0.0524,0.11725 -0.10855,0.11235 -0.0215,-0.002 -0.0272,-0.006 -0.0358,-0.0259 0.0542,-0.0433 0.0854,-0.0398 0.14435,-0.0865 z m 128.84117,-18.96916 c -0.1495,0.0883 -0.30898,0.1392 -0.43305,0.25952 -0.048,0.0465 -0.0867,0.10135 -0.13443,0.14821 -0.39814,0.2971 -0.75748,0.63969 -1.19887,1.20555 l 0.15374,0.95647 c 0.17917,-0.093 0.3441,-0.20725 0.52066,-0.30525 0.0839,0.0162 0.17353,0.0408 0.23084,0.0578 -0.11531,0.12609 -0.0875,0.0905 -0.24297,0.26061 -0.14994,0.16412 -0.30955,0.32177 -0.46004,0.48541 0.0518,0.42618 0.0528,0.83905 -0.0226,1.23802 0.15262,-0.12389 0.29229,-0.26302 0.44407,-0.38789 -0.10483,0.11835 -0.19832,0.23688 -0.2898,0.36309 -0.0476,0.0345 -0.0961,0.0537 -0.14435,0.0865 0.0114,0.003 0.0581,0.0432 0.0716,0.0518 -0.0378,0.0575 -0.0648,0.11418 -0.0986,0.17411 -0.0212,0.0195 -0.0304,0.0523 -0.0518,0.0716 -0.41178,1.44028 -1.62208,2.57127 -3.21701,2.82764 l -5.12176,0.82328 c 0.26439,0.16 0.56801,0.35093 0.77302,0.47711 -0.0885,0.58439 -0.21379,1.13507 -0.27049,1.46778 l 4.93663,-0.79352 c 3.18338,-0.51169 5.3901,-3.45608 5.01142,-6.62934 -0.0331,-0.0283 -0.0759,-0.0551 -0.10739,-0.0777 0.0349,-0.0147 0.0537,-0.0317 0.0875,-0.0458 -0.006,-0.0406 -0.0133,-0.0827 -0.0198,-0.12342 l -0.4166,-2.59173 z m -143.43775,24.44894 c -0.0623,0.0278 -0.15733,0.0521 -0.18016,0.0607 -0.2646,0.0903 -0.51247,0.21096 -0.77244,0.31407 l 0.36204,2.25234 0.12894,0.8022 c 0.11724,-0.0532 0.23831,-0.12044 0.26282,-0.13714 0.0581,-0.0397 0.0912,-0.066 0.1394,-0.11731 -0.0245,0.0663 -0.038,0.13381 -0.0628,0.2 -0.0872,0.1443 -0.18919,0.28329 -0.27988,0.4248 l 0.40668,2.53002 c 0.0168,0.10442 0.0581,0.20156 0.0804,0.30358 0.16533,-0.0846 0.32071,-0.17349 0.43305,-0.25951 -0.0198,0.12198 -0.0497,0.23719 -0.0689,0.35923 -0.0953,0.38632 -0.11929,0.4916 -0.1526,0.6259 0.004,0.01 0.001,0.0211 0.005,0.0309 0.22706,0.60116 0.55255,1.14573 0.95652,1.61872 0.25619,-0.20832 0.50476,-0.41615 0.71293,-0.68432 -0.49431,-0.59865 -0.84602,-1.32511 -0.97915,-2.15335 l -0.9919,-6.17079 z m 1.97102,8.32394 c -0.0697,0.41805 -0.14281,0.81888 -0.21264,1.23692 0.38774,0.34648 0.84036,0.64028 1.31021,0.86554 0.0744,-0.0427 0.13755,-0.0791 0.20111,-0.12723 -0.0165,0.0652 -0.0141,0.12476 -0.0319,0.19504 0.93561,0.41095 1.98566,0.56706 3.06999,0.39276 l 2.15978,-0.34716 c 0.15491,-0.11555 0.30021,-0.23436 0.44902,-0.35704 -0.003,0.0265 -0.009,0.11292 -0.011,0.12837 -0.006,0.0529 -0.0279,0.1114 -0.0369,0.16419 l 0.40111,-0.0645 c 0.0733,-0.12519 0.10397,-0.30422 0.19833,-0.5383 0.003,-0.009 -0.008,-0.0227 -0.005,-0.0309 0.12212,0.009 0.23804,0.0318 0.35426,0.038 -0.0962,0.16664 -0.20451,0.32545 -0.30081,0.49147 l 4.07272,-0.65466 c 0.005,-0.0371 0.002,-0.12877 0.006,-0.15923 0.0437,-0.29598 0.069,-0.57677 0.11292,-0.87273 l -7.55921,1.21508 c -0.25499,0.041 -0.50114,0.0588 -0.75042,0.0573 -0.10948,0.0824 -0.24649,0.17166 -0.34049,0.24463 0.0183,-0.0885 0.0338,-0.17334 0.0529,-0.26171 -1.24259,-0.0865 -2.37146,-0.68538 -3.13999,-1.6159 z m 3.71826,-7.78248 c -0.65155,0.346 -1.1835,0.86336 -1.67269,1.40831 0.11003,0.2764 0.23343,0.54058 0.38073,0.79338 0.0788,-0.0943 0.17786,-0.18655 0.26887,-0.29643 -0.0216,0.20293 -0.033,0.40874 -0.06,0.61102 0.71127,1.05747 1.74431,1.87807 2.9356,2.31343 0.19362,-0.14626 0.37048,-0.31458 0.55757,-0.46943 -0.0349,0.20444 -0.0564,0.41145 -0.0909,0.61598 0.79739,0.21728 1.65456,0.27211 2.52177,0.13271 l 4.50468,-0.72408 c 0.18256,-0.32415 0.36941,-0.67164 0.11183,-0.68265 -0.046,-0.002 -0.0792,0.0198 -0.12342,0.0198 0.0352,-0.076 0.0537,-0.15982 0.0887,-0.23582 -0.0717,0.059 -0.1297,0.10481 -0.19614,0.15814 0.0271,-0.0353 0.0491,-0.0738 0.0777,-0.1074 0.0264,-0.0311 0.0623,-0.013 0.11845,-0.0507 0.0411,-0.0892 0.0736,-0.18241 0.11459,-0.27163 0.42488,-0.23659 0.74178,-0.41374 0.9796,-0.60057 -0.17432,0.55352 -0.35034,1.11279 -0.52337,1.66668 l 1.48099,-0.23805 c 0.001,-0.004 0.0297,-7.2e-4 0.0308,-0.005 0.0597,-0.21627 0.13756,-0.51682 0.17849,-0.66172 0.13742,-0.4865 0.28759,-0.97662 0.42972,-1.46172 l -3.60991,0.58026 c -0.26605,0.60679 -0.53307,1.21069 -0.81704,1.80884 -0.0937,0.0856 -0.19197,0.16731 -0.27382,0.26557 0.004,-0.2498 -0.01,-0.51114 -0.0573,-0.75041 0.22899,-0.27506 0.52962,-0.74422 0.87049,-1.27937 l -1.29586,0.2083 c -0.19583,0.29464 -0.38076,0.59624 -0.58566,0.88542 0.0528,-0.28464 0.14532,-0.55998 0.24626,-0.83086 l -2.06721,0.33228 c -2.14102,0.34415 -4.08647,-1.03594 -4.52351,-3.13432 z m 11.50537,4.03773 1.78953,-0.28765 c 0.12772,-0.32849 0.42698,-0.89652 0.1537,-0.81599 -1.18993,0.35072 -1.64735,0.64838 -1.94323,1.10364 z m -16.81711,0.32936 c -0.18288,0.18674 -0.32228,0.29572 -0.36639,0.28045 0.12025,-0.0965 0.2466,-0.18339 0.36639,-0.28045 z m 19.89364,-2.84956 c -0.20074,0.40972 -0.39113,0.82548 -0.59281,1.23473 -0.15898,0.32261 -0.31897,0.64062 -0.47821,0.9631 l 1.26501,-0.20334 c 0.10317,-0.20681 0.20816,-0.41328 0.31183,-0.61984 0.0378,0.19253 0.087,0.3803 0.12012,0.55041 l 5.8314,-0.93735 c 0.0545,-0.44249 0.11875,-0.87473 0.13605,-1.31956 0.20165,0.006 0.4044,0.0231 0.60607,0.0292 -0.0848,0.40634 -0.19352,0.80913 -0.27931,1.21599 l 2.15977,-0.34716 c 0.26873,-0.26021 0.52848,-0.52672 0.79062,-0.79176 0.26301,0.008 0.52816,-0.008 0.79119,-5.7e-4 -0.22567,0.13178 -0.45387,0.25758 -0.67493,0.33004 -0.0329,0.20306 -0.0548,0.2523 -0.0738,0.32838 l 23.47985,-3.77417 c 0.004,-0.1896 -0.003,-0.38059 0.003,-0.57025 0.12452,-0.0513 0.23113,-0.10045 0.35538,-0.15202 -0.0286,0.22868 -0.081,0.45423 -0.11183,0.68265 l 14.40879,-2.31608 c 0.0429,-0.35455 0.068,-0.70864 0.11403,-1.06282 0.0406,-0.33155 0.0828,-0.66962 0.12394,-1.00111 l -4.16528,0.66953 c -0.009,0.0406 -0.0315,0.0885 -0.0419,0.13334 0.004,-0.0429 0.007,-0.0855 0.011,-0.12838 l -2.53002,0.40668 c -0.11769,0.42127 -0.2406,0.84302 -0.36691,1.26172 0.008,-0.40239 0.0147,-0.80492 0.0275,-1.20716 l -5.15261,0.82823 c -0.0184,0.0642 -0.0436,0.13292 -0.0628,0.2 -0.0492,0.02 -0.0999,0.0357 -0.1493,0.0557 0.009,-0.0755 0.0176,-0.15036 0.027,-0.22589 l -2.00551,0.32236 c -0.0171,0.23167 -0.0192,0.47269 -0.0452,0.70359 -0.13992,0.0538 -0.27742,0.10891 -0.41708,0.16194 4.8e-4,-0.0102 -0.005,-0.0206 -0.005,-0.0309 0.01,-0.2211 0.11275,-0.5268 0.18951,-0.79009 l -2.37575,0.38188 c -0.0522,0.21663 -0.0967,0.43963 -0.14765,0.65675 0.005,-0.076 0.0222,-0.1499 0.027,-0.22589 0.0121,-0.13874 0.0164,-0.2772 0.0281,-0.41598 l -5.24517,0.84311 c -0.10398,0.68152 -0.23625,1.34369 -0.3713,2.02205 -0.10197,0.0174 -0.20671,0.0312 -0.30854,0.0496 0.0128,-0.65529 0.0248,-1.31363 0.0319,-1.9675 l -2.65344,0.42652 c -0.002,0.009 0.007,0.0214 0.005,0.0309 -0.048,0.0381 -0.0908,0.0797 -0.13939,0.11731 -0.59288,0.18473 -1.13677,0.69479 -1.71128,0.9714 -0.11743,0.31695 -0.20916,0.64877 -0.31898,0.96915 -0.3069,0.012 -0.60783,0.0147 -0.91461,0.0204 0.0176,-0.17186 0.0293,-0.34137 0.0441,-0.5135 0.0317,-0.37008 0.43233,-1.03073 0.13496,-1.12948 l -3.42479,0.5505 c -0.15752,0.21009 -0.0731,0.54573 -0.12284,0.81103 -0.0326,0.13698 -0.0562,0.14979 -0.0837,0.26666 -0.0409,-5.1e-4 -0.0825,0.0204 -0.12342,0.0198 0.0382,-0.35482 0.0765,-0.70795 0.11403,-1.06281 l -4.07272,0.65465 c -0.0444,0.0958 -0.0953,0.19351 -0.10964,0.30248 -0.23317,-0.008 -0.46547,-0.005 -0.69862,-0.0143 0.0534,-0.0608 0.10752,-0.12259 0.16032,-0.18403 l -11.3234,1.82013 z m 48.62581,-7.81615 c -0.0348,0.19689 -0.0495,0.40515 -0.0909,0.61598 -0.0837,0.42622 -0.18033,0.85257 -0.26939,1.2777 -0.0168,0.0677 -0.0461,0.13228 -0.0627,0.19999 l 4.04186,-0.64969 c 0.0775,-0.69193 0.17247,-1.3791 0.26882,-2.06888 l -3.8876,0.62489 z m 4.47383,-0.71913 c -0.17596,0.64468 -0.36193,1.28087 -0.54541,1.92344 -0.0189,0.0663 -0.0436,0.13371 -0.0628,0.19999 l 16.32174,-2.62356 c 0.0202,-0.68153 0.0535,-1.35794 0.0837,-2.03913 l -8.48484,1.36386 c -0.0603,0.22217 -0.13431,0.43886 -0.18345,0.63086 -0.0589,0.23026 -0.11666,0.46178 -0.17354,0.69257 0.0372,-0.4283 0.0728,-0.85548 0.11016,-1.28376 l -4.53553,0.72905 c -0.0253,0.0887 -0.0586,0.17788 -0.0837,0.26667 0.006,-0.0853 0.016,-0.17141 0.022,-0.25675 l -2.46831,0.39676 z m 16.476,-2.64836 c -0.0258,0.0808 -0.0618,0.15004 -0.0887,0.23581 -0.16408,0.63183 -0.31824,1.25259 -0.48865,1.88267 l 3.85674,-0.61994 c 0.0651,-0.6877 0.15192,-1.37854 0.23796,-2.06392 l -3.51735,0.56538 z m 4.13443,-0.66457 c -0.13836,0.6953 -0.24907,1.39399 -0.39223,2.08872 l 5.30688,-0.85303 c 0.0742,-0.69125 0.1765,-1.37993 0.26882,-2.06889 l -5.18347,0.8332 z m 5.46115,-0.87783 c -0.01,0.055 -0.0272,0.10918 -0.0369,0.16419 -0.13773,0.64406 -0.27582,1.29125 -0.41703,1.93445 l 2.46831,-0.39676 c 0.0328,-0.52925 0.0543,-1.14458 0.11346,-1.854 0.13383,-0.0763 0.27803,-0.17402 0.37134,-0.2496 l -2.49917,0.40172 z m 3.11625,-0.50091 c 0.003,0.0199 0.008,0.0417 0.01,0.0617 -0.0645,0.32753 -0.11423,0.65524 -0.19061,0.98017 -0.0832,0.35389 -0.18313,0.70455 -0.27325,1.05676 l 2.19063,-0.35212 c 0.0759,-0.57642 0.17141,-1.14526 0.26166,-1.71957 0.38352,0.33562 0.49788,1.01831 0.76753,1.42753 0.0191,0.0274 0.0348,0.0796 0.0507,0.11845 l 22.3074,-3.58571 c 0.0278,-0.44696 0.0705,-0.8818 0.1052,-1.31461 0.20589,-0.16591 0.40918,-0.34338 0.61431,-0.51021 -0.1401,0.67984 -0.26424,1.21814 -0.38012,1.77026 l 5.18346,-0.83319 c 0.003,-0.3063 -0.0183,-0.5085 -0.009,-1.04298 0.005,-0.29515 0.19107,-0.70853 0.2165,-1.01598 l -2.37575,0.38188 c -0.0507,0.28701 -0.068,0.60049 -0.10796,0.90358 -0.026,0.18374 -0.0438,0.36555 -0.07,0.54932 0.004,-0.47478 0.0128,-0.95345 0.0237,-1.42811 l -2.77685,0.44636 c -0.0948,0.081 -0.19618,0.16363 -0.27879,0.23472 0.0106,-0.065 0.0213,-0.12998 0.0319,-0.19505 l -2.93112,0.47116 c -0.0108,0.0798 -0.0155,0.13751 -0.027,0.22589 -0.0362,0.27852 -0.0861,0.55605 -0.087,0.83692 1.9e-4,0.0264 0.0143,0.0634 0.0149,0.0925 -0.28353,0.18603 -0.54838,0.39477 -0.83525,0.51408 -0.005,0.0331 -0.0105,0.0643 -0.016,0.0975 -0.0675,-0.18474 -0.12964,-0.368 -0.20772,-0.50468 -0.0953,-0.16677 -0.21489,-0.52749 -0.38789,-0.44407 -0.11367,0.0548 -0.162,0.0876 -0.26282,0.13715 5.3e-4,-0.0282 -0.0105,-0.0215 -0.0617,0.01 -0.0479,0.0294 -0.0966,0.0566 -0.14435,0.0865 -0.0122,0.006 -0.0139,0.0298 -0.0259,0.0359 0.0401,-0.26148 0.0882,-0.51799 0.1278,-0.78017 l -1.85124,0.29757 c -0.0145,0.0868 -0.0382,0.17498 -0.0528,0.2617 -0.3379,0.29346 -0.68155,0.57375 -0.99668,0.88818 0.012,-0.0952 0.005,-0.19238 0.0171,-0.2876 0.0517,-0.33388 0.0907,-0.48898 0.13772,-0.71846 l -9.62643,1.54736 c -0.0735,0.27564 -0.14013,0.55067 -0.21541,0.8259 0.0189,-0.26445 0.0104,-0.53177 0.0303,-0.79615 l -7.89861,1.26963 z m 36.46827,-5.67203 c 0.12657,0.028 0.26747,0.0773 0.36419,0.0997 -0.0221,0.15905 -0.0262,0.32323 -0.049,0.48264 -0.10941,0.0766 -0.19763,0.14235 -0.28374,0.20387 -0.0136,-0.25962 -0.0163,-0.52673 -0.0315,-0.78622 z m -114.70505,18.50108 c 0.31898,0.0113 0.63639,0.0267 0.95537,0.0363 -0.13267,0.13917 -0.28476,0.24329 -0.41321,0.38293 -0.0458,0.0334 -0.0979,0.0538 -0.14435,0.0865 -0.1946,0.0741 -0.37949,0.16545 -0.55647,0.27936 0.051,-0.2611 0.10692,-0.52418 0.15866,-0.78513 z m 4.962,0.15194 c 0.0409,0.002 0.0825,-0.0214 0.12341,-0.0198 -0.0455,0.05 -0.0887,0.0985 -0.13443,0.14821 0.007,-0.0378 0.004,-0.0883 0.011,-0.12837 z m -14.74257,6.73758 c -0.006,0.0213 -0.0111,0.0784 -0.016,0.0975 -0.082,0.31942 -0.12945,0.62622 -0.19557,0.94932 l 1.04904,-0.16863 c 0.0205,-0.0134 0.0363,-0.0273 0.0567,-0.0408 0.0454,-0.0124 0.11235,-0.013 0.15427,-0.0248 -0.005,0.0134 -0.0209,0.0224 -0.0259,0.0359 l 3.51735,-0.56539 c 0.0611,-0.34492 0.11076,-0.69221 0.14983,-1.03692 l -4.6898,0.75385 z m 5.61542,-0.90262 c -0.0515,0.15627 -0.0946,0.31049 -0.14655,0.46667 0.29821,-0.30393 0.37112,-0.31765 0.34545,-0.21378 -0.01,0.0228 -0.0112,0.0437 -0.0209,0.0667 -0.003,0.009 -0.0221,0.0265 -0.0259,0.0359 -0.33131,0.26203 -0.658,0.51436 -0.98069,0.79066 l 1.91294,-0.30749 c 0.018,-0.0143 0.0389,-0.0263 0.0567,-0.0408 -0.002,0.009 0.006,0.021 0.005,0.0309 l 7.15812,-1.1506 c 0.0462,-0.36892 0.0687,-0.67677 0.11898,-1.03196 l -2.22149,0.35708 c -0.0307,0.12244 -0.0683,0.24197 -0.0997,0.36419 0.0135,-0.11707 0.024,-0.23724 0.038,-0.35427 l -6.13993,0.98694 z m 8.88594,-1.42833 c -0.11724,0.35626 -0.24206,0.7176 -0.36582,1.07163 l 4.53553,-0.72904 c 0.0815,-0.25924 0.16603,-0.63752 0.27325,-1.05676 l -4.44296,0.71417 z m 4.93663,-0.79352 c -0.0294,0.33844 -0.0346,0.68322 -0.0573,1.02204 l 2.22148,-0.35708 c -0.0104,-0.0122 -0.0255,-0.0141 -0.0358,-0.0259 0.13304,-0.0926 0.39928,-0.31968 0.58842,-0.47439 0.4151,-0.14553 0.7198,-0.26958 0.82919,-0.35485 -0.0239,0.21986 -0.0655,0.4268 -0.0859,0.64684 l 5.36859,-0.86295 c 0.0208,-0.15294 0.0471,-0.31395 0.0848,-0.45675 0.053,-0.20056 0.10629,-0.39404 0.15756,-0.59505 l -9.07106,1.45809 z m 9.62643,-1.54736 c 0.001,0.0637 -0.003,0.12632 -0.001,0.19008 0.006,0.27136 0.0115,0.54683 0.0364,0.81708 l 1.66611,-0.26781 c 0.19056,-0.18641 0.3605,-0.36879 0.54269,-0.562 -0.0502,-0.0202 -0.0871,-0.0478 -0.1124,-0.10854 0.10228,-0.0814 0.21432,-0.15878 0.31459,-0.20882 -0.0222,0.0462 -0.024,0.1019 -0.0369,0.16419 0.0678,-0.0749 0.11602,-0.17364 0.18127,-0.2507 -0.007,0.2059 -0.015,0.504 -0.0253,0.827 l 5.39944,-0.86791 c 0.0543,-0.23234 0.12134,-0.45955 0.17353,-0.69256 -1.7e-4,0.22284 -0.019,0.44492 -0.0193,0.66777 l 4.59724,-0.73897 c 0.13078,-0.0363 0.26451,-0.0624 0.39613,-0.0954 1.1e-4,0.0107 0.005,0.0204 0.005,0.0309 l 1.32672,-0.21326 c 0.041,-0.0412 0.0651,-0.0676 0.10855,-0.11235 0.29976,-0.0315 0.57323,-0.0571 0.86391,-0.13886 0.004,0.0316 0.0151,0.0629 0.0149,0.0925 l 13.85339,-2.22677 c 0.044,-0.1759 0.0792,-0.36158 0.13662,-0.52838 0.0915,-0.26587 0.10165,-0.33903 0.16748,-0.53334 l -13.3289,2.1425 c -0.59218,0.38837 -0.30089,0.13506 -0.15427,0.0248 l -16.10576,2.58885 z m 2.24409,0.17735 c 0.012,0.005 0.022,0.0248 0.0358,0.0259 0.0638,0.005 0.0849,-0.0699 0.10357,-0.14326 -0.0421,0.0461 -0.0965,0.0719 -0.13939,0.11731 z m 27.71509,-4.99301 c -0.0386,0.39534 -0.0546,0.74453 -0.0573,1.02204 l 0.83306,-0.13391 c 0.37566,-0.29619 0.74317,-0.57846 1.08924,-0.90306 0.0768,-0.0537 0.14868,-0.12234 0.22699,-0.16309 -0.0355,-0.0144 -0.0421,-0.0108 -0.0667,-0.021 0.046,-0.0463 0.0899,-0.10045 0.13443,-0.14822 l -2.15978,0.34717 z m 2.86942,-0.46123 c -0.0174,0.34004 -0.0373,0.68213 -0.0573,1.02204 l 4.22699,-0.67945 c 0.0204,-0.0963 0.0271,-0.1964 0.0479,-0.29256 0.068,-0.31272 0.10412,-0.48916 0.16362,-0.75427 l -4.38126,0.70424 z m 4.7515,-0.76377 c -0.0219,0.33981 -0.0312,0.68253 -0.0573,1.02205 l 4.19614,-0.67449 c 0.008,-0.12042 0.0142,-0.24123 0.0379,-0.35427 0.008,-0.0372 0.0183,9e-5 0.0259,-0.0359 0.59384,-0.3547 1.0289,-0.64408 1.32009,-0.84521 l -5.52285,0.88775 z m 5.98567,-0.96214 c -0.004,0.35184 -0.0161,0.73736 -5.3e-4,0.98127 6.4e-4,0.01 0.004,0.0209 0.005,0.0309 l 1.91295,-0.30749 c 0.13696,-0.17445 0.2711,-0.36438 0.38345,-0.56806 -0.0199,0.17125 -0.0244,0.34234 -0.0441,0.5135 l 14.37794,-2.31112 c 0.11817,-0.0756 0.22202,-0.16945 0.34049,-0.24463 -0.0212,0.0666 -0.0413,0.13346 -0.0628,0.19999 l 1.5427,-0.24797 c 0.094,-0.31785 0.16479,-0.64093 0.25728,-0.95924 0.0592,-0.0306 0.11277,-0.0614 0.1752,-0.0915 -0.001,0.0113 -0.0199,0.0569 -0.021,0.0667 -0.0327,0.31169 -0.0787,0.62207 -0.10301,0.93444 l 4.41211,-0.70921 c -0.0481,-0.32429 -0.12007,-0.63041 -0.18464,-0.9515 0.0188,-0.0132 0.0391,-0.0281 0.0567,-0.0408 l -5.76969,0.92742 c -0.19078,0.12526 -0.38178,0.25144 -0.57244,0.37688 0.009,-0.096 0.008,-0.19165 0.0171,-0.28761 l -16.72284,2.68804 z m 23.97352,-3.85352 c -0.0474,0.41376 -0.0846,0.70915 -0.11899,1.03197 l 8.45398,-1.3589 c 0.0125,-0.14093 0.0462,-0.28004 0.059,-0.42094 0.025,-0.0347 0.0534,-0.0702 0.0776,-0.10739 0.007,0.007 0.0289,0.02 0.0359,0.0259 -0.0506,0.1693 -0.12105,0.33345 -0.17244,0.50248 l 2.90027,-0.46619 c 0.0367,-0.37539 0.0903,-0.74045 0.11898,-1.03196 l -6.13993,0.98694 c -0.0171,0.22335 -0.0324,0.44942 -0.0501,0.67273 -0.0544,0.0391 -0.11119,0.0812 -0.17026,0.12227 -0.062,-0.2265 -0.16149,-0.44704 -0.29423,-0.64903 -0.46895,0.29974 -0.93714,0.59356 -1.40769,0.89095 0.0174,-0.10828 0.009,-0.20429 0.0121,-0.31846 0.20774,-0.16895 0.41602,-0.32947 0.61431,-0.51021 l -3.91845,0.62985 z m 11.75535,-1.88956 c -0.10417,0.35669 -0.22593,0.71142 -0.33496,1.06668 l 5.0909,-0.81832 c 5.5e-4,-0.009 -0.006,-0.0217 -0.005,-0.0309 0.15784,-0.0973 0.30137,-0.19555 0.44297,-0.19781 0.009,-4.4e-4 0.003,0.021 0.005,0.0309 0.21924,-0.27904 0.4376,-0.55638 0.62147,-0.85952 0.0271,-0.0447 0.0499,-0.0919 0.0727,-0.13828 l -5.8931,0.94726 z m 6.10908,-0.98198 c -10e-4,0.22071 0.0128,0.44211 0.0116,0.6628 2.6e-4,0.0205 -0.006,0.25735 -0.007,0.34932 l 7.4358,-1.19524 c 0.0628,-0.0725 0.12639,-0.14489 0.18623,-0.21984 0.19557,-0.24496 0.25991,-0.54968 0.303,-0.87163 l -3.67162,0.59017 -4.25784,0.68441 z m -104.43564,16.81876 c -0.0282,0.25739 -0.0359,0.51307 -0.0661,0.77026 -0.0507,-0.0183 -0.1125,-0.0214 -0.16419,-0.0369 0.0874,-0.25294 0.13639,-0.45542 0.23029,-0.73335 z m 64.85996,-10.39393 c 0.0237,-0.0465 -0.004,0.0403 -0.0948,0.39504 -0.0139,-0.0357 -0.0347,-0.0833 -0.0507,-0.11845 0.0575,-0.10769 0.13028,-0.24686 0.14545,-0.27658 z m 38.67049,-5.36134 c -0.0322,0.0408 -0.0757,0.0719 -0.10855,0.11235 l 0.0617,-0.01 c 0.0176,-0.0412 0.041,-0.0743 0.0468,-0.10243 z"
       id="path3767"
       inkscape:connector-curvature="0" />
  </g>
</svg>
