<?xml version="1.0" encoding="UTF-8" standalone="no"?>
<!-- Created with Inkscape (http://www.inkscape.org/) -->

<svg
   xmlns:dc="http://purl.org/dc/elements/1.1/"
   xmlns:cc="http://creativecommons.org/ns#"
   xmlns:rdf="http://www.w3.org/1999/02/22-rdf-syntax-ns#"
   xmlns:svg="http://www.w3.org/2000/svg"
   xmlns="http://www.w3.org/2000/svg"
   xmlns:xlink="http://www.w3.org/1999/xlink"
   xmlns:sodipodi="http://sodipodi.sourceforge.net/DTD/sodipodi-0.dtd"
   xmlns:inkscape="http://www.inkscape.org/namespaces/inkscape"
   width="210mm"
   height="297mm"
   id="svg2"
   version="1.1"
   inkscape:version="0.48.5 r10040"
   sodipodi:docname="VuEn6e.svg"
   inkscape:export-filename="/home/sverdan/Travail/01 Cours/09_fiche_MITIC/5e/images/generales/VuEn6e.png"
   inkscape:export-xdpi="150"
   inkscape:export-ydpi="150">
  <defs
     id="defs4">
    <linearGradient
       inkscape:collect="always"
       id="linearGradient3941">
      <stop
         style="stop-color:#d40000;stop-opacity:1;"
         offset="0"
         id="stop3943" />
      <stop
         style="stop-color:#d40000;stop-opacity:0;"
         offset="1"
         id="stop3945" />
    </linearGradient>
    <linearGradient
       inkscape:collect="always"
       xlink:href="#linearGradient3941"
       id="linearGradient3947"
       x1="71.120148"
       y1="29.173613"
       x2="165.44792"
       y2="84.0355"
       gradientUnits="userSpaceOnUse" />
    <linearGradient
       inkscape:collect="always"
       xlink:href="#linearGradient3941"
       id="linearGradient3949"
       gradientUnits="userSpaceOnUse"
       x1="71.120148"
       y1="29.173613"
       x2="165.44792"
       y2="84.0355" />
  </defs>
  <sodipodi:namedview
     id="base"
     pagecolor="#ffffff"
     bordercolor="#666666"
     borderopacity="1.0"
     inkscape:pageopacity="0.0"
     inkscape:pageshadow="2"
     inkscape:zoom="5.6"
     inkscape:cx="100.9231"
     inkscape:cy="958.04937"
     inkscape:document-units="px"
     inkscape:current-layer="layer1"
     showgrid="true"
     inkscape:snap-grids="true"
     inkscape:snap-to-guides="false"
     inkscape:window-width="1280"
     inkscape:window-height="976"
     inkscape:window-x="0"
     inkscape:window-y="24"
     inkscape:window-maximized="1">
    <inkscape:grid
       type="xygrid"
       id="grid2985"
       empspacing="5"
       visible="true"
       enabled="true"
       snapvisiblegridlinesonly="true" />
  </sodipodi:namedview>
  <metadata
     id="metadata7">
    <rdf:RDF>
      <cc:Work
         rdf:about="">
        <dc:format>image/svg+xml</dc:format>
        <dc:type
           rdf:resource="http://purl.org/dc/dcmitype/StillImage" />
        <dc:title />
      </cc:Work>
    </rdf:RDF>
  </metadata>
  <g
     inkscape:label="Calque 1"
     inkscape:groupmode="layer"
     id="layer1">
    <g
       transform="matrix(0.93124855,-0.20765541,0.22810637,1.0229627,-8.5775702,21.871557)"
       style="font-size:18.41736603px;font-style:normal;font-variant:normal;font-weight:bold;font-stretch:normal;line-height:125%;letter-spacing:0px;word-spacing:0px;fill:url(#linearGradient3947);fill-opacity:1;stroke:none;font-family:Arial;-inkscape-font-specification:Arial Bold"
       id="text2987">
      <path
         style="fill:url(#linearGradient3949);fill-opacity:1;stroke:none"
         d="m 55.9375,31.875 c -0.595643,0 -1.171447,0.06764 -1.71875,0.21875 -0.448592,0.59998 -0.90534,1.193183 -1.40625,1.75 0.878366,-0.608202 1.966847,-0.96875 3.125,-0.96875 l 0.3125,0 c 0.0042,-0.0058 0.02705,0.0058 0.03125,0 0.277428,-0.3837 0.417017,-0.621538 0.6875,-1 l -1.03125,0 z m 0.34375,1 2.40625,0 c 0.03128,-0.04154 0.06253,-0.08341 0.09375,-0.125 0.105016,-0.143939 0.206901,-0.293981 0.3125,-0.4375 0.135718,-0.145624 0.271089,-0.29134 0.40625,-0.4375 l -2.5,0 c -0.01514,0.02159 -0.01564,0.04058 -0.03125,0.0625 -0.223231,0.316363 -0.458401,0.625414 -0.6875,0.9375 z m 4.28125,-1 c -0.425095,0.166591 -0.837278,0.336224 -1.25,0.53125 -0.133972,0.06331 -0.16462,0.222646 -0.25,0.34375 -0.02983,0.04231 -0.06399,0.08264 -0.09375,0.125 l 13.625,0 c 0.56206,-0.429723 0.835636,-0.629955 1.3125,-1 l -1.40625,0 c -0.195974,0.148014 -0.401275,0.28982 -0.59375,0.4375 -0.04136,0.03172 -0.08371,0.06193 -0.125,0.09375 0.06803,-0.198588 0.128438,-0.351227 0.1875,-0.53125 l -11.40625,0 z m 14.21875,0 c -0.167847,0.332293 -0.331769,0.667886 -0.5,1 l 3.65625,0 c 0.12903,-0.269981 0.245194,-0.542891 0.375,-0.8125 0.02741,-0.05693 0.08407,-0.126009 0.125,-0.1875 l -3.65625,0 z m 4.625,0 c -0.367466,0.279729 -0.722596,0.606765 -1.15625,1 l 9.34375,0 c 0.07997,-0.28283 0.169857,-0.56097 0.25,-0.84375 0.01141,-0.05109 0.01789,-0.105435 0.03125,-0.15625 l -8.46875,0 z m 9.1875,0 c -0.08724,0.104569 -0.161207,0.206287 -0.25,0.3125 -0.298413,0.356958 -0.351282,0.433807 -0.5625,0.6875 l 1.65625,0 c 0.236033,-0.282666 0.574842,-0.656771 0.875,-1 l -1.71875,0 z m 1.75,0 c -0.103682,0.334653 -0.223891,0.671466 -0.34375,1 l 7.71875,0 c 0.191578,-0.330393 0.369291,-0.670558 0.5625,-1 l -7.9375,0 z m 8.84375,0 c -0.319497,0.357461 -0.651728,0.715937 -0.90625,1 l 1.65625,0 c 0.26269,-0.296159 0.61165,-0.7073 0.875,-1 l -1.625,0 z m 1.875,0 c -0.18037,0.332074 -0.35181,0.667354 -0.53125,1 l 3.53125,0 c 0.15844,-0.332734 0.31284,-0.666102 0.46875,-1 l -3.46875,0 z m 5.5625,0 c -0.12387,0.187552 -0.29344,0.4658 -0.4375,0.6875 -0.1043,0.0619 -0.20806,0.125836 -0.3125,0.1875 -0.13791,0.03801 -0.26839,0.0868 -0.40625,0.125 l 9.375,0 c 0.098,-0.25307 0.19709,-0.492049 0.28125,-0.75 0.0224,-0.06851 0.085,-0.166974 0.125,-0.25 l -3.25,0 c -0.17181,0.155871 -0.34093,0.326188 -0.5,0.5 -0.34823,0.112611 -0.68801,0.249614 -1.03125,0.375 0.14698,-0.303987 0.27615,-0.599397 0.40625,-0.875 l -4.25,0 z m 8.9375,0 c -0.19761,0.331396 -0.39062,0.671844 -0.59375,1 l 17.46875,0 c 0.0928,-0.332791 0.17091,-0.663426 0.25,-1 l -0.28125,0 c -0.0312,0.01031 -0.0625,0.02101 -0.0937,0.03125 0.007,-0.01266 0.0244,-0.01859 0.0313,-0.03125 l -16.78125,0 z m 17.78125,0 c -0.22697,0.325828 -0.42928,0.674166 -0.65625,1 l 1.375,0 c 3.02102,0 5.4375,2.416476 5.4375,5.4375 l 0,3.15625 c 0.25788,-0.08183 0.48357,-0.186671 0.59375,-0.3125 0.0633,-0.02733 0.0907,-0.03461 0.15625,-0.0625 0.0176,-0.0075 0.16407,-0.23134 0.25,-0.34375 l 0,-2.4375 c 0,-1.398631 -0.43115,-2.694695 -1.1875,-3.75 -0.0819,0.02843 -0.1695,0.06907 -0.25,0.09375 0.0485,-0.07941 0.0781,-0.169744 0.125,-0.25 -1.17588,-1.538656 -3.03706,-2.53125 -5.125,-2.53125 l -0.71875,0 z M 107,32.09375 c -0.19536,0.11819 -0.39762,0.226844 -0.59375,0.34375 0.0307,-0.02986 0.0619,-0.06506 0.0937,-0.09375 0.13971,-0.125939 0.66094,-0.34736 0.5,-0.25 z M 52.21875,33.0625 c -1.001537,0.712005 -1.787578,1.7173 -2.25,2.875 0.79214,-0.921197 1.549403,-1.87925 2.25,-2.875 z M 51.4375,35.25 c -0.368356,0.331295 -0.71594,0.679544 -1.09375,1 -0.208521,0.176866 -0.443519,0.32841 -0.65625,0.5 -0.09974,0.40135 -0.16695,0.822738 -0.1875,1.25 0.374713,-0.275538 0.750477,-0.5679 1.125,-0.84375 4.97e-4,-0.0023 0.03075,0.0023 0.03125,0 0.147703,-0.685105 0.40399,-1.346057 0.78125,-1.90625 z M 60,36.375 c -3.306703,0 -6,2.693297 -6,6 l 0,6.78125 c 0.280781,-0.322464 0.563719,-0.645631 0.84375,-0.96875 0.311476,-0.05753 0.625078,-0.112502 0.9375,-0.15625 -0.601208,0.680626 -1.179152,1.382659 -1.78125,2.0625 l 0,4.03125 c 0.135966,-0.134033 0.270527,-0.271955 0.40625,-0.40625 C 54.930649,53.232807 55.463185,52.726874 56,52.25 l 0,-9.375 c -0.351657,0.187607 -0.68275,0.40026 -1.03125,0.59375 0.346353,-0.394982 0.687068,-0.790597 1.03125,-1.1875 0.04763,-2.113219 1.686537,-3.762851 3.78125,-3.875 0.213261,-0.490114 0.461846,-0.965064 0.71875,-1.4375 0.159353,-0.193936 0.31063,-0.398825 0.46875,-0.59375 L 60,36.375 z m 1.40625,0 c -0.396582,0.664399 -0.801543,1.312152 -1.15625,2 l 15.40625,0 c 0.0686,-0.07651 0.149364,-0.138279 0.21875,-0.21875 0.03425,-0.0077 0.06223,0.0069 0.09375,0 0.01949,0.04044 -0.0078,0.120835 -0.0625,0.21875 l 0.3125,0 C 76.362458,38.252765 76.502464,38.133101 76.625,38 c 0.117978,-0.03924 0.199777,-0.125852 0.28125,-0.21875 0.122148,0.112856 0.244445,0.211181 0.34375,0.34375 0.05861,0.07824 0.103949,0.167487 0.15625,0.25 l 9.6875,0 c 0.126474,-0.372762 0.242547,-0.709163 0.375,-1.0625 0.215963,-0.05582 0.407054,-0.133767 0.625,-0.1875 -0.208949,0.416425 -0.415761,0.83444 -0.625,1.25 l 3.78125,0 c 0.356576,-0.625675 0.769638,-1.251591 1.1875,-1.875 0.0949,0.0047 0.187284,0.02046 0.28125,0.03125 -0.229459,0.622135 -0.492279,1.23232 -0.75,1.84375 l 10,0 c 0.003,-0.0048 0.0281,0.0048 0.0313,0 l 7.5625,0 c 0.348,-0.664653 0.68557,-1.334147 1.03125,-2 l -25.6875,0 -3.21875,0 c -0.158722,0.242865 -0.364404,0.510579 -0.5625,0.8125 0.0633,-0.269086 0.123502,-0.543559 0.1875,-0.8125 l -19.90625,0 z m 49.75,0 c -0.14332,0.386229 -0.28418,0.773916 -0.4375,1.15625 -0.13614,0.339469 -0.25541,0.562262 -0.375,0.84375 l 5.09375,0 c 0.3004,-0.560557 0.72005,-1.306179 1.125,-2 l -5.40625,0 z m 5.96875,0 c -0.30513,0.672521 -0.61632,1.335353 -0.9375,2 l 5,0 c 0.17885,-0.299828 0.35212,-0.606587 0.53125,-0.90625 -0.15248,0.306321 -0.31365,0.601185 -0.46875,0.90625 l 2.4375,0 c 0.39042,-0.677252 0.801,-1.338565 1.21875,-2 l -7.78125,0 z m 8.5625,0 c -0.23101,0.624027 -0.50663,1.323891 -0.78125,2 l 5.09375,0 c 2.2333,0 4,1.766703 4,4 l 0,0.46875 c 0.68001,-0.566598 1.24105,-1.409687 1.5,-2.15625 0.0573,-0.05911 0.1322,-0.131132 0.1875,-0.1875 -0.78975,-2.392153 -3.03525,-4.125 -5.6875,-4.125 l -4.3125,0 z M 50.5,38.09375 c -0.330687,0.436786 -0.667472,0.877984 -1,1.3125 L 49.5,44 c 0.333784,-0.385782 0.66669,-0.770017 1,-1.15625 l 0,-4.53125 c 0,-0.0732 -0.0028,-0.146284 0,-0.21875 z m 84.4375,3.1875 c -0.003,0.08231 0.004,0.06676 0,0.1875 -0.0188,-0.05425 -0.0426,-0.102214 -0.0625,-0.15625 0.0172,-0.01838 0.0456,-0.01321 0.0625,-0.03125 z m 0.96875,0.0625 c -0.13975,0.166155 -0.26376,0.331134 -0.40625,0.5 -0.31307,0.371027 -0.65199,0.728049 -0.96875,1.09375 -0.17949,0.174361 -0.35187,0.356777 -0.53125,0.53125 l 0,3 c 0.18397,-0.258228 0.38084,-0.523182 0.5625,-0.78125 0.008,-0.01212 0.0232,-0.01917 0.0313,-0.03125 0.11975,-0.119708 0.22417,-0.255129 0.34375,-0.375 -0.0758,0.157519 -0.13957,0.312786 -0.21875,0.46875 -0.16603,0.32724 -0.32815,0.67577 -0.5,1 -0.0565,0.106585 -0.15031,0.251421 -0.21875,0.375 l 0,3 c 0.61848,-0.312582 1.22076,-0.671792 1.8125,-1.03125 0.0494,0.08138 0.1087,0.16802 0.15625,0.25 -0.6589,0.407023 -1.31043,0.810869 -1.96875,1.21875 l 0,2.25 c 0.18933,-0.06523 0.3539,-0.105095 0.5,-0.15625 0.42658,0.03111 0.8293,0.09591 1.25,0.1875 0.0286,0.08623 0.10075,0.1594 0.0937,0.25 -0.002,0.0191 0.003,0.04367 0,0.0625 -0.61673,0.0296 -1.2261,0.02466 -1.84375,0.03125 l 0,4.1875 c 0,2.233297 -1.7667,4 -4,4 l -18.28125,0 c -0.26327,0.153492 -0.52503,0.304643 -0.78125,0.46875 -0.003,2.38e-4 0.005,0.02696 0,0.03125 -0.002,0.0086 -0.0276,0.08042 -0.0313,0.09375 -0.043,0.01869 -0.0818,0.04534 -0.125,0.0625 0.0589,-0.07458 0.096,-0.124477 0.125,-0.15625 -0.23234,0.149658 -0.4643,0.305318 -0.6875,0.46875 -0.0286,0.02095 -0.0678,0.039 -0.0937,0.0625 0.0408,-0.257687 0.13574,-0.632374 0.15625,-1.03125 l -1.9375,0 c -0.59822,0.330616 -1.19949,0.674125 -1.78125,1.03125 0.10392,-0.177817 0.20871,-0.353383 0.3125,-0.53125 -0.0216,0.0082 -0.0409,0.02308 -0.0625,0.03125 0.17034,-0.28151 0.29648,-0.478338 0.3125,-0.53125 l -0.0313,0 c -0.13371,0.06425 -0.62357,0.372872 -1.59375,0.9375 0.1062,-0.311448 0.20024,-0.628511 0.3125,-0.9375 l -2.375,0 c -0.0817,0.03699 -0.16762,0.06086 -0.25,0.09375 -0.005,0.0158 -0.0227,0.10143 -0.0313,0.125 -0.14612,0.100337 -0.29654,0.204569 -0.4375,0.3125 -0.0458,0.03508 -0.0887,0.08183 -0.125,0.125 0.0376,-0.196338 0.0827,-0.440406 0.125,-0.65625 l -3.0625,0 c -0.01214,0.0079 -0.01914,0.02336 -0.03125,0.03125 0.003,-0.0093 -0.003,-0.02198 0,-0.03125 l -9.34375,0 c -0.270971,0.165078 -0.545555,0.331322 -0.8125,0.5 -0.31218,0.154261 -0.618736,0.333759 -0.90625,0.53125 -0.294145,0.202046 -0.317425,0.621545 -0.4375,0.96875 l 41.875,0 c 3.3067,0 6,-2.693297 6,-6 l 0,-15 c 0,-0.347986 -0.0365,-0.699275 -0.0937,-1.03125 z m -32.71875,20.125 c 0.0286,-0.08864 -0.006,-0.03755 -0.125,0.0625 0.0434,-0.01581 0.0819,-0.04527 0.125,-0.0625 z M 140.5,42.15625 c -0.33877,0.166489 -0.66845,0.350648 -1,0.53125 l 0,2.1875 c 0.2984,-0.803872 0.6352,-1.600718 1,-2.375 0.004,-0.0085 -0.004,-0.02273 0,-0.03125 l 0,-0.3125 z m -14.4375,0.40625 c -0.31828,3e-6 -0.60314,0.0579 -0.875,0.15625 -0.0447,0.03372 -0.073,0.100609 -0.0937,0.15625 -0.083,0.0415 -0.16642,0.08489 -0.25,0.125 -0.4576,0.680845 -0.91273,1.353595 -1.375,2.03125 -0.0532,0.305246 -0.0937,0.61233 -0.0937,0.96875 0,0.902643 0.17208,1.657771 0.5625,2.25 0.49451,0.739268 1.25132,1.09375 2.28125,1.09375 0.65067,0 1.19369,-0.142003 1.625,-0.46875 0.43502,-0.330832 0.76797,-0.80851 0.96875,-1.4375 L 127.25,47.125 c -0.0855,0.32675 -0.2077,0.571715 -0.375,0.71875 -0.16732,0.147042 -0.3796,0.218751 -0.625,0.21875 -0.36067,10e-7 -0.66457,-0.124429 -0.90625,-0.40625 -0.24168,-0.285903 -0.36384,-0.676954 -0.375,-1.1875 l 3.3125,0 c 0.0138,-0.09277 0.0183,-0.18843 0.0313,-0.28125 0.0327,-0.19785 0.0574,-0.396398 0.0937,-0.59375 0.12372,-0.167421 0.25061,-0.333174 0.375,-0.5 -0.11856,-0.642745 -0.31447,-1.174075 -0.625,-1.5625 -0.12735,-0.160309 -0.25493,-0.316622 -0.40625,-0.4375 -0.21922,0.239361 -0.43371,0.482427 -0.65625,0.71875 -0.16019,0.05052 -0.32917,0.09671 -0.46875,0.15625 0.14308,0.06889 0.26345,0.181803 0.375,0.3125 0.22308,0.257318 0.33259,0.626714 0.34375,1.125 l -2.34375,0 c -0.004,-0.469696 0.0894,-0.851344 0.3125,-1.125 0.22308,-0.273646 0.50167,-0.406245 0.84375,-0.40625 0.10407,2e-6 0.21446,0.03279 0.3125,0.0625 0.27311,-0.363287 0.53816,-0.7314 0.8125,-1.09375 -0.359,-0.174206 -0.7618,-0.281246 -1.21875,-0.28125 z m -75.5625,0.5 c -0.334515,0.344605 -0.660928,0.691148 -1,1.03125 l 0,1.46875 c 0.332248,-0.32229 0.670227,-0.643943 1,-0.96875 l 0,-1.53125 z m 68.0625,0 c -1.02105,1e-5 -1.89258,0.305611 -2.625,0.9375 -0.17419,0.633515 -0.35201,1.186762 -0.53125,1.6875 -0.1038,0.145654 -0.20927,0.291441 -0.3125,0.4375 -0.20335,0.2877 -0.97512,0.88285 -0.625,0.84375 0.0807,-0.009 0.14186,-0.02137 0.21875,-0.03125 -0.1151,0.10441 -0.51585,0.34695 -0.375,0.28125 0.21934,-0.102236 0.43534,-0.212593 0.65625,-0.3125 -0.0804,0.220163 -0.16807,0.436661 -0.25,0.65625 -0.21701,0.270622 -0.43771,0.543117 -0.65625,0.8125 -0.0598,0.569642 -0.0937,1.174644 -0.0937,1.84375 0,1.852072 0.2297,3.306766 0.6875,4.375 0.0128,-0.05193 0.0193,-0.104434 0.0313,-0.15625 0.0118,-0.05131 0.0191,-0.10503 0.0313,-0.15625 0.49078,0.06535 0.97911,0.152141 1.46875,0.21875 -0.0701,0.158139 -0.15084,0.30968 -0.21875,0.46875 -0.31592,0.164077 -0.62215,0.297204 -0.90625,0.375 0.0418,0.0628 0.0807,0.128635 0.125,0.1875 0.16739,0.221167 0.34539,0.417586 0.53125,0.59375 0.0938,8.19e-4 0.17033,0.02609 0.25,0.0625 0.18577,0.0849 0.30736,0.23806 0.40625,0.4375 0.57378,0.350042 1.21591,0.53125 1.9375,0.53125 1.18407,0 2.15118,-0.426691 2.90625,-1.28125 0.5402,-0.611393 0.90189,-1.382518 1.0625,-2.28125 -0.19875,-0.03891 -0.39488,-0.08686 -0.59375,-0.125 0.22499,-0.581164 0.54794,-1.347887 0.65625,-1.625 -0.10294,-1.039741 -0.46176,-1.923178 -1.0625,-2.625 -0.71504,-0.841983 -1.58701,-1.249991 -2.59375,-1.25 -0.89235,9e-6 -1.61813,0.377102 -2.21875,1.15625 0.0915,-1.589723 0.30732,-2.622307 0.65625,-3.125 0.35465,-0.502671 0.77215,-0.749988 1.28125,-0.75 0.38325,1.2e-5 0.69725,0.123671 0.9375,0.375 0.24025,0.251352 0.4115,0.628445 0.46875,1.15625 l 2.1875,-0.25 c 0.0383,-0.05712 0.0551,-0.130573 0.0937,-0.1875 -0.18353,-1.037909 -0.5585,-1.851089 -1.15625,-2.40625 -0.0888,-0.08417 -0.18542,-0.14696 -0.28125,-0.21875 -0.10938,0.01418 -0.21363,0.04778 -0.34375,0.09375 0.0319,-0.104913 0.0352,-0.188859 0.0625,-0.28125 -0.51885,-0.304901 -1.12259,-0.46874 -1.8125,-0.46875 z m -57.5,0.0625 0.3125,0.9375 c 0.214306,-0.243443 0.442564,-0.474762 0.65625,-0.71875 0.06576,0.199299 0.235167,0.423092 0.25,0.625 0.02895,0.394016 0.03528,0.738397 0.03125,1.0625 -0.136077,0.219406 -0.268829,0.437739 -0.40625,0.65625 l 3.0625,9.40625 c 0.08306,-0.07473 0.169024,-0.146842 0.25,-0.21875 0.377667,-0.201312 0.760754,-0.400952 1.125,-0.625 0.03224,0.167762 0.06695,0.331278 0.09375,0.5 -0.0066,0.02153 -0.0243,0.04094 -0.03125,0.0625 -0.309467,0.619625 -0.62122,1.238688 -0.9375,1.84375 l 0.09375,0.28125 2.71875,0 4.03125,-12.375 c -0.206998,0.418107 -0.41604,0.832829 -0.625,1.25 -1.258007,-0.215268 -1.583971,0.282973 -1.75,0.96875 -0.321575,0.02587 -0.653165,0.05613 -0.96875,0.0625 l -0.5,1.65625 c 0.242706,-0.03171 0.488481,-0.06415 0.71875,-0.09375 -0.05179,0.224718 -0.07286,0.452297 -0.15625,0.65625 -0.201445,0.492663 -0.413884,0.980126 -0.625,1.46875 -0.229103,0.08712 -0.439378,0.226766 -0.65625,0.34375 L 67,53.34375 63.8125,43.125 l -2.75,0 z m 9.03125,0 -0.875,2.875 c 0.204649,-0.192116 0.420294,-0.370443 0.625,-0.5625 0.693633,-0.62217 1.362226,-1.26031 2.0625,-1.875 0.172961,-0.15182 0.367509,-0.303807 0.5625,-0.4375 l -1.625,0 c -0.270164,0.216668 -0.530156,0.447729 -0.78125,0.6875 0.144467,-0.229619 0.293701,-0.457518 0.4375,-0.6875 l -0.40625,0 z m 2.59375,0.25 c -0.405414,0.720528 -0.702777,1.236458 -0.25,0.8125 l 0.25,-0.8125 z m 67.8125,1 c -0.33899,0.20395 -0.66483,0.415346 -1,0.625 l 0,0.6875 c 0.33099,-0.209994 0.66647,-0.418817 1,-0.625 l 0,-0.6875 z m -90,0.71875 c -0.32797,0.411337 -0.668019,0.810678 -1,1.21875 l 0,3.46875 c 0.336238,-0.266421 0.661103,-0.549298 1,-0.8125 l 0,-3.875 z m 90,0.40625 c -0.33288,0.136732 -0.66681,0.270271 -1,0.40625 l 0,0.875 c 0.0432,-0.01774 0.0818,-0.0448 0.125,-0.0625 -0.0384,0.03536 -0.0864,0.05861 -0.125,0.09375 l 0,1.40625 c 0.26191,-0.154712 0.51923,-0.314251 0.78125,-0.46875 -0.003,0.02025 0.003,0.04224 0,0.0625 -0.29376,0.169143 -0.54018,0.277706 -0.78125,0.40625 l 0,9.3125 c 0.18139,-0.114921 0.18897,-0.108436 0,0.03125 l 0,0.4375 c 0.32202,-0.203429 0.65269,-0.41395 0.96875,-0.625 0.0122,-0.0081 0.0194,-0.0227 0.0313,-0.03125 L 140.5,45.5 z m -47.9375,1.1875 c -0.118337,10e-7 -0.229332,0.02178 -0.34375,0.03125 -0.224438,0.241882 -0.458895,0.480906 -0.6875,0.71875 0.0904,-0.220182 0.190934,-0.436042 0.28125,-0.65625 -0.878887,0.165191 -1.630092,0.603581 -2.25,1.34375 -0.789384,0.936252 -1.1875,2.216155 -1.1875,3.875 0,1.388662 0.305631,2.526391 0.90625,3.4375 0.190195,0.284329 0.416252,0.535555 0.65625,0.75 8.55e-4,-0.01541 0.0011,-0.05013 0,-0.0625 0.165997,-0.09214 0.37586,-0.223281 0.625,-0.375 0.23078,0.02502 0.45645,0.07371 0.6875,0.09375 0.369906,0.100431 0.788173,0.191503 1.15625,0.34375 -0.05857,0.180569 -0.09023,0.374718 -0.09375,0.5625 -0.0016,0.084 -0.0094,0.218816 0.03125,0.3125 -0.04427,0.01605 -0.08072,0.04645 -0.125,0.0625 0.184701,0.01812 0.364438,0.03125 0.5625,0.03125 1.001024,0 1.836453,-0.247318 2.5,-0.75 0.669257,-0.508965 1.159854,-1.251085 1.46875,-2.21875 L 94.34375,53.75 c -0.13157,0.502684 -0.305099,0.867545 -0.5625,1.09375 -0.257414,0.226208 -0.591224,0.343751 -0.96875,0.34375 -0.554862,10e-7 -1.003192,-0.222685 -1.375,-0.65625 -0.371814,-0.439844 -0.576595,-1.058306 -0.59375,-1.84375 l 6.03125,0 c 0.03431,-2.029572 -0.341343,-3.519763 -1.125,-4.5 -0.09085,-0.114369 -0.18322,-0.21091 -0.28125,-0.3125 -0.147363,0.07874 -0.275408,0.164222 -0.40625,0.25 -0.07414,-0.01232 -0.148592,-0.01991 -0.21875,-0.03125 0.160606,-0.138249 0.275869,-0.288669 0.375,-0.46875 -0.07173,-0.06249 -0.143507,-0.131171 -0.21875,-0.1875 -0.290321,0.134152 -0.688285,0.343417 -0.9375,0.4375 0.252684,-0.188227 0.467185,-0.439257 0.75,-0.5625 -0.08969,-0.05917 -0.186817,-0.105317 -0.28125,-0.15625 -0.07511,0.04829 -0.14379,0.107745 -0.21875,0.15625 0.01051,-0.111344 -0.02439,-0.177261 -0.15625,-0.1875 -0.109008,-0.0085 -0.236738,-0.0068 -0.34375,0 0.0726,-0.06184 0.09774,-0.07889 0.1875,-0.15625 -0.09091,0.05777 -0.188655,0.100704 -0.28125,0.15625 -0.08777,0.0087 -0.163352,0.014 -0.25,0.03125 0.105588,-0.101039 0.22019,-0.223018 0.3125,-0.3125 -0.372981,-0.104325 -0.783911,-0.156247 -1.21875,-0.15625 z m 11.53125,0 c -1.20696,1e-5 -2.2049,0.587725 -3,1.71875 l 0,-1.46875 -1.34375,0 c -0.287726,0.4825 -0.601661,0.926168 -0.90625,1.375 l 0,8.5 c 0.107448,-0.06888 0.196138,-0.112303 0.3125,-0.1875 0.152562,-0.07945 0.31704,-0.142649 0.46875,-0.21875 0.03927,-0.0197 0.05542,-0.08147 0.0625,-0.125 0.09153,-0.05973 0.122628,-0.0621 0.21875,-0.125 0.30781,-0.20142 0.36404,-0.62778 0.5625,-0.9375 0.10287,-0.16053 0.20674,-0.310113 0.3125,-0.46875 0.15627,-0.145961 0.31307,-0.290899 0.46875,-0.4375 l 0,-1.90625 c -1e-5,-1.118461 0.0674,-1.897781 0.1875,-2.3125 0.12584,-0.414706 0.35573,-0.748651 0.6875,-1 0.33177,-0.251332 0.70742,-0.374992 1.125,-0.375 0.17907,4e-6 0.32439,0.03596 0.46875,0.09375 0.01,-0.02238 0.0215,-0.04021 0.0313,-0.0625 0.30414,-0.195812 0.60515,-0.393482 0.90625,-0.59375 -0.0434,0.165977 -0.10244,0.337188 -0.15625,0.5 -0.0758,0.229551 -0.11577,0.401547 -0.1875,0.59375 0.11635,0.132805 0.21947,0.276479 0.28125,0.46875 0.10293,0.314183 0.15624,1.012991 0.15625,2.09375 l 0,5.125 2.40625,0 0,-6.21875 c -1e-5,-0.772867 -0.0648,-1.36653 -0.15625,-1.78125 -0.0858,-0.414705 -0.23995,-0.798248 -0.46875,-1.125 -0.22309,-0.326734 -0.55955,-0.573884 -1,-0.78125 -0.44046,-0.21363 -0.90553,-0.34374 -1.4375,-0.34375 z m -30.6875,0.25 0,6.3125 c -10e-7,0.942532 0.09513,1.684653 0.3125,2.21875 0.217366,0.534101 0.576282,0.954674 1.0625,1.25 0.486211,0.295326 1.044188,0.4375 1.65625,0.4375 0.160408,0 0.314918,-0.0086 0.46875,-0.03125 0.02433,-0.0508 0.04372,-0.103256 0.0625,-0.15625 0.07531,-0.212507 0.146776,-0.411442 0.21875,-0.625 0.333312,-0.02728 0.666678,-0.03531 1,-0.0625 0.0025,0.02943 -0.0065,0.06462 0,0.09375 0.0056,0.02514 0.01784,0.06499 0.03125,0.09375 -0.323134,0.191203 -0.646554,0.401031 -0.96875,0.59375 0.302035,-0.07838 0.585821,-0.209414 0.875,-0.375 0.543409,-0.307892 0.980723,-0.715899 1.3125,-1.25 l 0,1.21875 c 0.01677,0.01591 0.05185,0.01043 0.0625,0.03125 0.03662,0.07164 0.04699,0.170412 0.0625,0.25 l 2.125,0 0,-10 -2.40625,0 0,1.03125 c 0.608619,-0.327906 1.163314,-0.658857 1.6875,-0.96875 -0.05259,0.102264 -0.104991,0.211278 -0.15625,0.3125 -0.08657,0.170942 -0.192427,0.330213 -0.28125,0.5 -0.573658,0.01825 -0.947899,0.197877 -1.25,0.46875 l 0,2.875 c -7e-6,1.432648 -0.06738,2.316775 -0.1875,2.6875 -0.12013,0.364447 -0.330207,0.686162 -0.65625,0.9375 -0.0061,0.03209 -0.02511,0.06166 -0.03125,0.09375 -0.05201,0.0028 -0.104238,-0.0028 -0.15625,0 -0.285878,0.168829 -0.597447,0.281252 -0.9375,0.28125 -0.360375,2e-6 -0.640477,-0.09903 -0.875,-0.28125 -0.234531,-0.188504 -0.408481,-0.435821 -0.5,-0.75 -0.08581,-0.320457 -0.125004,-1.186236 -0.125,-2.59375 l 0,-4.59375 -2.40625,0 z m 19.28125,1.78125 c 0.49193,8e-6 0.938033,0.191612 1.28125,0.59375 0.343204,0.39587 0.514085,0.983416 0.53125,1.75 l -3.625,0 c -0.0057,-0.722599 0.188036,-1.297746 0.53125,-1.71875 0.343206,-0.420988 0.75499,-0.624992 1.28125,-0.625 z m 42.84375,0.1875 c 0.0383,-0.01768 -0.0998,0.1043 -0.0937,0.0625 0.001,-0.01 -0.002,-0.02132 0,-0.03125 0.0293,-0.01393 0.0643,-0.01768 0.0937,-0.03125 z M 50.5,49.03125 c -0.337527,0.29848 -0.65916,0.611509 -1,0.90625 l 0,1.1875 c 0.336438,-0.289332 0.66566,-0.583212 1,-0.875 l 0,-1.21875 z m 67.8125,0.875 c 0.48049,7e-6 0.89841,0.204011 1.21875,0.625 0.32033,0.414718 0.46874,1.070211 0.46875,1.96875 -1e-5,0.873413 -0.14005,1.522957 -0.4375,1.90625 -0.29746,0.383297 -0.67883,0.562502 -1.125,0.5625 -0.46334,2e-6 -0.85838,-0.222518 -1.21875,-0.6875 -0.31521,-0.412207 -0.48754,-0.976877 -0.53125,-1.6875 -0.36449,-0.06466 -0.73084,-0.114392 -1.09375,-0.1875 0.0624,-0.122811 0.13107,-0.246155 0.1875,-0.375 0.1534,0.04923 0.31314,0.04257 0.4375,-0.03125 0.20546,-0.121958 0.28705,-0.173145 0.46875,-0.28125 0.0656,-0.517763 0.22849,-0.92185 0.46875,-1.21875 0.32033,-0.402139 0.69291,-0.593743 1.15625,-0.59375 z M 50.5,51.25 c -0.333755,0.370287 -0.664517,0.756284 -1,1.125 l 0,1.875 c 0.33488,-0.373012 0.666538,-0.750735 1,-1.125 l 0,-1.875 z m 5.5,1.65625 c -0.668642,0.536611 -1.332844,1.086523 -2,1.625 l 0,1.1875 c 0.01114,-0.0096 0.0201,-0.02164 0.03125,-0.03125 C 54.679203,55.129299 55.336952,54.571276 56,54.03125 l 0,-1.125 z m -5.5,0.9375 c -0.331297,0.298419 -0.654205,0.607066 -1,0.90625 l 0,5.46875 c 0.06506,-0.1231 0.110853,-0.229422 0.1875,-0.375 0.08784,-0.01736 0.228522,-0.309894 0.3125,-0.59375 0.04402,-0.02622 0.08064,-0.06832 0.125,-0.09375 0.129132,-0.110391 0.246984,-0.232134 0.375,-0.34375 l 0,-4.96875 z m 50.75,0.53125 c -0.25235,0.663489 -0.52553,1.328732 -0.78125,1.9375 -0.0881,0.209783 -0.18904,0.416969 -0.28125,0.625 l 1.0625,0 0,-2.5625 z M 56,54.53125 c -0.270587,0.395802 -0.542569,0.791256 -0.8125,1.1875 C 54.800769,55.618155 54.306433,55.779775 54,55.875 l 0,1.5 c 0,3.306703 2.693297,6 6,6 l 3.59375,0 c 0.187006,-0.353002 0.371971,-0.711387 0.5625,-1.0625 0.237332,-0.191083 0.483604,-0.514023 0.75,-0.9375 L 60,61.375 c -1.026612,0 -1.953117,-0.379644 -2.65625,-1 -0.05935,0.104822 -0.120931,0.165826 -0.1875,0.28125 -0.0293,0.053 -0.06449,0.103221 -0.09375,0.15625 -0.380448,0.10005 -0.751958,0.219475 -1.125,0.34375 0.270233,-0.393144 0.51288,-0.741897 0.90625,-1.34375 C 56.327418,59.139075 56,58.302523 56,57.375 l 0,-2.84375 z m 7.59375,8.84375 5.28125,0 c 0.168171,-0.238901 0.331835,-0.479845 0.5,-0.71875 -0.100313,0.24101 -0.212213,0.477729 -0.3125,0.71875 l 2.28125,0 c 0.244647,-0.673206 0.512729,-1.33577 0.78125,-2 l -3.75,0 c -0.07885,0.117788 -0.170648,0.226352 -0.25,0.34375 0.05379,-0.113768 0.102007,-0.230197 0.15625,-0.34375 L 65,61.375 c -0.168317,0.353111 -0.310876,0.631999 -0.5,1.03125 -0.138485,0.269943 -0.224876,0.391749 -0.34375,0.625 -0.192426,0.106568 -0.401709,0.253395 -0.5625,0.34375 z M 140,54.84375 c -0.039,0.08512 -0.0882,0.163734 -0.125,0.25 -0.0152,-6.57e-4 -0.0462,6.7e-4 -0.0625,0 0.0175,-0.06386 0.0466,-0.129875 0.0625,-0.1875 0.0377,-0.0262 0.087,-0.03657 0.125,-0.0625 z m -64.5,1.6875 c -0.09542,0.198562 -0.260691,0.3504 -0.125,0.125 0.03865,-0.04292 0.08662,-0.08078 0.125,-0.125 z m 64,1.59375 0,3.21875 c 0.3336,0.105702 0.6715,0.229979 1,0.25 0.001,-0.05252 0,-0.103427 0,-0.15625 l 0,-3.21875 c -0.33272,-0.03647 -0.66792,-0.05209 -1,-0.09375 z m -6.03125,2.46875 c 0.0414,0.0037 0.0832,0.02745 0.125,0.03125 -0.0134,0.01816 -0.049,0.01275 -0.0625,0.03125 -0.024,-0.01974 -0.0387,-0.0335 -0.0625,-0.0625 z M 50.5,60.875 c -0.417134,0.233456 -0.699537,0.391278 -1,0.5625 0,0.01056 -5.1e-5,0.0207 0,0.03125 0.001,0.211553 0.01033,0.418764 0.03125,0.625 0.175085,-0.08374 0.372313,-0.147319 0.4375,-0.15625 0.07853,-0.01076 0.162279,-0.01178 0.21875,0 -0.127518,0.177321 -0.192179,0.286154 -0.34375,0.5 -0.07052,0.09628 -0.147917,0.185181 -0.21875,0.28125 0.002,0.0098 -0.002,0.02147 0,0.03125 0.581526,2.844974 3.045393,4.995764 6.03125,5.125 0.130935,-0.193656 0.208886,-0.44578 0.28125,-0.6875 0.235988,-0.105296 0.482373,-0.208369 0.71875,-0.3125 l -0.71875,0 C 52.916476,66.875 50.5,64.458524 50.5,61.4375 l 0,-0.5625 z m 23.0625,0.5 c -0.482057,0.647274 -1.023452,1.35477 -1.53125,2 l 6.15625,0 c 0.08104,-0.0675 0.188638,-0.132712 0.25,-0.15625 0.03343,-0.01279 0.06094,0.01049 0.09375,0.03125 -0.07331,0.04068 -0.14476,0.08561 -0.21875,0.125 l 9.03125,0 c 0.195809,-0.667333 0.393912,-1.344459 0.625,-2 l -7.15625,0 c -0.992904,0.502492 -1.953947,1.078613 -2.90625,1.65625 -0.0018,-0.51849 -0.0097,-1.041778 0,-1.5625 4.64e-4,-0.02489 0.02648,-0.06368 0.03125,-0.09375 l -4.375,0 z m 66.15625,0.9375 c -0.10483,0.0092 -0.19821,0.03731 -0.28125,0.09375 -0.012,0.0081 -0.0192,0.02311 -0.0313,0.03125 -0.42956,2.335883 -2.32743,4.138588 -4.71875,4.40625 0.15718,0.267854 0.31811,0.540806 0.46875,0.8125 -0.19052,-0.145503 -0.38861,-0.300026 -0.625,-0.5 -0.12876,-0.108924 -0.20946,-0.183922 -0.3125,-0.28125 -0.0519,0.0014 -0.10396,0 -0.15625,0 l -6.375,0 c -0.10332,0.02163 -0.20896,0.04086 -0.3125,0.0625 2.7e-4,-0.02078 -2.8e-4,-0.04172 0,-0.0625 l -12.875,0 c 0.0526,0.121163 0.10022,0.222258 0.15625,0.34375 -0.14451,0.0838 -0.29171,0.168782 -0.4375,0.25 -0.13541,0.09122 -0.37718,0.260295 -0.59375,0.40625 l 1.3125,0 c 0.0195,-0.0126 0.043,-0.01864 0.0625,-0.03125 0.007,0.01292 0.0239,0.01861 0.0313,0.03125 l 19.03125,0 c 3.18713,0 5.8277,-2.304551 6.34375,-5.34375 -0.12238,-0.08165 -0.24757,-0.150914 -0.375,-0.1875 -0.0965,-0.02771 -0.20767,-0.04044 -0.3125,-0.03125 z M 57.25,66.875 c 0.05985,0.100825 0.194197,0.104361 0.375,0.0625 -0.03244,0.199596 -0.07176,0.393107 -0.09375,0.59375 -0.0061,0.114763 -0.0157,0.228312 -0.03125,0.34375 l 2.71875,0 c 0.378799,-0.31267 0.756022,-0.649064 1.125,-1 l -4.09375,0 z m 4.875,0 c -0.159327,0.282766 -0.241177,0.473897 -0.4375,0.8125 -0.03153,0.05438 -0.104468,0.122999 -0.15625,0.1875 l 8.40625,0 c 0.07128,-0.05191 0.149656,-0.100865 0.21875,-0.15625 -0.01204,0.04953 -0.02552,0.104958 -0.03125,0.15625 l 6.09375,0 c 0.02078,-0.08454 0.03816,-0.120473 0.0625,-0.21875 0.188166,0.06949 0.374423,0.149036 0.5625,0.21875 l 5.65625,0 c -0.460022,-0.244652 -0.946358,-0.510897 -1.53125,-0.8125 0.0409,-0.0629 0.08405,-0.124629 0.125,-0.1875 l -13.5,0 c -0.05534,0.133945 -0.100972,0.272278 -0.15625,0.40625 -0.03516,0.101676 -0.111044,0.247469 -0.1875,0.375 -0.05361,0.04351 -0.101644,0.07987 -0.15625,0.125 -0.0016,-0.300096 0.02813,-0.646471 0.0625,-0.90625 l -5.03125,0 z m 21.46875,0 c 0.03978,0.341511 -0.0213,0.694404 -0.03125,1 l 4.28125,0 c 0.188853,-0.339698 0.405494,-0.659572 0.59375,-1 l -4.84375,0 z m 5.1875,0 c -0.0561,0.331522 -0.09629,0.669349 -0.15625,1 l 2.6875,0 c 0.0549,-0.404904 0.107854,-0.698864 0.15625,-1 l -2.6875,0 z m 3.3125,0 c -0.245119,0.336006 -0.504756,0.66218 -0.75,1 l 5.46875,0 c 0.04252,-0.309347 0.113987,-0.625821 0.125,-0.9375 5.9e-4,-0.01669 -0.0017,-0.04418 0,-0.0625 l -0.40625,0 c 0.610625,1.189839 -0.282403,1.047955 -1.40625,0.71875 0.225789,-0.344379 0.400389,-0.549085 0.53125,-0.71875 l -3.5625,0 z m 6.125,0 c -0.200937,0.327088 -0.390912,0.67407 -0.59375,1 l 12.59375,0 c 0.075,-0.02328 0.14431,-0.06894 0.21875,-0.09375 -0.008,0.03206 -0.0237,0.06163 -0.0313,0.09375 l 3.03125,0 c -0.0187,-0.009 -0.0537,-0.0111 -0.0625,-0.03125 -0.0693,-0.1582 0.002,-0.35868 0,-0.53125 0.0114,-0.148983 0.043,-0.290164 0.0625,-0.4375 l -4.71875,0 c -0.0352,0.07093 -0.0586,0.147921 -0.0937,0.21875 -0.006,-0.07097 0.008,-0.150052 0,-0.21875 l -10.40625,0 z"
         transform="scale(1.0480864,0.95411981)"
         id="path3784"
         inkscape:connector-curvature="0" />
    </g>
    <g
       style="font-size:16px;font-style:normal;font-variant:normal;font-weight:bold;font-stretch:normal;line-height:125%;letter-spacing:0px;word-spacing:0px;fill:#000000;fill-opacity:1;stroke:none;font-family:Arial;-inkscape-font-specification:Arial Bold"
       id="text2990">
      <path
         style="font-size:20px"
         d="M 40 101.875 C 36.961649 101.875 34.5 104.33665 34.5 107.375 L 34.5 137.375 C 34.5 140.41335 36.961649 142.875 40 142.875 L 180 142.875 C 183.03835 142.875 185.5 140.41335 185.5 137.375 L 185.5 107.375 C 185.5 104.33665 183.03835 101.875 180 101.875 L 40 101.875 z M 40 102.875 L 180 102.875 C 182.50165 102.875 184.5 104.87335 184.5 107.375 L 184.5 137.375 C 184.5 139.87665 182.50165 141.875 180 141.875 L 40 141.875 C 37.498351 141.875 35.5 139.87665 35.5 137.375 L 35.5 107.375 C 35.5 104.87335 37.498351 102.875 40 102.875 z M 45 106.375 C 41.693297 106.375 39 109.0683 39 112.375 L 39 132.375 C 39 135.6817 41.693297 138.375 45 138.375 L 175 138.375 C 178.3067 138.375 181 135.6817 181 132.375 L 181 112.375 C 181 109.0683 178.3067 106.375 175 106.375 L 45 106.375 z M 45 108.375 L 175 108.375 C 177.2333 108.375 179 110.1417 179 112.375 L 179 132.375 C 179 134.6083 177.2333 136.375 175 136.375 L 45 136.375 C 42.766703 136.375 41 134.6083 41 132.375 L 41 112.375 C 41 110.1417 42.766703 108.375 45 108.375 z M 48.3125 115.09375 L 48.3125 129.40625 L 51 129.40625 L 51 120.0625 L 56.78125 129.40625 L 59.6875 129.40625 L 59.6875 115.09375 L 57 115.09375 L 57 124.65625 L 51.125 115.09375 L 48.3125 115.09375 z M 109.46875 115.09375 L 109.46875 129.40625 L 112.21875 129.40625 L 112.21875 115.09375 L 109.46875 115.09375 z M 151.71875 115.09375 L 151.71875 117.625 L 154.46875 117.625 L 154.46875 115.09375 L 151.71875 115.09375 z M 157.25 115.09375 L 157.25 129.40625 L 160 129.40625 L 160 115.09375 L 157.25 115.09375 z M 168.71875 115.09375 L 168.71875 118.4375 L 169.4375 125.71875 L 170.96875 125.71875 L 171.6875 118.4375 L 171.6875 115.09375 L 168.71875 115.09375 z M 147.90625 115.375 L 145.15625 116.96875 L 145.15625 119.03125 L 143.90625 119.03125 L 143.90625 121.21875 L 145.15625 121.21875 L 145.15625 125.75 C 145.15625 126.72005 145.1914 127.36849 145.25 127.6875 C 145.32161 128.13672 145.44271 128.48308 145.625 128.75 C 145.8138 129.01042 146.10286 129.23698 146.5 129.40625 C 146.89713 129.56899 147.34895 129.625 147.84375 129.625 C 148.65103 129.625 149.36197 129.49218 150 129.21875 L 149.78125 127.09375 C 149.29947 127.26952 148.91015 127.375 148.65625 127.375 C 148.47395 127.375 148.3177 127.30985 148.1875 127.21875 C 148.06379 127.12761 148.00785 127.01172 147.96875 126.875 C 147.93625 126.73177 147.90624 126.25261 147.90625 125.40625 L 147.90625 121.21875 L 149.78125 121.21875 L 149.78125 119.03125 L 147.90625 119.03125 L 147.90625 115.375 z M 67.4375 118.8125 C 66.421869 118.81251 65.483068 119.01954 64.65625 119.46875 C 63.835935 119.91798 63.199217 120.58465 62.75 121.4375 C 62.30078 122.29037 62.093749 123.15104 62.09375 124.0625 C 62.093749 125.25391 62.30078 126.26042 62.75 127.09375 C 63.199217 127.92057 63.859373 128.57032 64.71875 129 C 65.584632 129.42969 66.486974 129.625 67.4375 129.625 C 68.973951 129.625 70.272127 129.1224 71.28125 128.09375 C 72.296864 127.0586 72.781238 125.75652 72.78125 124.1875 C 72.781238 122.63152 72.283843 121.35939 71.28125 120.34375 C 70.278636 119.32163 69.006502 118.81251 67.4375 118.8125 z M 102.3125 118.8125 C 100.9388 118.81251 99.804685 119.27345 98.90625 120.25 C 98.007812 121.22006 97.562499 122.5625 97.5625 124.28125 C 97.562499 125.72005 97.878905 126.93099 98.5625 127.875 C 99.428383 129.05338 100.79036 129.625 102.59375 129.625 C 103.73306 129.625 104.65104 129.36459 105.40625 128.84375 C 106.16796 128.31641 106.74218 127.56511 107.09375 126.5625 L 104.34375 126.09375 C 104.194 126.61458 103.98046 127.01563 103.6875 127.25 C 103.39452 127.48438 103.02343 127.59375 102.59375 127.59375 C 101.96224 127.59375 101.45442 127.35547 101.03125 126.90625 C 100.60807 126.45053 100.3945 125.8138 100.375 125 L 107.25 125 C 107.28905 122.89714 106.86067 121.35939 105.96875 120.34375 C 105.07682 119.32163 103.85546 118.81251 102.3125 118.8125 z M 125.28125 118.8125 C 124.26562 118.81251 123.35807 119.01954 122.53125 119.46875 C 121.71094 119.91798 121.07422 120.58465 120.625 121.4375 C 120.17578 122.29037 119.9375 123.15104 119.9375 124.0625 C 119.9375 125.25391 120.17578 126.26042 120.625 127.09375 C 121.07422 127.92057 121.73437 128.57032 122.59375 129 C 123.45963 129.42969 124.36198 129.625 125.3125 129.625 C 126.84896 129.625 128.11588 129.1224 129.125 128.09375 C 130.14062 127.0586 130.65624 125.75652 130.65625 124.1875 C 130.65624 122.63152 130.15884 121.35939 129.15625 120.34375 C 128.15363 119.32163 126.85026 118.81251 125.28125 118.8125 z M 74.90625 119.03125 L 74.90625 125.59375 C 74.906249 126.57032 75.002603 127.32161 75.25 127.875 C 75.497394 128.42838 75.915362 128.88151 76.46875 129.1875 C 77.022132 129.49349 77.647131 129.625 78.34375 129.625 C 79.027338 129.625 79.669265 129.47526 80.28125 129.15625 C 80.899732 128.83724 81.403638 128.39714 81.78125 127.84375 L 81.78125 129.40625 L 84.3125 129.40625 L 84.3125 119.03125 L 81.59375 119.03125 L 81.59375 123.40625 C 81.593742 124.89063 81.511711 125.83464 81.375 126.21875 C 81.238274 126.59636 80.996087 126.89584 80.625 127.15625 C 80.2539 127.41016 79.812493 127.5625 79.34375 127.5625 C 78.933588 127.5625 78.610672 127.4388 78.34375 127.25 C 78.076818 127.05469 77.885412 126.79427 77.78125 126.46875 C 77.683586 126.13672 77.624996 125.27084 77.625 123.8125 L 77.625 119.03125 L 74.90625 119.03125 z M 85.84375 119.03125 L 90.03125 129.40625 L 92.5 129.40625 L 96.625 119.03125 L 93.8125 119.03125 L 91.8125 124.3125 C 91.708327 124.60548 91.62239 124.92579 91.53125 125.21875 C 91.492182 125.36198 91.399734 125.64454 91.25 126.09375 L 90.6875 124.3125 L 88.71875 119.03125 L 85.84375 119.03125 z M 132.75 119.03125 L 132.75 125.59375 C 132.75 126.57032 132.87761 127.32161 133.125 127.875 C 133.3724 128.42838 133.75911 128.88151 134.3125 129.1875 C 134.86588 129.49349 135.49088 129.625 136.1875 129.625 C 136.87108 129.625 137.51301 129.47526 138.125 129.15625 C 138.74348 128.83724 139.24738 128.39714 139.625 127.84375 L 139.625 129.40625 L 142.1875 129.40625 L 142.1875 119.03125 L 139.4375 119.03125 L 139.4375 123.40625 C 139.4375 124.89063 139.35546 125.83464 139.21875 126.21875 C 139.08202 126.59636 138.83983 126.89584 138.46875 127.15625 C 138.09765 127.41016 137.68749 127.5625 137.21875 127.5625 C 136.80859 127.5625 136.45442 127.4388 136.1875 127.25 C 135.92056 127.05469 135.72916 126.79427 135.625 126.46875 C 135.52731 126.13672 135.5 125.27084 135.5 123.8125 L 135.5 119.03125 L 132.75 119.03125 z M 151.71875 119.03125 L 151.71875 129.40625 L 154.46875 129.40625 L 154.46875 119.03125 L 151.71875 119.03125 z M 102.46875 120.90625 C 103.02864 120.90626 103.51562 121.11459 103.90625 121.53125 C 104.29687 121.94141 104.4805 122.54949 104.5 123.34375 L 100.40625 123.34375 C 100.39973 122.59506 100.60937 121.9987 101 121.5625 C 101.39062 121.12631 101.86979 120.90626 102.46875 120.90625 z M 67.4375 121.03125 C 68.153639 121.03126 68.768222 121.29688 69.25 121.84375 C 69.738273 122.39063 69.968741 123.17188 69.96875 124.1875 C 69.968741 125.22917 69.738273 126.04688 69.25 126.59375 C 68.768222 127.14063 68.153639 127.40625 67.4375 127.40625 C 66.721349 127.40625 66.113276 127.14063 65.625 126.59375 C 65.136715 126.04688 64.906246 125.2474 64.90625 124.21875 C 64.906246 123.19011 65.136715 122.39063 65.625 121.84375 C 66.113276 121.29688 66.721349 121.03126 67.4375 121.03125 z M 125.28125 121.03125 C 125.99739 121.03126 126.61198 121.29688 127.09375 121.84375 C 127.58203 122.39063 127.81249 123.17188 127.8125 124.1875 C 127.81249 125.22917 127.58203 126.04688 127.09375 126.59375 C 126.61198 127.14063 125.99739 127.40625 125.28125 127.40625 C 124.5651 127.40625 123.98827 127.14063 123.5 126.59375 C 123.01171 126.04688 122.74999 125.2474 122.75 124.21875 C 122.74999 123.19011 123.01171 122.39063 123.5 121.84375 C 123.98827 121.29688 124.5651 121.03126 125.28125 121.03125 z M 168.84375 126.65625 L 168.84375 129.40625 L 171.5625 129.40625 L 171.5625 126.65625 L 168.84375 126.65625 z "
         id="path3767" />
    </g>
  </g>
</svg>
